<?xml version="1.0" standalone="no"?>
<!DOCTYPE svg PUBLIC "-//W3C//DTD SVG 1.1//EN" "http://www.w3.org/Graphics/SVG/1.1/DTD/svg11.dtd" >
<svg xmlns="http://www.w3.org/2000/svg" xmlns:xlink="http://www.w3.org/1999/xlink" version="1.1">
<metadata>
Created by FontForge 20190801 at Tue May 12 14:52:06 1998
 By Unknown
Digitized data copyright Monotype Typography, Ltd 1991-1995. All rights reserved. Monotype Garamond is a trademark of Monotype Typography, Ltd which may be registered in certain jurisdictions.
</metadata>
<defs>
<font id="Garamond" horiz-adv-x="1451" >
  <font-face 
    font-family="Garamond"
    font-weight="400"
    font-stretch="normal"
    units-per-em="2048"
    panose-1="2 2 4 4 3 3 1 1 8 3"
    ascent="1638"
    descent="-410"
    x-height="785"
    cap-height="1284"
    bbox="-284 -628 2177 2020"
    underline-thickness="102"
    underline-position="-205"
    unicode-range="U+0020-FB02"
  />
<missing-glyph horiz-adv-x="1536" 
d="M0 0v1280h1024v-1280h-1024zM32 32h960v1216h-960v-1216z" />
    <glyph glyph-name=".notdef" horiz-adv-x="1536" 
d="M0 0v1280h1024v-1280h-1024zM32 32h960v1216h-960v-1216z" />
    <glyph glyph-name="glyph1" horiz-adv-x="0" 
 />
    <glyph glyph-name="glyph2" horiz-adv-x="512" 
 />
    <glyph glyph-name="space" unicode=" " horiz-adv-x="512" 
 />
    <glyph glyph-name="exclam" unicode="!" horiz-adv-x="448" 
d="M243 290q-10 -2 -15 -2q-7 0 -21 3l-32 576q-3 60 -17 153q-20 124 -20 178t25 81.5t61 27.5q39 0 66 -27.5t27 -77.5q0 -46 -20 -219q-39 -332 -41 -431l-8 -240q-1 -8 -5 -22zM125 79q0 42 30.5 72.5t74.5 30.5q42 0 70.5 -29.5t28.5 -67.5t-33 -74t-66 -36
q-36 0 -70.5 35t-34.5 69z" />
    <glyph glyph-name="quotedbl" unicode="&#x22;" horiz-adv-x="832" 
d="M210 803l-55 296q-22 122 -22 166q0 64 26.5 93t71.5 29q43 0 72.5 -29.5t29.5 -76.5q0 -42 -26 -183l-54 -295h-43zM576 803l-54 292l-22 121q-2 25 -2 50q0 63 28 92t74 29q43 0 71.5 -29t28.5 -76q0 -87 -19 -186l-57 -293h-48z" />
    <glyph glyph-name="numbersign" unicode="#" horiz-adv-x="1365" 
d="M94 949h335l88 416h87l-88 -416h455l87 416h88l-88 -416h213v-88h-230l-85 -406h315v-88h-333l-85 -414h-89l87 414h-458l-84 -414h-89l86 414h-212v88h231l85 406h-316v88zM497 861l-85 -404h457l85 404h-457z" />
    <glyph glyph-name="dollar" unicode="$" horiz-adv-x="917" 
d="M335 59q11 69 12 324l2 51l-6 192q-61 26 -131.5 78t-98 109.5t-27.5 131.5q0 101 60 180t169 112l18 6v14q0 8 6 85l37 -1q5 -63 5 -95q39 4 63 4q26 0 58 -4q20 -2 33 -3v14q0 20 3 83h43q3 -19 3 -50q0 -32 1 -53q78 -20 117 -39.5t77 -51.5q10 -8 37 -44q9 -17 9 -43
q0 -25 -18 -42t-44 -17q-19 0 -51 25q-9 12 -29 34q-51 73 -64.5 84.5t-40.5 18.5q-7 -110 -7 -139q0 -10 2 -35q4 -38 4 -130l-2 -198q6 -6 16 -11l94 -62q41 -27 66 -62q48 -68 66 -122q12 -38 12 -96q0 -106 -62.5 -187t-158.5 -112q-21 -6 -39 -15q-10 -47 -10 -56
l3 -139q0 -12 -6 -71h-39q-2 38 -2 56q0 15 3 86q1 21 1 35q0 16 -2 39.5t-2 40.5q-27 -5 -131 -7q-8 -50 -10.5 -130.5t-4.5 -118.5h-37q3 80 3 249q-14 3 -36 8q-111 25 -162.5 76.5t-51.5 100.5q0 23 18 39.5t41 16.5q45 0 109 -84q47 -62 82 -75zM378 759
q31 -18 129 -65q11 -8 22 -11q1 36 1 42l6 292l-1 58l1 29q0 43 -8 87q-48 9 -91 9q-34 0 -62 -10l2 -143l-2 -134q3 -56 3 -86l-1 -46q0 -5 1 -22zM332 780q3 43 3 55v63q2 90 2 124q0 118 -5 159q-77 -19 -112 -66q-49 -65 -49 -131q0 -48 44 -109.5t117 -94.5zM377 45
q45 -17 100 -17q25 0 47 7l2 16l1 68l3 161l-1 129v72q0 14 -3 49q-71 46 -134 68q-5 -14 -5 -20l-12 -415l1 -18v-48q1 -38 1 -52zM569 52q74 31 110.5 85t36.5 131q0 43 -13 73q-29 66 -53 91q-35 38 -72 58q-3 -19 -4 -31l-2 -206l-7 -169l1 -9z" />
    <glyph glyph-name="percent" unicode="%" horiz-adv-x="1685" 
d="M367 -67q9 19 21 37t31 50q7 11 74.5 112.5t92.5 142.5q447 758 647 1029l10 1q47 -3 53 -3l-437 -685l-199 -329l-230 -353h-7q-5 0 -48 -2h-8zM584 954q0 -158 -79.5 -251.5t-177.5 -93.5q-100 0 -176.5 89.5t-76.5 245.5q0 108 39 202q30 70 90 114t129 44
q70 0 131.5 -46t97.5 -137q23 -61 23 -167zM472 935q0 148 -8 193q-14 76 -48 108t-84 32q-67 0 -105 -57.5t-38 -279.5q0 -175 39 -231t98 -56q68 0 102 48q44 63 44 243zM1617 329q0 -158 -80 -251t-178 -93q-99 0 -176 89.5t-77 244.5q0 109 40 203q29 69 89 113.5
t129 44.5q70 0 132 -46t97 -138q24 -60 24 -167zM1505 311q0 147 -9 192q-14 77 -48 108.5t-84 31.5q-66 0 -104.5 -57t-38.5 -279q0 -176 39 -232t99 -56q67 0 101 48q45 63 45 244z" />
    <glyph glyph-name="ampersand" unicode="&#x26;" horiz-adv-x="1493" 
d="M446 712q-94 120 -120.5 177t-26.5 108q0 88 73 154t208 66q125 0 193.5 -64t68.5 -159q0 -90 -46 -150t-152 -107q35 -49 112 -136q26 -29 39 -46l171 -213q85 96 125.5 174.5t40.5 120.5q0 29 -18.5 50t-63.5 33q-4 10 -4 15l2 9l115 11q35 5 99 7t178 11l2 -12
q0 -6 -4 -17q-70 -30 -119.5 -68.5t-150 -156t-172.5 -216.5q127 -152 178.5 -186.5t110.5 -34.5q65 0 113 39q32 25 46 25q5 0 17 -4q-22 -94 -41 -109q-76 -63 -167 -63q-56 0 -104.5 17.5t-100.5 54.5q-30 22 -101 91q-45 44 -59 56q-80 -80 -119 -109
q-69 -51 -150.5 -80t-186.5 -29q-129 0 -214.5 54t-124 140t-38.5 164q0 60 22 115.5t58 95t97 81.5q21 14 103 55q51 25 111 36zM607 775q56 24 88 81t32 121q0 95 -44 145.5t-112 50.5q-61 0 -99 -36.5t-38 -87.5q0 -53 40 -116q57 -88 133 -158zM861 226l-8 11l-3 4
l-223 266q-41 51 -152 173q-125 -47 -189.5 -134t-64.5 -184q0 -27 16.5 -76t59.5 -95.5t109 -72.5t151 -26q98 0 177.5 38.5t126.5 95.5z" />
    <glyph glyph-name="quotesingle" unicode="'" horiz-adv-x="363" 
d="M158 803l-54 296q-23 123 -23 166q0 64 26 93t71 29t74.5 -29.5t29.5 -75.5q0 -40 -26 -184l-54 -295h-44z" />
    <glyph glyph-name="parenleft" unicode="(" horiz-adv-x="597" 
d="M608 1309q11 -27 26 -53q-11 -11 -55 -51q-66 -62 -101 -113q-91 -131 -134 -222.5t-68 -211t-25 -281.5q0 -111 20.5 -215t73 -221t138.5 -240q39 -57 96 -107q10 -9 35 -34l14 -14l-21 -48q-87 51 -153 130q-114 135 -177.5 263t-85.5 250q-34 187 -34 269
q0 136 35 282t117 293q55 99 160 214q66 72 139 110z" />
    <glyph glyph-name="parenright" unicode=")" horiz-adv-x="597" 
d="M-44 -448q31 30 52 49q68 59 113 126q94 138 128 211q47 101 71.5 220t24.5 251q0 154 -27 268.5t-88.5 239t-127.5 211.5q-12 17 -129 134l20 49q81 -48 150 -127q105 -121 173 -257t89 -258q33 -188 33 -280q0 -116 -33 -261.5t-118 -299.5q-65 -118 -183 -238
q-51 -52 -122 -90q-10 25 -26 52z" />
    <glyph glyph-name="asterisk" unicode="*" horiz-adv-x="875" 
d="M59 725q45 34 299 158l12 9q-21 14 -59 35q-6 3 -89 52q-16 10 -154 84q17 38 37 70q239 -162 292 -191q1 30 1 36l-1 107l2 99q0 51 -5 109q41 1 77 0v-21q0 -20 -6 -120l-7 -148q-2 -17 -2 -25q0 -13 4 -38q20 11 35 23q90 67 272 163q19 -32 38 -67q-18 -11 -201 -105
q-105 -54 -114 -60q30 -19 63 -35q48 -23 57 -28l103 -57q40 -19 50 -24q14 -9 40 -27q-16 -29 -40 -65q-11 6 -84.5 52t-93.5 60q-77 55 -125 75l-1 -28q0 -201 7 -261q5 -34 5 -64l-29 -1q-16 0 -48 6q-1 20 -1 35v27l5 233l2 45q-40 -20 -123 -74.5t-182 -103.5z" />
    <glyph glyph-name="plus" unicode="+" horiz-adv-x="1365" 
d="M145 678h492v495h88v-495h495v-88h-495v-489h-88v489h-492v88z" />
    <glyph glyph-name="comma" unicode="," horiz-adv-x="448" 
d="M84 -356l1 31q12 6 24 11q105 50 140.5 103.5t35.5 95.5q0 28 -20 49t-68.5 31.5t-63.5 16.5q-10 4 -25 20q-10 21 -10 40q0 47 19 64q40 35 83 35q76 0 132 -58.5t56 -146.5q0 -61 -40 -132t-121 -115t-143 -45z" />
    <glyph glyph-name="hyphen" unicode="-" horiz-adv-x="640" 
d="M82 442h14l78 -1l134 5l98 -3l51 2q71 0 105 -9l2 -79q-62 -5 -100 -5q-35 0 -71 3q-48 3 -58 3l-42 -1q-18 -1 -43 -1q-125 0 -172 11l-2 29q0 17 6 46z" />
    <glyph glyph-name="period" unicode="." horiz-adv-x="448" 
d="M120 81q0 44 32.5 77t75.5 33q42 0 71 -31t29 -78t-30.5 -79t-73.5 -32q-42 0 -73 32.5t-31 77.5z" />
    <glyph glyph-name="slash" unicode="/" horiz-adv-x="1024" 
d="M820 1426h88l-705 -1703h-87z" />
    <glyph glyph-name="zero" unicode="0" horiz-adv-x="960" 
d="M896 631q0 -103 -15 -183q-27 -138 -75 -231t-114 -157q-48 -47 -102 -68.5t-110 -21.5q-99 0 -187.5 66t-154.5 218t-66 358q0 161 40 309t105.5 229.5t130 117.5t140.5 36q107 0 207.5 -84t160.5 -261q40 -119 40 -328zM746 664q-1 246 -18 334q-28 145 -91.5 203
t-148.5 58q-71 0 -134.5 -46t-87.5 -144q-41 -159 -41 -482q0 -320 63.5 -447.5t190.5 -127.5q87 0 150.5 54t91 200.5t26.5 328.5z" />
    <glyph glyph-name="one" unicode="1" horiz-adv-x="960" 
d="M726 2h-458q-1 9 -1 15q0 17 7 23.5t44 13.5q58 12 94 29q10 22 10 41v62q0 11 3 101q1 34 2 294l2 235l-2 137q0 30 2 189q-227 -162 -249 -162q-8 0 -17 8.5t-9 16.5q0 10 7 16q14 13 67 43q8 4 69 54q97 81 142 127t55 52q20 1 31 1q26 0 32.5 -8.5t6.5 -61.5l-7 -891
v-88q0 -32 -1 -64.5t-1 -47.5q0 -36 9 -47q6 -7 37 -18l68 -14q44 -11 48 -15q10 -9 10 -28z" />
    <glyph glyph-name="two" unicode="2" horiz-adv-x="960" 
d="M873 2q-150 6 -402 6l-217 -6l-97 3l-77 -3q-12 1 -35 5q18 42 46 77q83 102 243 263q224 225 295 353.5t71 241.5q0 106 -72 178t-177 72q-63 0 -122 -29.5t-95 -74.5q-23 -29 -61 -116q-21 -48 -25 -52q-6 -7 -14 -7t-15.5 8.5t-7.5 21.5q0 45 45.5 144t134 155
t205.5 56q153 0 255.5 -99.5t102.5 -237.5q0 -109 -70 -221.5t-322 -344.5q-83 -76 -118 -112t-141 -156q153 -6 278 -6q27 0 59 2q59 2 69 2l139 -3q23 0 47 22t65 124l24 1q5 0 15 -1q5 -10 5 -15l-2 -8q-8 -29 -14 -106q-4 -45 -15 -137z" />
    <glyph glyph-name="three" unicode="3" horiz-adv-x="960" 
d="M171 1008l-33 18q63 153 150 215.5t203 62.5q108 0 173 -48q97 -72 97 -162q0 -73 -49.5 -147t-173.5 -166l24 1q78 0 150.5 -39.5t114.5 -123t42 -179.5q0 -193 -141.5 -330.5t-360.5 -137.5q-166 0 -245 48q-43 25 -43 63q0 21 17.5 38t43.5 17q33 0 80 -36
q111 -85 193 -85q124 0 220 104.5t96 263.5q0 132 -64.5 216.5t-163.5 84.5q-74 0 -154 -70l-24 40q50 43 90 73q122 89 182 175q43 62 43 109q0 79 -56 133.5t-147 54.5q-150 0 -264 -193z" />
    <glyph glyph-name="four" unicode="4" horiz-adv-x="960" 
d="M671 1304h46q-1 -31 -1 -37l3 -147l-6 -132l4 -147v-116l2 -158q0 -37 -2 -112l21 -1h71l68 -1l56 2q2 -31 2 -46t-2 -46q-62 -3 -67 -3l-50 1h-40q-16 0 -59 2q-2 -142 0 -377q-6 -6 -13 -8l-62 -2q-20 0 -61 2q3 118 3 169q0 45 -2 82q-3 68 -3 78q0 18 2 56
q-42 -5 -65 -5q-12 0 -27 1q-101 5 -114 5t-64 -7l-103 6l-56 -3l-38 6l-48 -10l-9 7q-2 22 -2 33t2 33q28 37 103 150l195 283q72 107 121 170t97 135.5t98 136.5zM581 455l1 164l-1 130v335q-82 -108 -228 -327q-167 -250 -198 -302q44 2 66 2l274 -4q30 0 86 2z" />
    <glyph glyph-name="five" unicode="5" horiz-adv-x="960" 
d="M758 1154q-112 -9 -181 -9q-51 0 -108 3q-31 2 -37 2q-122 0 -131 -5q-4 -2 -5 -9q-3 -16 -26 -357q45 23 87 32.5t111 9.5q49 0 68 -6q95 -31 137 -56q58 -36 94.5 -82t67.5 -135q22 -64 22 -134q0 -76 -21.5 -141.5t-53.5 -109.5t-95 -91.5t-148.5 -72.5t-114.5 -26
l-145 13q-60 10 -105 32.5t-60 43.5q-9 13 -9 34q0 16 22.5 35t55.5 19q15 0 33 -9l79 -51q27 -24 67 -45q6 -3 30 -7q58 -8 63 -8q22 0 75 18t98 61.5t77.5 110t32.5 147.5q0 145 -91 239t-219 94q-57 0 -105.5 -19t-65.5 -42l-15 -6q-12 -5 -17 -5l-13 3q-3 18 -3 27
q0 8 3 28q7 49 7.5 101.5t10.5 94.5l-3 48q7 37 8 71q3 230 19 264q7 16 24 16q7 0 23 -2l6 -1l127 1q86 -5 127 -5q94 0 151 13q28 26 43 26q6 0 22 -2l3 -12l-8 -42l-5 -67q-1 -7 -9 -30z" />
    <glyph glyph-name="six" unicode="6" horiz-adv-x="960" 
d="M787 1310q9 -15 13 -33q-6 -11 -19 -15q-42 -11 -124 -58q-19 -10 -116 -93q-43 -30 -104 -112q-83 -110 -119 -196.5t-64 -226.5q-8 -40 -11 -141l-3 -37q0 -128 75.5 -255.5t188.5 -127.5q59 0 110.5 36t81.5 122t30 208q0 166 -63.5 245.5t-152.5 79.5q-27 0 -48 -8
l-8 -2q-13 0 -27 29q26 17 63 28t48 11q7 0 91 -15l29 -14q48 -15 73 -35q46 -37 82 -93q18 -29 48 -118q2 -6 14 -88l-5 -100q-21 -90 -40 -126q-28 -55 -94 -120q-34 -33 -88 -54q-76 -29 -161 -29q-162 0 -274.5 129.5t-112.5 375.5q0 137 42 259.5t119 224.5
q52 69 141.5 148t169.5 123q109 58 215 78z" />
    <glyph glyph-name="seven" unicode="7" horiz-adv-x="960" 
d="M109 1264q123 5 332 5q95 0 217 -3q74 -3 97 -3l97 1h23q8 -8 8 -15q0 -12 -23 -58q-11 -20 -97 -219q-42 -98 -103 -257l-126 -355q-45 -122 -58 -170l-23 -93q-14 -41 -14 -60q0 -15 17 -47q-12 -16 -54 -16q-19 0 -36 16q6 59 38 156q12 35 41 138t57 182l114 310
q49 132 95 243q16 37 24 52q21 37 21 61l-13 -1h-11l-132 4q-6 0 -42 -2t-54 -2l-155 1h-47l-66 2q-58 1 -72.5 -13.5t-16.5 -74.5q-1 -15 -8 -29q-11 -3 -16 -3q-11 0 -29 8q1 25 1 37l2 30l-3 55q0 72 4 97q2 10 11 23z" />
    <glyph glyph-name="eight" unicode="8" horiz-adv-x="960" 
d="M386 639q-97 52 -132 83q-50 43 -83.5 111t-33.5 139q0 124 98.5 224.5t241.5 100.5q161 0 255 -85t94 -207q0 -68 -28 -124t-83 -101q-37 -31 -127 -77q137 -73 163 -94q54 -42 91 -111t37 -153q0 -157 -108.5 -265t-276.5 -108q-173 0 -275.5 94.5t-102.5 233.5
q0 79 27 143.5t84 110.5q44 35 159 85zM543 726q84 46 117 95q54 81 54 184q0 80 -32 137.5t-85.5 82.5t-115.5 25q-99 0 -163 -68t-64 -167q0 -58 17 -96.5t54 -71.5q24 -22 112 -79q13 -8 63 -25q15 -5 43 -17zM435 617q-72 -38 -101 -67q-44 -42 -69 -100t-25 -160
q0 -107 47 -168q78 -101 204 -101q115 0 188.5 73t73.5 188q0 125 -74.5 198t-243.5 137z" />
    <glyph glyph-name="nine" unicode="9" horiz-adv-x="960" 
d="M715 1211q74 -80 106 -158q43 -110 43 -255q0 -164 -48 -292t-116.5 -221.5t-143.5 -154t-185 -110.5t-184 -50h-8q-12 9 -12 22q0 15 5 20t26 6q37 3 125 46q120 60 183 132q107 122 159.5 276t52.5 345q0 159 -36 258t-102 143t-127 44q-80 0 -136 -76
q-77 -106 -77 -306q0 -158 72 -249q51 -64 140 -64q32 0 46 6l8 3q10 0 18 -10q12 -15 12 -31l-11 -9q-22 -10 -50.5 -15t-63.5 -5q-123 0 -222 112t-99 282q0 174 111.5 290.5t266.5 116.5q67 0 118 -19t129 -77z" />
    <glyph glyph-name="colon" unicode=":" horiz-adv-x="448" 
d="M117 692q0 38 31.5 70t72.5 32q44 0 77 -33t33 -76q0 -49 -38 -89q-25 -28 -74 -28q-44 0 -73 32t-29 92zM122 83q0 44 32.5 77t75.5 33q41 0 70.5 -31t29.5 -78t-30.5 -79t-73.5 -32q-50 0 -77 37.5t-27 72.5z" />
    <glyph glyph-name="semicolon" unicode=";" horiz-adv-x="448" 
d="M235 802q45 0 75.5 -30.5t30.5 -72.5t-30.5 -72t-72.5 -30q-43 0 -73.5 30.5t-30.5 73.5q0 41 29.5 71t71.5 30zM87 -282q116 68 158 119.5t42 108.5q0 23 -14 39q-15 16 -31 16l-62 -2q-25 0 -45 22t-20 58q0 40 30 66q42 37 90 37q68 0 110 -44.5t42 -134.5
q0 -82 -33.5 -140.5t-102.5 -110.5q-40 -31 -137 -73z" />
    <glyph glyph-name="semicolon" unicode="&#x37e;" horiz-adv-x="448" 
d="M235 802q45 0 75.5 -30.5t30.5 -72.5t-30.5 -72t-72.5 -30q-43 0 -73.5 30.5t-30.5 73.5q0 41 29.5 71t71.5 30zM87 -282q116 68 158 119.5t42 108.5q0 23 -14 39q-15 16 -31 16l-62 -2q-25 0 -45 22t-20 58q0 40 30 66q42 37 90 37q68 0 110 -44.5t42 -134.5
q0 -82 -33.5 -140.5t-102.5 -110.5q-40 -31 -137 -73z" />
    <glyph glyph-name="less" unicode="&#x3c;" horiz-adv-x="1365" 
d="M1218 144l-1071 455v79l1071 452v-95l-955 -397l955 -398v-96z" />
    <glyph glyph-name="equal" unicode="=" horiz-adv-x="1365" 
d="M147 913h1072v-88h-1072v88zM147 450h1072v-89h-1072v89z" />
    <glyph glyph-name="greater" unicode="&#x3e;" horiz-adv-x="1365" 
d="M147 1130l1071 -455v-79l-1071 -452v96l955 396l-955 398v96z" />
    <glyph glyph-name="question" unicode="?" horiz-adv-x="747" 
d="M247 314h-42q-3 11 -5 30q0 11 -3 30q-4 25 -19 170l-6 62l-2 14q0 7 5 20q27 18 83 21q152 8 203 26q73 25 107.5 76t34.5 121q0 120 -85.5 212t-171.5 92q-28 0 -107 -18q-55 -12 -71 -12q-37 0 -58 19t-21 50q0 37 24 56q37 28 105 28q64 0 144.5 -31t172.5 -126
q67 -67 104.5 -160.5t37.5 -177.5q0 -70 -30 -132.5t-65.5 -94t-88.5 -50.5q-25 -9 -133 -23q-50 -7 -70.5 -21t-30.5 -38q-3 -8 -7 -68zM131 69q0 48 27 75q36 35 78 35q37 0 67 -32t30 -78q0 -45 -28.5 -72t-77.5 -27q-35 0 -65.5 30.5t-30.5 68.5z" />
    <glyph glyph-name="at" unicode="@" horiz-adv-x="1877" 
d="M1408 958l-117 -399q-66 -228 -79.5 -286t-13.5 -95q0 -31 21.5 -53t52.5 -22q74 0 176.5 73t175.5 237t73 342q0 171 -82.5 316t-233 222.5t-332.5 77.5q-231 0 -429 -122.5t-313.5 -352.5t-115.5 -478q0 -230 101.5 -418t285.5 -284.5t396 -96.5q263 0 475.5 141
t328.5 412h58q-90 -274 -327 -444t-540 -170q-238 0 -442 112.5t-317 319t-113 454.5q0 264 124 492.5t347.5 357t474.5 128.5q207 0 373.5 -85.5t253.5 -250t87 -349.5q0 -183 -81.5 -362.5t-207.5 -261.5t-263 -82q-76 0 -114.5 36t-38.5 100q0 57 18 148
q-138 -166 -228 -225.5t-166 -59.5q-71 0 -126 63.5t-55 168.5q0 146 94.5 326.5t251.5 292.5q114 83 205 83q67 0 111.5 -34.5t60.5 -103.5l33 110zM1058 917q-77 0 -155 -81q-112 -116 -191 -311q-59 -144 -59 -233q0 -62 35.5 -101.5t79.5 -39.5q58 0 121.5 43.5
t133.5 134.5t101 180q58 162 58 265q0 65 -36.5 104t-87.5 39z" />
    <glyph glyph-name="A" unicode="A" horiz-adv-x="1387" 
d="M-11 32q14 8 25 8h23q7 0 24 1q77 7 91 14q35 19 60 66q52 102 117 289q31 89 39 108q25 60 48 126l94 263q22 62 106 284q21 56 51 150l29 2l35 -1q43 -85 76 -183q18 -52 59 -155l152 -411l81 -223q64 -190 84 -233.5t37 -57.5q5 -4 37.5 -12t45.5 -12q46 -13 64 -22
q4 -11 4 -17q0 -5 -3 -15q-32 -1 -45 -1q-51 0 -180 3l-100 3l-121 -2q-12 0 -24.5 1.5t-21.5 1.5h-22q-11 1 -20 6q0 14 5 27q12 6 22 7l105 7q41 2 62 11q6 18 6 27q0 18 -26 93q-18 50 -31.5 95t-106.5 296q-41 7 -72 7l-214 -2l-63 1q-34 0 -75 -5q-13 -30 -17 -43
l-88 -275q-56 -157 -56 -173q0 -9 9 -30q21 -6 56 -11l136 -12q11 -9 11 -16q0 -5 -3 -15q-45 -1 -69 -1q-80 0 -186 5q-49 2 -70 2t-73 -2q-34 -2 -49 -2q-24 0 -62 3v6q0 7 4 19zM466 632q107 -6 244 -6q78 0 137 5q-10 39 -23 73q-65 174 -72 192l-91 231l-10 18
q-6 -12 -44 -103q-64 -156 -92 -243q-13 -39 -27 -77.5t-17.5 -54t-10.5 -31.5z" />
    <glyph glyph-name="B" unicode="B" horiz-adv-x="1259" 
d="M27 1239v31q17 4 27 5l94 5q117 10 262 16q58 2 183 2q170 0 249 -25q115 -37 171.5 -111.5t56.5 -165.5q0 -148 -211 -249l-5 -8q108 -29 177 -81t106 -127q27 -55 27 -144q0 -149 -135.5 -265.5t-373.5 -116.5h-149l-151 -5q-200 -2 -234 -2q-35 0 -69 3v11q0 12 5 17
q6 6 23 10q125 26 141.5 35.5t22.5 30.5q12 40 12 206q0 15 -1 38q-2 67 -2 77v104q0 264 -6 461l-1 201l-1 25q-85 12 -150 15q-42 1 -68 7zM424 733q50 -10 105 -10q216 0 293 95t77 189q0 42 -13.5 85.5t-48 78.5t-85.5 52q-87 29 -178 29q-85 0 -158 -19q-1 -21 -1 -31
t2 -57q1 -30 1 -60l-3 -121l1 -72l7 -141zM659 53q99 7 166 42q31 16 73.5 57.5t66 99.5t23.5 112q0 41 -16.5 101t-56 105.5t-117.5 75t-172 29.5q-182 0 -204 -7q-1 -23 -1 -34l1 -37l-1 -75v-85q3 -235 11 -278t54.5 -74t172.5 -32z" />
    <glyph glyph-name="C" unicode="C" horiz-adv-x="1301" 
d="M1185 1224q12 -77 12 -158q0 -16 -1 -43q-14 -3 -21 -3q-6 0 -17 2q-42 117 -137 180t-235 63q-74 0 -125 -17q-90 -31 -158 -85.5t-115 -130t-74.5 -183t-27.5 -219.5q0 -214 65 -353.5t178 -199t228 -59.5l47 1q80 10 109 19q73 21 120.5 49.5t93 80.5t77.5 121l12 4
q5 0 15 -6q-1 -24 -2 -31q-42 -169 -61 -231q-16 -4 -40 -12q-117 -40 -313 -40q-158 0 -236.5 21.5t-171 67t-162.5 120.5t-113 189.5t-43 249.5q0 128 34 223.5t105 193.5t167.5 163t214.5 92q83 18 235 18q111 0 209 -29.5t131 -57.5z" />
    <glyph glyph-name="D" unicode="D" horiz-adv-x="1579" 
d="M24 20q37 16 86 21q71 8 106 34q27 55 27 280v158l2 95l-2 70l2 129l-3 325q0 55 -16 72q-23 25 -122 46q-41 9 -50 16.5t-11 28.5q23 5 32 5h71l37 1q37 0 82 -8q92 -6 189 -6q28 0 80 3q138 8 198 8q121 0 228.5 -24t221.5 -89q71 -41 145.5 -129.5t113 -193
t38.5 -235.5q0 -117 -42.5 -232t-118.5 -199.5t-154 -127t-238 -73.5q-66 -12 -237 -12q-113 0 -184 7q-28 4 -60 4q-5 0 -11 -1l-408 -7l-2 8q-2 5 -2 11zM533 59q76 -26 154 -26q101 0 198 31.5t171.5 89t122.5 130t68 130.5q28 85 28 221q0 130 -55 264
q-38 93 -133.5 178t-225.5 124.5t-281 39.5q-104 0 -154 -23q-6 -6 -12 -14q-6 -25 -6 -46q0 -13 1 -31q3 -116 3 -186l-1 -227q0 -500 18.5 -556.5t103.5 -98.5z" />
    <glyph glyph-name="E" unicode="E" horiz-adv-x="1344" 
d="M50 16q10 9 17 11q17 5 58 8q97 6 120 18q14 20 14 56l-1 70l1 254l-2 120l1 251l-5 285q-1 102 -13 115q-18 19 -107 22q-38 1 -67 6q-13 7 -13 18q0 8 5 19q9 5 16 5q14 0 34 -1q59 -5 122 -5l74 2l176 -4q132 0 206 3t100 3q23 0 114 -4l142 1l17 -3l83 3l10 -5
q5 -8 7 -17q0 -14 -4.5 -43t-4.5 -36q0 -104 7 -176q-1 -6 -6 -8q-11 0 -20 3q-11 19 -29.5 67t-55.5 111q-25 42 -39 50t-58 8q-9 0 -91 2q-22 1 -43 1l-285 -6h-25q-55 0 -66 -14q-17 -24 -17 -141q0 -12 5 -240v-139q11 -3 24 -3h17q17 0 50 -1q52 -2 70 -2q12 0 21 1
q108 4 278 4q53 9 62 21q15 18 22.5 94t33.5 86q13 0 24 -5q2 -8 2 -15t-2 -23q-5 -37 -5 -232q0 -52 5.5 -116t5.5 -69q0 -9 -3 -24q-8 -4 -13 -4h-7q-16 28 -31 87q-26 101 -54.5 126.5t-92.5 25.5q-14 0 -51 -1.5t-110 -1.5h-65q-139 0 -182 -6l-1 -33l1 -184l-1 -116
l1 -113q1 -102 13 -118q17 -22 74 -22l61 1q8 0 62.5 -1.5t134.5 -1.5q193 0 257 16.5t105.5 58.5t104.5 181q19 41 38 41q9 0 20 -8q-29 -99 -33 -130q-11 -70 -13 -143q0 -33 -16 -55h-22l-281 -3l-126 1l-300 -4h-122q-23 0 -43 -1q-180 -8 -265 -8q-15 0 -20.5 5
t-5.5 15z" />
    <glyph glyph-name="F" unicode="F" horiz-adv-x="1152" 
d="M59 -15l1 25q22 11 73.5 19.5t71 17t32.5 22.5q9 44 9 159l-14 778l3 129q0 40 -14.5 55t-75.5 27.5t-72 20.5t-11 17q0 5 3 13q13 8 27 8q15 0 61 -2h28q14 0 79 2h139l287 5l304 12h27l43 1q18 0 32 -10q6 -16 7 -23l-1 -40l9 -179q0 -11 -2 -28q-16 -7 -29 -7
q-9 0 -14 6q-8 11 -10 42q-4 43 -31 111q-13 32 -43 44q-60 23 -202 23q-67 0 -125 -3.5t-71 -3.5l-78 1q-48 0 -79 -14q-21 -9 -21 -43v-15q3 -51 3 -113l-3 -272q0 -40 6 -76l29 -2l56 3h191q115 0 160 16q30 11 45 33q5 7 25 79l13 83q12 6 18 6q5 0 16 -5q4 -23 5 -70
l12 -368q-17 -7 -26 -7l-11 2q-16 100 -50 157q-12 20 -27 23q-26 6 -238 6q-66 0 -91 -1q-60 -3 -72 -3h-10q-30 0 -43 -8q-4 -12 -4 -17v-69q0 -12 1 -100l-2 -331q0 -14 8 -35q21 -17 76.5 -22.5t104.5 -26.5q28 -13 28 -29q0 -7 -4 -13t-14 -9q-82 17 -227 17
q-77 0 -163 -14q-59 -9 -135 -9z" />
    <glyph glyph-name="G" unicode="G" horiz-adv-x="1579" 
d="M1335 1214l11 -152q6 -69 6 -94l-28 -5q-67 152 -166.5 228t-243.5 76q-176 0 -274 -43q-142 -61 -243 -212t-101 -364q0 -123 37 -221t104.5 -182.5t159.5 -146.5q60 -41 143 -62q47 -11 140 -11q60 0 133 17t110 45.5t50.5 64.5t13.5 140q0 173 -23 201.5t-145 37.5
l-40 3l-27 -1q-6 1 -16 3l-15 25q0 5 7 13q52 8 226 8q39 0 127 -2l103 -4l93 1q27 0 65 -2q7 -1 9 -3.5t2 -8.5q0 -11 -5 -28q-42 -9 -65 -9l-65 1q-33 0 -53 -23q-10 -11 -10 -75l1 -131q0 -135 -11 -172q-6 -22 -25 -39.5t-80 -41.5q-87 -35 -158 -47q-132 -23 -255 -23
q-198 0 -324.5 50.5t-218 140.5t-130.5 182q-59 135 -59 275q0 175 92.5 342.5t298.5 272.5q145 74 394 74q172 0 281.5 -30t173.5 -68z" />
    <glyph glyph-name="H" unicode="H" horiz-adv-x="1557" 
d="M39 -15l1 22q34 19 79 24q71 9 90 18.5t27 26.5q14 33 14 67l-2 76l1 70l-2 82q0 51 3 127.5t3 81.5v273q0 65 3 140.5t3 104.5q0 86 -4 100t-15 20t-72 11q-47 4 -65 7q-5 11 -5 18q0 8 1 19q24 2 37 2l94 -1q100 0 212 8q55 4 166 7q2 -9 2 -17q0 -10 -4.5 -15.5
t-15.5 -7.5q-131 -11 -154.5 -32.5t-23.5 -109.5q0 -162 5 -334l4 -94q5 -4 130 -10q34 -2 40 -2l147 2l97 -3l254 8q47 1 57 4q6 174 6 337q0 157 -7 185q-4 17 -14 23q-6 3 -104 16q-17 2 -32 5q-5 15 -5 34q34 5 43 5l66 -4q91 -5 183 -5q59 0 196 10q-1 -20 -5 -36
q-38 -15 -91 -19q-34 -2 -57 -11q-19 -14 -19 -57q0 -10 1 -22q1 -36 1 -47v-115l1 -72l-2 -93l1 -174l-2 -164q0 -49 3 -153l-1 -135q0 -68 12 -97q6 -14 20 -20l81 -18q60 -15 71.5 -24.5t11.5 -22.5l-3 -12l-5 -1q-5 0 -13 2q-109 20 -229 20q-94 0 -133.5 -3t-164.5 -22
q-2 13 -2 19q0 7 2 19q31 18 98 25q50 5 79 32q19 18 19 53l-1 144q3 65 3 71q0 85 -3 248q-3 14 -11 17q-27 9 -266 -4q-48 -3 -72 -3t-100.5 2.5t-141.5 2.5q-35 0 -59 -1q-46 -1 -51 -1q-23 0 -31.5 -9t-8.5 -33l1 -70q0 -17 -5 -189q-1 -35 -1 -58q0 -137 10 -182
q5 -21 18 -29q9 -6 78 -21q46 -10 70 -19l6 -10q0 -5 -4 -8q-6 -5 -17 -5q-8 0 -19 0.5t-43 1.5q-51 1 -127 7q-49 4 -87 4q-64 0 -205 -6q-27 -1 -46 -1z" />
    <glyph glyph-name="I" unicode="I" horiz-adv-x="725" 
d="M43 32q22 9 45 11q153 10 175 36.5t22 256.5l-1 105v110l-4 121l2 71l-1 78v92l-2 41l2 52q1 18 1 42q0 63 -6 133q-4 14 -11 27q-37 19 -119.5 25.5t-93.5 14.5q-8 6 -9 31h84l265 -6q102 0 272 6q0 -16 -2 -30q-20 -5 -67 -11q-95 -11 -116 -21q-13 -5 -19 -17
q-10 -18 -12 -67l-5 -129l4 -445v-176q-2 -83 -2 -113q0 -112 5.5 -143t19 -44.5t44.5 -21.5q46 -11 72 -12q56 -2 71 -16q3 -13 3 -22v-8q-91 -3 -134 -3q-25 0 -89 3l-138 -2l-235 1h-19z" />
    <glyph glyph-name="J" unicode="J" horiz-adv-x="683" 
d="M-137 -364q19 13 34 13q46 0 105 -53q10 -9 15 -13l5 -5q24 -20 50 -20q38 0 76 26t61 72q31 64 45.5 144t14.5 194l-1 156l2 107q0 109 -8 336l-6 374l1 193q1 26 -9 45q-6 10 -21.5 18t-44.5 9l-74 5q-35 0 -48 7q-4 15 -4 23l1 12q22 0 54 -2q62 -3 121 -3q28 0 74 1
q35 2 49 2h147q31 0 67 -3q0 -23 -2 -36q-86 -4 -109 -12t-34 -22q-7 -9 -7 -35l-4 -104l1 -25q2 -18 2 -69v-40q0 -35 1 -62q2 -40 2 -48q0 -9 -2 -47q-1 -11 -1 -19l12 -278l-2 -179v-116q0 -100 -38 -279q-28 -130 -101 -236.5t-144 -145.5t-189 -39q-63 0 -101 30
q-26 21 -26 56q0 42 36 68z" />
    <glyph glyph-name="K" unicode="K" horiz-adv-x="1515" 
d="M444 641q12 11 40 28q56 34 193 136l274 224q113 94 159 148q9 12 14 25q-18 13 -41 19t-73 9t-59.5 9.5t-9.5 16.5q0 11 7 17q13 9 37 9q38 0 66 -5.5t127 -5.5q24 0 35 1l156 8q24 2 37 2q12 0 36 -2q0 -24 -4 -39q-108 -13 -159 -33q-29 -12 -118 -66
q-67 -41 -122 -88l-258 -217l-156 -126q4 -7 12 -14q6 -5 30 -28q105 -98 283.5 -240.5t279.5 -238.5q148 -142 279 -157q32 -4 46 -18l1 -11l-2 -14q-34 -2 -46 -2q-46 0 -139 7q-55 4 -91 4q-144 0 -329 -12q-3 14 -3 21l1 8q13 12 52 22q54 14 114 16q13 0 28 2
q-10 16 -33 37q-4 4 -27 26.5t-81 73.5l-119 95l-183 154q-91 78 -254 199zM58 13q5 10 15 11q101 9 159 36q20 18 20 60l-1 98v186l2 81l-6 278l2 187q0 158 -6 211q-2 20 -13 41q-18 11 -30 13q-43 7 -111 11q-14 10 -14 24q0 5 4 15q56 3 198 3q66 0 104 1q54 3 130 9
q33 -3 78 -3q11 -6 11 -14q0 -6 -2 -13q-12 -6 -45 -10q-87 -9 -118 -38q-21 -20 -21 -76l1 -19l-2 -376l-3 -259l7 -257q1 -122 6 -134.5t16 -19.5q35 -21 107 -28q18 -2 35 -7q6 -13 6 -22q0 -10 -12 -19l-32 -1q-20 0 -96 7t-113 7q-31 0 -86 -7t-150 -7q-14 0 -38 1z
" />
    <glyph glyph-name="L" unicode="L" horiz-adv-x="1173" 
d="M11 -6q1 15 8 27q78 21 152 28q49 4 63 22q10 13 12 96l7 264l-1 179l1 234v62q1 211 -2 263q-1 10 -8 28q-26 12 -43.5 16t-156.5 29q-1 11 -1 16q0 6 1 16q19 0 62 -2l152 -5l88 -2l26 1q5 0 29 -2q59 0 68 1l80 6q81 0 114 -3q-1 -18 -7 -39q-11 -2 -104 -5.5
t-107 -11.5q-23 -13 -23 -80q0 -16 -2 -65v-60l1 -185v-63l2 -331l-3 -282l1 -62q0 -30 10 -37q25 -1 147 -2h68l173 6q68 2 97 13.5t97 67.5q41 36 64 74q5 8 17 24q19 26 51 104h33q-6 -36 -13 -68q-29 -141 -40 -235q-2 -20 -4 -37l-374 11q-482 0 -572 -9q-28 -2 -59 -2
h-104z" />
    <glyph glyph-name="M" unicode="M" horiz-adv-x="1707" 
d="M14 23q31 21 112 30q63 3 75 11q8 6 12 15q15 37 22 201q9 213 29 567q16 270 16 337v26q-72 15 -228 32q-10 15 -10 23q0 5 7 18q17 6 26 6q8 0 35 -4q49 -7 135 -7q28 0 96 4q48 3 54 3q16 0 37 -5q10 -10 15 -19l42 -94l283 -626l117 -263q139 275 216 489q5 16 12 29
q9 17 17 38t65 160q23 56 37 96q57 160 67 183q19 7 33 7q16 0 41 -2q56 -3 182 -3q78 0 128 2q2 -11 2 -16q0 -7 -3 -19q-32 -17 -77 -19q-89 -5 -113 -14t-30.5 -23t-11.5 -92l1 -46l-1 -48q0 -150 8 -504l-1 -196l1 -126q0 -74 7 -87.5t40 -25.5q54 -18 176 -37
q7 -5 7 -13q0 -9 -1 -20h-46q-59 0 -128 3.5t-74 3.5q-205 0 -272 -4q-41 -3 -52 -3q-7 0 -15 4v13q0 9 3 19q33 14 90 19q63 17 92 36q9 38 9 155l-3 202q0 33 3.5 123t3.5 293q0 161 -8 244q-17 -35 -67 -152l-15 -38l-2 -6l-148 -350l-53 -135l-69 -164
q-45 -113 -77 -200q-14 -40 -23 -63l-23 1q-113 330 -269.5 677t-219.5 458q-8 -43 -18 -250q-13 -252 -13 -555q0 -95 14 -214q4 -34 29 -50.5t129 -18.5q40 0 76 -6q7 -15 7 -22q0 -5 -5 -17l-311 11q-34 0 -106 -5q-40 -3 -115 -4z" />
    <glyph glyph-name="N" unicode="N" horiz-adv-x="1579" 
d="M27 1223l-1 48q155 0 227 8q28 3 39 3q9 0 27 -1q42 -35 78 -80q8 -9 18 -20l211 -233l30 -36q64 -75 116.5 -128t204.5 -221l239 -265q35 -39 90 -97l1 16q-6 139 -6 147l4 60l-2 94v43q0 41 -7 253q-1 29 -8 109.5t-7 141.5q0 110 -13 128q-9 13 -85 27q-18 1 -56 6
q-45 2 -53 5t-16 17q2 16 9 30q27 8 53 8q28 0 69.5 -7t74.5 -7q46 0 143 6q55 4 76 4h17l-2 -31q-16 -7 -44 -8.5t-52 -8.5q-36 -11 -43 -19q-24 -26 -24 -53l11 -316l8 -145l-1 -42l6 -201q6 -206 6 -358q0 -33 -4 -143l-47 -4q-35 40 -241 252q-48 49 -65 69l-86 99
q-50 55 -65 70l-22 22q-109 124 -283 310q-47 50 -138 156q-57 67 -72 82t-41 34l-3 -34q0 -195 10 -538l7 -331q1 -42 5 -81l35 -8q95 -9 187 -27q7 -6 12 -9l-1 -38q-16 -5 -26 -5q-11 0 -27 2q-99 8 -241 8q-100 0 -176 -5l-14 -1q-9 0 -26 2l-1 30l26 12l47 7
q63 9 92 20q19 7 31 21q11 69 11 202q0 62 -3 227v136l-2 284q-2 190 -13 224q-6 18 -25 32q-38 27 -99.5 34t-79.5 12z" />
    <glyph glyph-name="O" unicode="O" horiz-adv-x="1600" 
d="M94 639q0 102 24.5 181.5t82.5 172.5t140 155.5t227 110.5q102 33 258 33q105 0 205.5 -28t182.5 -78t164 -154q57 -72 86 -155q38 -109 38 -225q0 -132 -25.5 -219t-85.5 -172q-47 -66 -161 -152q-76 -58 -189 -93.5t-244 -35.5q-133 0 -237 31t-173.5 75.5t-143 131.5
t-111.5 192t-38 229zM788 17q84 0 174.5 23.5t160.5 78t109.5 124t63.5 178.5t24 218q0 136 -40 269q-31 101 -101 180.5t-169 123t-211 43.5q-91 0 -178 -30t-143 -76.5t-104 -132t-73 -188.5t-25 -182q0 -83 25 -188t68.5 -182t107 -136.5t142.5 -91t169 -31.5z" />
    <glyph glyph-name="P" unicode="P" horiz-adv-x="1152" 
d="M44 1277q18 3 23 3q34 0 112 -4q41 -1 56 -1q22 0 93 4l170 10q67 6 156 6q157 0 250 -44.5t143.5 -139.5t50.5 -189q0 -157 -110 -271t-296 -114q-52 0 -87 10.5t-80 40.5q-19 13 -23 27q4 7 11 10q14 0 29 -6q34 -12 86 -12q79 0 149.5 39t106.5 111t36 152
q0 78 -38 151.5t-100 117.5q-35 25 -107.5 42t-112.5 17q-124 0 -147 -18l-1 -14l4 -113l-1 -20q-2 -27 -2 -83q0 -204 6 -254v-56l13 -457q0 -10 -2.5 -37t-2.5 -47q0 -48 8 -73q24 -7 140 -33q54 -13 59 -15q8 -3 14 -13q-4 -15 -10.5 -19.5t-25.5 -4.5q-12 0 -56 5
q-86 9 -135 9l-176 -7l-105 3q-10 0 -58 -2l-1 26l130 25q32 9 39 18q10 14 10 55q0 9 1 39q1 21 1 58q0 118 -10 503q-4 180 -4 366v17q0 72 -22 91q-37 33 -185 54q-5 11 -5 18q0 8 6 19z" />
    <glyph glyph-name="Q" unicode="Q" horiz-adv-x="1579" 
d="M476 1239q156 77 342 77q180 0 323.5 -83t229.5 -219q106 -169 106 -366q0 -129 -55 -265.5t-141.5 -224t-178 -130.5t-143.5 -49q-36 -5 -53 -14q41 -49 140.5 -127t196.5 -121q9 -3 33 -15q53 -26 101 -46l23 -9l9 -1l26 -11q52 -22 96 -36q1 -9 1 -14l-1 -12v-18
q-32 -1 -39 -1q-92 0 -213.5 34.5t-223 91.5t-220.5 152q-80 65 -133 127q-175 25 -315.5 121t-215 238t-74.5 291q0 175 92 352t287 278zM672 10q55 -10 103 -10q110 0 197.5 34t139.5 88q68 71 117 200t49 323q0 153 -45 279q-30 87 -100 175t-145.5 129.5t-190.5 41.5
q-135 0 -253 -70t-197 -243q-50 -110 -50 -306q0 -160 55.5 -312.5t157.5 -246.5q59 -55 162 -82z" />
    <glyph glyph-name="R" unicode="R" horiz-adv-x="1280" 
d="M56 30q146 17 165 24q13 5 24 30v11q0 25 8 181q2 44 2 86l-3 119l2 135l-1 251l1 180q1 114 -17.5 139t-95.5 35.5t-85 15.5t-8 16q0 7 3 18q10 9 46 10q5 0 27.5 2.5t42.5 2.5h82l263 3q223 0 312.5 -33t142.5 -111.5t53 -175.5q0 -184 -193 -281q-33 -17 -52 -30
q34 -72 95 -173l127 -218q76 -120 105 -150.5t70.5 -50.5t139.5 -38q1 -10 1 -16t-1 -15q-137 -2 -321 -2q-13 0 -36 2q-71 136 -167 299l-148 270q-30 42 -49.5 52.5t-51.5 10.5l-85 -1l-28 1q-3 -32 -3 -131v-342q-1 -19 8 -53q8 -19 27.5 -30.5t112.5 -34.5l41 -10
q8 -10 8 -27q-27 -5 -38 -5q-90 0 -127 2q-19 1 -31 1l-136 -2l-133 1q-9 0 -91 -3l-20 4l-2 10q0 9 14 21zM428 684q27 -1 40 -1q72 0 166 17q66 13 107 42.5t68.5 87.5t27.5 120q0 68 -43 144q-33 58 -111.5 97t-188.5 39q-27 0 -70 -3q-4 -52 -4 -80l5 -187l-1 -77
q0 -78 4 -199z" />
    <glyph glyph-name="S" unicode="S" horiz-adv-x="981" 
d="M795 1234q8 -66 8 -76l-4 -89q-2 -57 -5 -73q-9 -4 -15 -4l-9 2q-32 140 -108.5 204t-186.5 64q-114 0 -187 -64t-73 -149q0 -65 51 -119t261 -162q160 -83 229 -135.5t104 -121.5t35 -154q0 -107 -55.5 -201t-149.5 -141.5t-249 -47.5q-135 0 -259 43q-73 26 -89 42
t-16 34q0 11 2 28q14 118 15 194q2 47 7 55q4 7 15 7q9 0 14.5 -6.5t7.5 -24.5q11 -123 114 -220q102 -97 231 -97q79 0 145.5 33t104 95.5t37.5 121.5q0 81 -57 148t-229 156.5t-224 130.5q-84 67 -126 142q-31 58 -31 135q0 139 110 235.5t295 96.5q102 0 176 -23
q54 -18 111 -59z" />
    <glyph glyph-name="T" unicode="T" horiz-adv-x="1259" 
d="M36 1130l41 151q4 30 11 38.5t16 8.5q18 0 41 -43q17 -31 28 -39.5t32 -11.5l10 1l43 -4l236 -3l279 1h82l155 3q10 0 25 -2q68 -6 84 -6q15 0 24 10q3 4 33 68q13 29 32 29q8 0 20 -4q5 -20 5 -36l-1 -40l1 -85q0 -31 -5 -200q0 -11 -4 -20q-11 -7 -19 -7t-14 7.5
t-15 46.5q-20 90 -50 129q-20 25 -57.5 36t-179.5 11q-114 0 -169 -4q-2 -40 -2 -73l8 -621q0 -37 -4 -140l1 -133l-1 -74q0 -35 12 -50t65 -29q92 -23 123 -28q19 -2 31 -8v-30l-142 4q-117 1 -176 5l-146 -7l-107 -6q-45 0 -55 2l-14 6q2 23 9 29.5t37 10.5q42 6 99 21.5
t75 31.5q10 9 14 30q9 44 9 173v170l-4 371l-4 80l-1 267q-63 7 -161 7q-144 0 -175 -18q-49 -28 -146 -164q-32 -51 -56 -51l-9 2q-4 6 -4 11q0 12 16 72q20 77 24 104z" />
    <glyph glyph-name="U" unicode="U" 
d="M584 1284q5 -17 5 -26q0 -6 -3 -18q-26 -7 -42 -7q-7 0 -23.5 1.5t-26.5 1.5q-46 0 -73 -18q-18 -11 -22 -29l-10 -114l3 -495q1 -272 18 -338.5t57 -109.5t120.5 -71t156.5 -28q170 0 260.5 49t130 135.5t39.5 262.5q0 5 -3 80v29q0 16 2 62.5t2 54.5l-15 287
q-7 145 -16.5 171t-27.5 39q-39 28 -148 50q-5 14 -6 29q39 4 77 4q40 0 84 -3q66 -5 72 -5l158 5l31 -1l-1 -36q-123 -16 -147 -37.5t-24 -79.5q0 -31 4 -135l7 -207l-1 -82l3 -104q0 -196 -11 -267q-16 -99 -45.5 -157t-85.5 -104.5t-149.5 -76.5t-184.5 -30
q-143 0 -206 20q-115 35 -183 91t-94 112q-35 74 -35 216v69l-3 280l3 226v152q0 58 -16 81q-11 16 -32 16l-59 -1q-66 0 -84 14q-3 9 -3 16q0 9 6 14q11 8 27 8h26l67 1h158z" />
    <glyph glyph-name="V" unicode="V" horiz-adv-x="1387" 
d="M-17 1268l7 17q81 0 162 -2h33q15 0 33 1q65 3 235 3q34 0 66 -0.5t62 -1.5q6 -3 9 -9l-2 -16q-6 -10 -30 -10h-8q-28 1 -92 -4.5t-84 -20.5q-13 -11 -13 -29q0 -39 33 -117l152 -353l53 -117q77 -186 152 -380q8 -21 15 -38l67 164q52 124 105 264l69 188q2 6 11 40
q97 265 97 335q0 15 -13.5 30.5t-43.5 25.5q-12 4 -78 12l-74 9q-9 10 -9 17l3 8l324 3h107q54 0 74 -7l1 -8q0 -8 -6 -21q-24 -8 -44 -10q-84 -10 -104 -23.5t-42 -57.5l-263 -650q-123 -293 -175 -454l-29 -87q-13 -8 -22 -8q-11 0 -24 2q-119 308 -194 476l-306 694
q-33 62 -49.5 74.5t-115.5 35.5q-35 8 -39 10q-7 5 -10 15z" />
    <glyph glyph-name="W" unicode="W" horiz-adv-x="1813" 
d="M-19 1240l-1 16q14 18 79 18l93 -1l54 -1l24 1q131 0 158 -4q1 -12 1 -18q0 -9 -2 -26l-97 -4q-7 -1 -19 -5q-4 -10 -4 -15q0 -6 6 -19q8 -17 15 -36l63 -176l150 -376q26 -69 35 -89q28 -63 71 -176q15 -39 72 -169q3 -8 12 -26q45 73 132 255q68 140 85 193l-8 20
l-172 390q-34 73 -53 116q-39 90 -57 103t-106 18l-21 5q-8 9 -8 21q2 9 9 14q32 1 45 1l63 -2l32 1h55l49 1h52l94 5q9 0 27 -1l16 1q14 0 21 -6.5t7 -14.5q0 -7 -4 -16q-16 -6 -57 -10q-59 -7 -68.5 -13t-9.5 -16q0 -19 77 -201l102 -231q47 92 128 290q34 82 34 121
q0 21 -17 38q-13 12 -58 16l-21 3l-18 8l-1 8q0 6 5 17q10 8 18 9q15 2 139 -5h68l42 -1l70 1q8 -1 24 -5q8 -8 8 -15q0 -11 -8.5 -18t-38.5 -12q-76 -13 -114 -40q-25 -19 -45 -54l-73 -162q-26 -74 -43 -111q-7 -23 -26 -61l-41 -95q11 -26 37 -84l103 -239
q7 -16 41.5 -89t57.5 -135l15 48l2 5l61 159q32 73 64 154l77 194l116 330q18 57 29 110l3 16q3 11 3 16q0 14 -14 25.5t-99 31.5q-8 3 -16 9q-3 12 -3 19l1 7q42 2 53 2l77 -2l87 1h75l30 -2l1 -10q0 -7 -2 -21q-72 -28 -89.5 -40t-27 -26t-35.5 -76q-3 -6 -63 -180
q-13 -26 -27 -69q-4 -12 -17 -43l-16 -40l-11 -29q-66 -182 -145 -381l-108 -300l-43 -114q-16 -2 -24 -2q-7 0 -20 1q-13 37 -57 140q-114 262 -205 435l-12 -20q-51 -97 -123 -257l-78 -158q-48 -101 -78 -140l-43 -1l-162 396l-134 314l-118 298q-12 29 -21 55
q-7 19 -13 39q-10 31 -56 141q-18 29 -58 37t-59 16z" />
    <glyph glyph-name="X" unicode="X" horiz-adv-x="1429" 
d="M10 -10l4 27q21 7 89 15q86 20 98 27q18 10 49 40q60 61 94 105q15 19 78 88q158 176 237 296q-154 200 -292.5 398t-174.5 224q-12 9 -114 18q-38 3 -55 6q-6 18 -6 29l2 11q71 3 88 3h27l67 -5l168 -9q48 -3 133 -3q25 0 67 9q24 4 38 4q12 0 38 -4q5 -13 5 -20l-1 -7
q-18 -7 -76.5 -15t-83 -17.5t-34.5 -20.5q-5 -16 -5 -25t5 -20q28 -62 135 -204l173 -228q59 71 126 172q149 224 157 242t8 32q0 19 -14 33.5t-51 21.5q-80 17 -94 18q-9 3 -16 7q-8 16 -8 25l2 11l196 3h189l102 -2l15 -3l2 -20l-123 -43q-64 -32 -80 -45
q-32 -26 -116 -127.5t-161 -211.5q-15 -21 -59 -76q-25 -32 -50 -69q3 -8 10 -16l14 -18l298 -400q95 -131 137 -171q26 -25 61 -37t134 -21q7 -17 7 -27l-1 -10l-34 -1q-15 0 -49 4q-64 8 -168 9l-100 2l-177 -7q-62 -6 -70 -6q-10 0 -24 2q-5 12 -5 18q0 5 5 16l57 5
l111 22q17 6 25 26q-6 20 -14 33q-38 66 -153.5 225.5t-162.5 217.5q-14 -10 -123 -154q-142 -187 -156 -215q-20 -38 -20 -67q0 -37 39 -56q27 -14 191 -39q2 -13 2 -20q0 -5 -1 -14l-31 -1q-21 0 -124 14q-184 5 -257 5q-61 0 -126 -7q-34 -3 -41 -3q-14 0 -32 1z" />
    <glyph glyph-name="Y" unicode="Y" horiz-adv-x="1344" 
d="M-20 1289h48q26 0 114 -3q136 -6 226 -6l117 2q25 0 48 -4q7 -8 7 -17v-11l-25 -12h-11l-56 -1l-29 1q-34 0 -55 -15q-16 -11 -16 -23q0 -13 14 -33q5 -8 16 -24q20 -34 53 -79q47 -66 100 -156q21 -36 44 -69l152 -230q15 19 41 56l144 207l166 249q22 34 26 50
q2 8 2 17q0 21 -19 34q-31 21 -134 31q-7 1 -19 3q-7 12 -7 20q0 6 1 13l52 1l188 -5l151 3q6 0 42 -1l-3 -35q-7 -2 -22 -3l-24 -3q-6 -1 -19 -2q-21 -8 -33 -17q-147 -155 -250 -293t-174 -251q-23 -37 -37 -55q-26 -34 -31 -50q-11 -39 -11 -118q0 -311 11 -367
q6 -28 16 -34q26 -13 207 -31v-12q0 -12 -7 -29l-256 11l-171 -9h-140q-20 0 -44 1q-4 11 -4 16t3 14q7 6 14 7l129 20q67 22 75 30q12 12 15 37q1 18 1 278q0 97 -6.5 118.5t-42.5 75.5l-131 199l-223 325q-58 85 -101 114q-19 13 -95 20q-8 0 -24 2z" />
    <glyph glyph-name="Z" unicode="Z" horiz-adv-x="1344" 
d="M74 -12l-2 25q68 73 88 102q6 9 37 46l56 79l384 511l331 441q7 11 15 24q-36 2 -61 2q-26 0 -65.5 -1.5t-214.5 -4.5q-7 0 -64.5 -5.5t-154.5 -10.5t-142 -25q-24 -11 -56 -44q-41 -43 -66 -85q-33 -56 -53 -69l-17 -2q3 20 21 65.5t50 163.5q23 64 32.5 94t18.5 49
q11 3 19 3h13q-8 -27 -8 -38q0 -31 25 -47.5t132 -16.5q45 0 91 5q18 2 87 5h54l234 6l208 6l100 5q19 0 40 -7l1 -7q0 -16 -76 -109q-40 -48 -49 -61l-187 -250q-42 -57 -65 -86q-13 -16 -79 -102l-145 -191l-202 -267q-70 -90 -94 -126q-5 -6 -12 -17l389 -3q87 -1 139 -1
q193 0 271 59.5t108 198.5q7 31 11 47q11 10 25 10l4 -3q2 -22 2 -40q0 -50 -3 -137l-3 -68l2 -62q0 -27 -5 -51q-36 -3 -44 -3q-41 2 -69 2l-258 -4l-317 7l-164 -3q-8 0 -61 3q-28 2 -44 2q-54 0 -147 -13q-32 -4 -38 -4q-8 0 -22 3z" />
    <glyph glyph-name="bracketleft" unicode="[" horiz-adv-x="555" 
d="M215 1285l388 -2l2 -42l-138 2q-83 0 -111 -18l-4 -5q-7 -46 -7 -157l1 -41l-2 -97v-77l-4 -53l1 -30v-96q0 -7 2 -66q2 -29 2 -40l-1 -135l2 -131l-4 -94l5 -266q0 -115 -5 -177l-1 -16l6 -125q1 -21 7.5 -28.5t28.5 -12.5q46 -10 124 -10l42 1q27 0 52 -1l2 -43h-389
l-6 199l10 220q1 54 1 136q0 39 -1 55l-5 86l3 295l-4 125q0 91 2.5 128.5t2.5 55.5l-4 106l2 142l-2 178z" />
    <glyph glyph-name="backslash" unicode="\" horiz-adv-x="1024" 
d="M113 1426h87l711 -1703h-88z" />
    <glyph glyph-name="bracketright" unicode="]" horiz-adv-x="555" 
d="M-42 1240l-1 42l45 2h39l271 1q16 0 37 -4l-2 -110l1 -20q3 -66 3 -140q0 -35 -4 -85.5t-4 -68.5q0 -159 8 -271v-83l2 -135l-2 -50l3 -225q0 -23 -1.5 -55.5t-1.5 -47.5t4 -114l-1 -192l3 -118q0 -18 -1 -42l-391 -1l-1 43h18q11 0 34 -0.5t38 -0.5q130 0 162 20
q8 34 8 145l-1 47l1 103v74q0 14 3 52v61l-9 427q0 12 2 47q2 48 2 68q0 47 -6 249q-2 70 -2 87q0 27 6 115l-5 102l-1 33q-2 8 -8 25q-30 11 -53 14q-11 1 -195 6z" />
    <glyph glyph-name="asciicircum" unicode="^" horiz-adv-x="1024" 
d="M513 1374l448 -538l-65 -53l-383 461l-384 -461l-63 53z" />
    <glyph glyph-name="underscore" unicode="_" horiz-adv-x="1024" 
d="M-12 -154h1048v-102h-1048v102z" />
    <glyph glyph-name="grave" unicode="`" horiz-adv-x="683" 
d="M535 984l-17 -1q-15 10 -199 134q-88 60 -104 83.5t-16 41.5q0 20 16 35.5t37 15.5q36 0 78.5 -35t130.5 -166q23 -34 38 -54q26 -34 36 -54z" />
    <glyph glyph-name="a" unicode="a" horiz-adv-x="832" 
d="M813 136q6 -13 6 -19q0 -15 -24 -53q-31 -50 -69 -73q-24 -15 -66 -15q-72 0 -108 44q-22 26 -31 93l-112 -78q-59 -34 -90 -43q-50 -13 -120 -13q-51 0 -80.5 30.5t-29.5 78.5q0 69 84.5 165t229.5 157q102 43 125 55q2 33 2 72q0 127 -35.5 172t-101.5 45
q-69 0 -129 -54q-37 -34 -56 -128q-6 -26 -23 -56q-43 -28 -69 -28q-22 0 -40 13q-10 7 -10 16q0 26 55.5 117.5t140 137t147.5 45.5q86 0 128 -15.5t74 -54.5t39 -85q4 -22 4 -157l-3 -159l1 -116q0 -23 -1 -39q-1 -29 -1 -43q0 -33 19 -53t45 -20q38 0 65 38l12 16
q5 3 22 7zM519 165q7 127 7 179q0 27 -3 73q-67 -24 -142 -73t-119 -113q-32 -46 -32 -87q0 -39 26.5 -65t66.5 -26q31 0 75 22q58 29 121 90z" />
    <glyph glyph-name="b" unicode="b" horiz-adv-x="1045" 
d="M34 1257v5q0 10 8 28q109 19 232 58q7 1 22 1q5 -16 5 -21v-298l-1 -95l1 -106l-2 -86q0 -5 2 -34l82 31q13 4 86 26q93 15 108 15q100 0 180 -32q49 -20 97 -66.5t71 -98.5q40 -95 40 -164q0 -109 -14 -151q-34 -100 -83 -158t-137 -99t-187 -41q-91 0 -172 34t-91 34
q-31 0 -79 -82l-29 1q-4 67 -4 165l2 149l-1 76l2 218l-2 42l4 103v88l1 36q0 11 -1 87v60q3 174 -15 201q-29 43 -125 74zM509 26q152 0 231.5 85.5t79.5 254.5q0 155 -90 251t-222 96q-96 0 -161 -31q-39 -19 -43.5 -35t-4.5 -214q0 -235 10 -275q17 -62 62 -89
q71 -43 138 -43z" />
    <glyph glyph-name="c" unicode="c" horiz-adv-x="853" 
d="M799 183l1 -65q-78 -83 -154 -116t-179 -33q-112 0 -202 58.5t-138.5 165.5t-48.5 210q0 113 58.5 213.5t155 150t242.5 49.5q140 0 213 -48q41 -28 41 -72q0 -32 -21 -53t-54 -21q-50 0 -110 62q-37 38 -67 52.5t-67 14.5q-89 0 -148 -73q-82 -104 -82 -261
q0 -162 84 -258t196 -96q78 0 138.5 25.5t141.5 94.5z" />
    <glyph glyph-name="d" unicode="d" horiz-adv-x="1024" 
d="M730 726l1 29l-1 117l1 221q0 92 -20 117t-117 51q-7 2 -22 6v11q0 10 2 22q136 14 234 47l51 1q4 -68 4 -152l-4 -385l7 -434l-3 -231q0 -71 10 -80q20 -20 88 -21q14 0 38 -2v-18q0 -7 -1 -15q-31 -7 -64 -13l-145 -28q-32 -6 -51 -6v96q-17 -5 -53 -20
q-156 -66 -287 -66q-79 0 -161 51.5t-126 143.5t-44 188q0 86 29 164.5t76 130.5q30 34 85 67.5t91 42.5q89 23 119 23q135 0 222 -40q27 -13 41 -18zM731 108q4 67 4 276q0 177 -16.5 223.5t-82.5 88t-148 41.5q-115 0 -195 -89t-80 -263q0 -153 86.5 -244t215.5 -91
q74 0 135 20t81 38z" />
    <glyph glyph-name="e" unicode="e" horiz-adv-x="853" 
d="M792 528l-401 -3h-76q-46 0 -94 -4q-9 -30 -9 -41l1 -10v-10l-1 -49q0 -61 38.5 -149.5t110 -135t178.5 -49.5q57 3 91 14t96 51l72 59l6 -40q0 -7 -1 -15q-45 -57 -114 -100t-140 -63q-34 -9 -112 -9q-71 0 -140 29q-102 44 -160.5 141.5t-58.5 236.5q0 44 16.5 113
t59.5 147q29 53 71 87q60 48 105 67q65 27 151 27q93 0 152 -34q80 -45 119.5 -116t39.5 -130v-14zM234 564h47q51 0 304 16q40 2 49 8q18 19 18 34q0 31 -20 70.5t-61.5 61t-96.5 21.5q-116 0 -186 -87q-54 -66 -54 -124z" />
    <glyph glyph-name="f" unicode="f" horiz-adv-x="661" 
d="M368 779q249 -6 265 -6q2 -22 2 -33q0 -13 -3 -39q-25 -4 -51 -4h-38q-124 0 -172 -9q-2 -23 -2 -35q0 -5 1 -15q5 -157 5 -190l-2 -257q0 -57 19 -95q11 -22 41 -35q19 -9 92 -18q55 -8 74 -11q0 -21 -3 -32l-14 -1q-48 3 -125 5l-74 3l-252 -8h-33l-1 31q15 3 22 5
q86 16 111 36q10 8 14 29q2 12 2 112q0 285 -5 455q-26 8 -80 10q-20 0 -63 4l-2 11q0 12 10 20q4 4 84 42q31 14 44 35q7 11 8 46q1 16 6 55q12 103 19 127q18 67 60.5 133.5t102.5 116.5q44 36 99.5 54t126.5 18q95 0 139 -31q30 -21 30 -54q0 -28 -21 -48t-52 -20
q-38 0 -82 19q-83 33 -94 36q-19 5 -39 5q-55 0 -100.5 -35t-57.5 -86t-12 -229q0 -64 1 -117z" />
    <glyph glyph-name="g" unicode="g" horiz-adv-x="917" 
d="M270 -66q-12 6 -77 33q-76 49 -96 73t-20 53q0 26 15 42q22 23 87 44t107 41q-13 9 -41 26q-149 92 -149 255q0 134 94.5 226.5t242.5 92.5q67 0 123 -19q32 -10 95 -50q40 -25 47 -28q16 -5 36 -5q17 0 82.5 8.5t77.5 8.5q23 0 38 -9q12 -20 12 -67q0 -16 -8.5 -24
t-24.5 -8q-28 0 -92.5 17.5t-78.5 17.5q-5 0 -19 -2q43 -86 43 -157t-45 -147t-124 -116t-160 -40q-6 0 -34 1q-92 0 -169 -46q-37 -23 -37 -43q0 -21 36 -41q95 -51 360 -59q115 -4 179 -33t96.5 -85.5t32.5 -116.5q0 -81 -55 -150t-167 -112t-257 -43q-160 0 -247 39
t-123.5 85t-36.5 91q0 39 40 97.5t166 122.5q37 19 51 27zM230 505q0 -90 27 -150.5t74 -90t95 -29.5q87 0 144.5 66.5t57.5 202.5q0 137 -60 208.5t-145 71.5q-95 0 -144 -68t-49 -211zM197 -421q91 -70 230 -70q99 0 197.5 31.5t144 90t45.5 110.5q0 32 -16 63.5t-43.5 52
t-72.5 32.5q-32 9 -91 13q-168 13 -206 13q-107 0 -191 -72q-65 -56 -65 -134q0 -72 68 -130z" />
    <glyph glyph-name="h" unicode="h" horiz-adv-x="1045" 
d="M38 24q117 21 135 32q11 7 11 32l-1 66l1 117l-2 298l1 111v79l3 97q0 228 -4.5 272.5t-17.5 55.5q-24 23 -132 48v5q0 7 2 20q14 2 27 5t25 4q119 34 173 66h49q2 -28 2 -177l-1 -127l1 -164l-4 -202q0 -18 2 -40q63 73 92 97q52 42 111 66.5t124 24.5q123 0 201 -104
q45 -61 45 -173l-3 -102l1 -57l-4 -99q-4 -123 -4 -146q0 -26 2 -70l57 -13q57 -12 88 -22l-1 -31l-213 6q-18 0 -98 -4q-49 -2 -57 -2h-22q-5 9 -5 15v9q14 18 52 24l60 14q12 10 14 21q4 26 9 258l2 74q4 117 -18 194q-14 53 -63.5 84.5t-114.5 31.5q-54 0 -102 -23
q-33 -17 -79 -59t-64 -72q-12 -20 -12 -66l1 -70l-2 -73q0 -9 3 -125l-1 -64l2 -70q1 -15 3 -22l141 -34q11 -3 33 -12l3 -11q0 -5 -5 -16q-29 -1 -44 -1l-78 1l-172 -2l-129 -4q-10 1 -30 2l-1 7q0 8 8 20z" />
    <glyph glyph-name="i" unicode="i" horiz-adv-x="469" 
d="M142 1229q0 33 25.5 57t61.5 24q37 0 65 -27t28 -58t-28 -58.5t-65 -27.5t-62 25t-25 65zM58 711l1 29q65 19 70 22q36 16 75.5 49t66.5 74q12 2 19 2l12 -1q4 -48 4 -70q0 -5 -2 -45v-53l1 -288l-3 -305q-1 -37 12 -51.5t77 -32.5q40 -11 60 -19q3 -7 3 -12q0 -6 -5 -15
q-39 1 -100 5q-83 7 -110 7q-13 0 -160 -5q-30 -1 -58 -5q-5 0 -16 3q-5 7 -5 12q0 14 19 22q4 2 102 23q32 6 42 20q17 21 17 67q2 77 2 422q0 69 -6 86q-5 12 -26.5 27.5t-91.5 31.5z" />
    <glyph glyph-name="j" unicode="j" horiz-adv-x="469" 
d="M128 1210q0 38 25.5 63.5t61.5 25.5q37 0 62.5 -25t25.5 -65q0 -41 -28 -72q-20 -22 -59 -22q-37 0 -62.5 26.5t-25.5 68.5zM42 -516l76 93q27 43 42.5 90t21.5 116q9 115 9 202q0 25 -2 70l1 156q1 293 -4 378q-3 53 -16 66q-19 18 -87 24q-7 1 -20 2l2 38
q131 33 190 111q13 16 29 32l7 1q5 0 14 -4l3 -364q7 -381 7 -414q0 -192 -19.5 -278.5t-73.5 -172.5q-38 -60 -109 -124l-41 -37l-14 -8q-9 8 -16 23z" />
    <glyph glyph-name="k" unicode="k" horiz-adv-x="960" 
d="M54 0l-2 29q8 6 15 7.5t50.5 4.5t54.5 19.5t11 136.5l2 395l-2 70q0 9 2 67q2 27 2 65l-4 174l1 152q0 55 -15.5 70.5t-109.5 28.5v12q0 6 1 17q57 12 101 30q23 10 117 62h31q-1 -23 -1 -28v-87l-1 -43l3 -79l-1 -119l1 -198l-3 -246v-76q0 -14 1 -39l11 -1q34 0 69 25
q157 112 197 152.5t40 58.5q0 11 -13 28q-30 16 -67 22q-11 2 -24 5q-18 5 -30 7l-2 10q0 7 5 20q158 6 275 6q66 0 141 -3v-13q0 -7 -5 -18q-15 -3 -47 -9q-62 -10 -94 -28q-77 -41 -159 -115q-49 -44 -85 -74l-36 -31q4 -7 13 -17q4 -4 16 -18t43 -47q108 -114 160 -176
q17 -20 38 -44q78 -87 91 -97q28 -18 83 -28q26 -5 45 -9q4 -12 4 -19l-1 -10q-71 6 -102 6h-18l-278 -8q-16 -2 -22 -2q-10 0 -21 4q-3 8 -3 14v7q6 9 11 11q99 8 115 13q9 2 17 11q0 17 -29 55t-145 167q-74 82 -95.5 95.5t-59.5 13.5h-38q-4 -36 -4 -165q0 -120 20 -154
q11 -19 52 -24t53 -15q8 -6 10 -28q-60 1 -101 1q-66 0 -144 -3q-47 -2 -74 -2q-20 0 -66 1z" />
    <glyph glyph-name="l" unicode="l" horiz-adv-x="469" 
d="M52 1239v22q28 9 62 19q50 16 148 49h47q1 -48 1 -55q0 -821 -5 -979q-3 -93 -3 -99q0 -112 9 -125q12 -18 73.5 -25t72.5 -14q8 -4 8 -14q0 -11 -4.5 -15.5t-16.5 -4.5q-7 0 -105 3l-131 4l-168 -7q-16 -1 -24 6q-6 5 -6 14q0 10 6.5 14.5t72 15.5t75 18.5t12.5 33.5
q4 36 4 203l-1 230l3 238l-1 238l3 117q0 35 -11 50.5t-47 30.5q-54 22 -74 32z" />
    <glyph glyph-name="m" unicode="m" horiz-adv-x="1579" 
d="M40 35q16 11 44 15q40 5 62 16q18 15 24 43q7 36 7 253q0 213 -13 275q-22 14 -57 22q-11 2 -46 11v33q59 17 95.5 44t101.5 108h6q6 0 19 1q8 -1 13 -5l-1 -114q0 -35 2 -75q107 97 192 136q58 26 131 26q87 0 138 -33t97 -119q89 88 161.5 123t146.5 35q112 0 184 -73
q71 -74 73 -217v-83l1 -91l-1 -234q-1 -41 18 -62q8 -3 61 -18q33 -9 39 -14t6 -14q0 -11 -6 -26h-7l-101 6q-18 1 -57 1q-48 0 -134 -4h-51q-11 0 -43 -1q-1 9 -1 16q0 8 7 20q27 12 74 19.5t58.5 27t11.5 155.5q0 295 -7 342q-12 75 -63.5 117.5t-129.5 42.5
q-60 0 -117 -31.5t-112 -94.5l-1 -24v-153l-4 -119q0 -182 3.5 -207t17 -36.5t78.5 -20.5q29 -4 45 -8q12 -10 12 -26q0 -13 -9 -18h-17l-50 1h-291l-80 -1q-2 15 -2 22l1 12q22 12 82 23q31 5 64 17q6 5 9 13q5 14 7 80l5 116l-2 131l1 73q0 123 -50 179.5t-126 56.5
q-71 0 -142.5 -35t-118.5 -94q-1 -28 -1 -51l4 -336q1 -110 12.5 -125.5t51.5 -21.5q64 -9 83 -22q9 -6 9 -18q0 -8 -1 -19q-114 8 -153 8q-40 0 -72 -1l-50 -3h-31l-112 -4q-2 7 -2 12t4 20z" />
    <glyph glyph-name="n" unicode="n" horiz-adv-x="1045" 
d="M38 32q25 7 58 12q63 9 75.5 21t12.5 55l2 36q1 20 1 51l-2 307q0 62 -16 80q-27 28 -100 39v36q73 20 112 52q57 45 96 122l34 -1q3 -47 3 -67v-66l1 -18q12 8 28 20q60 45 123 73.5t112 39.5q31 8 70 8q82 0 141 -44t76.5 -103.5t17.5 -236.5v-151q0 -6 -1.5 -40
t-1.5 -78q0 -70 6 -89q5 -13 26 -26q96 -13 112 -31v-8q0 -10 -6 -25h-19l-132 1l-130 -2q-72 -2 -133 1l-6 21q0 6 7 16q27 12 76 16q29 2 40 6t27 16q12 24 12 40q0 7 -2 28q-3 46 -4 229v52l2 80q0 129 -52 178t-139 49q-67 0 -131 -29.5t-124 -88.5q-2 -48 -2 -82
l3 -221q0 -173 5 -212q2 -16 7 -22q8 -8 32 -13t55.5 -14t41.5 -11q20 -5 27 -20l-1 -20h-105l-216 3q-75 -2 -95 -2h-25l-2 13q0 7 3 20z" />
    <glyph glyph-name="o" unicode="o" horiz-adv-x="1045" 
d="M73 402q0 68 28.5 145.5t86.5 139t123 91.5q91 42 222 42q187 0 312.5 -128t125.5 -308q0 -160 -131.5 -285.5t-332.5 -125.5q-124 0 -234 65q-82 49 -141 145t-59 219zM515 12q76 0 146.5 41t112.5 131.5t42 209.5q0 78 -32.5 181t-100 154.5t-158.5 51.5
q-66 0 -134.5 -31t-116 -119t-47.5 -250q0 -182 82.5 -275.5t205.5 -93.5z" />
    <glyph glyph-name="p" unicode="p" horiz-adv-x="1045" 
d="M25 -522q-1 11 -1 20q0 7 2 17l100 20q24 12 39 29q5 18 5 36q0 154 -8 587l-3 366q-2 87 -11 110q-5 12 -15 19q-25 19 -100 32l6 30q108 46 144.5 71.5t69.5 71.5l12 3q7 0 20 -6q-1 -63 -1 -83l1 -110q74 56 154 83.5t166 27.5q154 0 260 -108.5t106 -279.5
q0 -127 -59.5 -228t-164 -151t-210.5 -50q-90 0 -206 49q-19 8 -34 14q-2 -80 -2 -142q0 -309 17 -346q9 -20 56 -24q80 -6 106 -23q15 -9 20 -36l-99 -2l-90 2l-150 -1zM286 622q-2 -14 -2 -26q0 -357 7 -400q14 -79 56 -111q65 -51 186 -51q125 0 211 86.5t86 224.5
q0 166 -91 263t-240 97q-63 0 -116 -20.5t-97 -62.5z" />
    <glyph glyph-name="q" unicode="q" horiz-adv-x="1003" 
d="M846 845h37l2 -36l-2 -214l1 -308q0 -81 -1 -113l-1 -27l1 -40l-1 -65l3 -116l-2 -133l1 -124q0 -18 -1 -60q-1 -13 -1 -22q0 -24 16 -44q6 -3 12 -7q11 -7 29 -11.5t32 -8.5q22 -7 41 -10q9 -10 9 -19l-1 -10q-25 -1 -31 -1l-283 5q-58 0 -127 -3q-4 10 -4 15t4 14
q136 27 143 32q17 9 23 35q15 55 15 245q0 153 -2 274q-16 -7 -63 -29q-138 -63 -236 -63q-89 0 -184.5 46t-150 140t-54.5 199q0 175 125.5 295.5t301.5 120.5q81 0 183 -38q73 -28 108 -28q13 0 21 11q14 17 37 98zM673 104q63 24 79 42l7 198q0 194 -22 258.5t-83 110.5
t-147 46q-144 0 -221 -119q-59 -90 -59 -218q0 -89 40.5 -164t124 -122.5t158.5 -47.5q67 0 123 16z" />
    <glyph glyph-name="r" unicode="r" horiz-adv-x="683" 
d="M41 -3l-4 13q0 7 9 21l59 12l83 15q10 5 14 14q6 13 6 77q0 340 -4 392.5t-18 66.5t-72 22q-34 5 -54 13l4 30q105 43 141 74q50 45 85 118l34 -1q6 -50 6 -222l-1 -17q0 -6 2 -19q38 69 95 127l23 23q14 16 27 25q70 42 104 42q44 0 72 -29.5t28 -72.5q0 -34 -20 -53
q-27 -25 -62 -25q-16 0 -63 17t-62 17q-28 0 -39 -9q-28 -22 -68 -90q-31 -51 -31 -94l5 -165l2 -198q3 -34 8 -44q4 -7 20 -17q108 -9 128 -13q14 -1 21 -2q43 -1 60 -12q9 -5 9 -15q0 -6 -8 -16l-111 1l-42 1l-61 -1h-102l-55 -3z" />
    <glyph glyph-name="s" unicode="s" horiz-adv-x="747" 
d="M145 254q37 -95 56 -123q38 -57 91 -88.5t115 -31.5q57 0 113 49q40 37 40 86q0 65 -47 120q-47 54 -178.5 103.5t-176.5 105.5t-45 128q0 68 37 120t102 78.5t120 26.5q71 0 127.5 -11t97.5 -34q8 -51 13 -150l2 -32q-13 -1 -22 -1h-14q-30 83 -91.5 131.5t-121.5 48.5
t-97 -36.5t-37 -95.5q0 -45 30 -80t140.5 -80t161 -83.5t74.5 -93.5t24 -105q0 -69 -45.5 -129t-114 -84.5t-122.5 -24.5q-127 0 -234 47q-10 8 -11 30q0 9 -2 29q-16 135 -16 160q0 12 5 16t26 4z" />
    <glyph glyph-name="t" unicode="t" horiz-adv-x="597" 
d="M286 988l31 -1l4 -95l-2 -123q19 -1 24 -1q26 0 99 4q47 3 90 3q20 0 60 -1q2 -20 2 -32q0 -13 -6 -41h-17l-155 -5l-77 -2l-18 -2q-8 -25 -8 -58l3 -150l-2 -264q0 -104 27 -138q26 -35 78 -35q26 0 98 16q22 5 59 33h9q9 0 14.5 -5.5t5.5 -14.5l-1 -7
q-43 -47 -98.5 -68.5t-147.5 -21.5q-65 0 -107.5 30t-54.5 71t-12 179l4 225l-1 108v40q0 28 -2 56l-17 1l-82 -3l-8 -1q-11 0 -16.5 5t-5.5 12q0 12 7.5 19.5t45.5 23.5q26 11 60.5 41.5t58.5 67.5q12 20 34 76q16 41 24 58z" />
    <glyph glyph-name="u" unicode="u" horiz-adv-x="1003" 
d="M33 785h75l33 -2l26 2q103 0 128 -2l1 -19q0 -141 -4 -273q-3 -78 -3 -89q0 -176 11.5 -220t54 -70.5t102.5 -26.5q73 0 139.5 30.5t113.5 74.5q5 38 5 84q0 149 3 201q1 31 1 54q0 162 -16 183t-122 32q-35 4 -51 7q-8 13 -8 20l3 11q26 3 51 3l159 -2q85 2 90 2
q11 0 21 -1l2 -73q-7 -152 -8 -376l-2 -81l4 -136q9 -16 16 -19q12 -5 49 -5h9q13 0 74 -6q1 -13 1 -19v-11q-134 -29 -217 -58q-33 -11 -56 -16q-5 35 -5 43v81q0 5 -1 27q-13 -9 -30 -22q-79 -61 -167 -103q-59 -29 -114 -29q-105 0 -171 78q-67 78 -67 266q0 10 1 36
q4 48 4 67q0 7 -1 44q-1 16 -1 28q0 9 1 40.5t1 44.5q0 17 -1 30l-2 53l1 28q0 16 -16 29q-63 17 -82.5 19.5t-34.5 8.5v32z" />
    <glyph glyph-name="v" unicode="v" horiz-adv-x="960" 
d="M-11 794q111 -1 194 -7q59 0 86 2q19 1 24 1l112 -1q23 -4 37 -5q6 -2 11 -11q0 -10 -6 -21q-17 -5 -35 -6q-75 -8 -126 -23q-7 -5 -7 -10q0 -10 10 -31q2 -5 9 -24l100 -240q67 -165 124 -278q39 74 72 153t97 249q18 48 34 119q3 14 3 24q0 12 -13.5 26.5t-45.5 23.5
q-7 1 -91 15q-7 4 -13 11v8q0 5 1 13q24 3 35 3l118 -1q12 0 57 3q159 0 191 -3q6 -2 11 -12q0 -9 -6 -20l-31 -8q-12 -1 -19 -2q-86 -8 -106 -24q-15 -11 -47 -103q-15 -45 -44 -114l-52 -126q-11 -27 -24 -59l-155 -358h-30q-9 24 -22 50l-76 161l-179 419
q-54 122 -65 132t-128 42q-6 16 -6 23z" />
    <glyph glyph-name="w" unicode="w" horiz-adv-x="1365" 
d="M-21 788l384 -1q11 0 15 -4t4 -12q0 -19 -15 -28q-70 -5 -87 -17t-17 -33q0 -10 2 -19q3 -12 29 -71q34 -79 121 -256l119 -242q102 178 165 331l-61 160q-10 22 -25.5 66t-24 51.5t-61.5 22.5t-63 23l-1 7q0 6 6 17q24 6 38 6l57 -1h125l38 1l123 -2q15 0 25 1h17
q6 0 17 -1l-2 -32q-15 -9 -50 -13q-66 -7 -101 -25q-11 -12 -11 -21q0 -22 12 -55q4 -10 21 -62l107 -282q47 -126 72 -176q42 77 118 277q27 70 72 167q29 61 29 105q0 23 -17 39t-79 30q-37 8 -55 15q-5 8 -5 13q0 9 11 20h15l81 1q5 0 46 -1.5t80 -1.5q30 0 69 2h50
q6 -2 8.5 -5t2.5 -10q0 -11 -3 -24q-49 -6 -77 -22.5t-76 -90.5l-179 -430q-25 -60 -87 -184q-13 -26 -19.5 -42t-12.5 -21t-16 -5q-7 0 -19 4q-28 55 -124 303q-26 67 -48 114q-164 -341 -215 -419q-14 -2 -21 -2t-20 2l-189 395l-173 338q-18 31 -28 38q-17 11 -60 18
q-24 4 -37 6q-1 15 -1 23q0 5 1 15z" />
    <glyph glyph-name="x" unicode="x" horiz-adv-x="939" 
d="M30 749q-2 13 -2 22v13q16 4 35 4h37q86 -3 108 -3q69 0 140 2q44 1 54 1h24q7 -14 7 -21q0 -5 -4 -14l-15 -2q-73 -7 -92 -18q-8 -5 -8 -13q0 -16 24 -47q117 -152 159 -196q94 126 112.5 161.5t18.5 55.5q0 23 -18 38.5t-88 25.5q-8 12 -8 20l3 10l26 1q10 0 35 -1
q43 -3 86 -3q22 0 76 1.5t82 1.5h46q13 -6 13 -16q0 -5 -2 -13q-16 -4 -39 -8q-54 -8 -105 -39q-38 -23 -75 -73l-142 -192l145 -182q100 -135 122.5 -159t48.5 -39t76 -28q1 -12 1 -21q0 -7 -4 -19q-18 0 -182 5q-10 0 -96 -2q-27 -1 -52 -1q-23 0 -57 2l3 30q15 3 33 7
q51 10 73 27q13 11 13 24q0 22 -136 184l-59 71q-42 -42 -93 -119q-29 -45 -47 -67q-34 -40 -34 -67q0 -9 12 -18.5t70 -22.5q39 -8 55 -13q3 -13 3 -20q0 -6 -2 -19q-77 4 -150 4q-92 0 -133.5 -2.5t-51.5 -2.5q-12 0 -38 2q-4 14 -4 21l2 13q14 7 35 9q67 7 119 50
t231 287l-133 160l-142 170q-6 6 -15 12q-16 9 -43 14q-41 8 -58 12z" />
    <glyph glyph-name="y" unicode="y" horiz-adv-x="853" 
d="M12 788q22 2 37 2h48l65 2l85 -3l69 2q55 0 99 -7q4 -10 4 -16l-1 -8q-21 -10 -65 -14q-62 -5 -89 -22l-2 -11q0 -10 8 -30q5 -12 13 -36q22 -74 95 -286q53 -153 98 -263q28 60 64 152l85 237q28 78 43 156q6 31 6 49q0 15 -13 28t-52 22q-71 18 -77 22.5t-7 19.5
q6 5 14 8h62l67 -1l100 1l64 -1l16 1q7 0 23 -2q10 -5 10 -16q0 -10 -9 -18l-20 -3q-58 -8 -89 -30q-17 -12 -29 -50q-4 -14 -13 -36q-5 -12 -14.5 -40t-24.5 -66l-12 -28l-1 -5l-170 -448l-124 -337q-12 -25 -28 -62q-38 -71 -45 -78q-30 -37 -52 -52l-51 -22
q-15 -4 -32 -4q-45 0 -66 19.5t-21 53.5q0 32 31 58q10 3 20 8l13 3q89 -16 111 -16q21 11 31 26q49 73 84 163t35 121q0 34 -26 99l-111 294q-23 57 -137 372q-7 20 -18 30l-68 25l-21 4q-17 7 -17 20z" />
    <glyph glyph-name="z" unicode="z" horiz-adv-x="875" 
d="M54 -3l1 21q119 134 167 196l80 102q13 14 113 129l90 105q29 31 123 159q-9 6 -21 6l-41 1q-73 2 -190 -2q-83 -3 -128 -20q-33 -12 -59 -38q-41 -41 -59 -77q-9 -18 -29 -30q-11 1 -16 10q4 11 18.5 53.5t24.5 77.5q33 111 60 176h36q-2 -13 -3 -19q-5 -29 -5 -44
q0 -21 18 -30q25 -14 164 -14q33 0 78 2q182 9 230 9q19 0 87 -4q1 -11 1 -19q0 -17 -6 -26q-24 -42 -84 -120l-204 -249l-255 -310q20 0 66 -2h241q42 -1 83.5 19t75 67.5t51.5 111.5q8 5 16 5q12 0 19 -10l-21 -142q-9 -80 -22 -97l-606 1h-62q-18 0 -32 2z" />
    <glyph glyph-name="braceleft" unicode="{" horiz-adv-x="981" 
d="M841 -407v-35q-167 23 -271.5 135.5t-104.5 248.5q0 74 23 168.5t23 150.5q0 70 -61 132.5t-167 76.5v41q106 14 167 76t61 133q0 56 -23 150.5t-23 168.5q0 135 104.5 248t271.5 135v-35q-117 -28 -171.5 -91t-54.5 -137q0 -62 22.5 -158.5t22.5 -164.5q0 -101 -74 -196
t-221 -147q144 -53 219.5 -150t75.5 -198q0 -68 -22.5 -164.5t-22.5 -158.5q0 -73 54.5 -136.5t171.5 -92.5z" />
    <glyph glyph-name="bar" unicode="|" horiz-adv-x="1024" 
d="M468 1339h89v-1867h-89v1867z" />
    <glyph glyph-name="braceright" unicode="}" horiz-adv-x="981" 
d="M177 1387v35q166 -22 271 -134.5t105 -248.5q0 -74 -23 -168.5t-23 -151.5q0 -69 60.5 -131.5t167.5 -76.5v-41q-107 -14 -167.5 -76t-60.5 -133q0 -56 23 -150.5t23 -168.5q0 -135 -104.5 -248t-271.5 -136v35q117 29 171.5 92t54.5 137q0 62 -23 158.5t-23 163.5
q0 102 74.5 197t221.5 147q-144 53 -220 150t-76 198q0 68 23 164.5t23 158.5q0 73 -54.5 136.5t-171.5 91.5z" />
    <glyph glyph-name="asciitilde" unicode="~" horiz-adv-x="1365" 
d="M1172 773h43q-3 -127 -72.5 -200.5t-170.5 -73.5q-46 0 -91 13q-60 18 -281 109q-156 63 -220 63q-71 0 -119 -43t-68 -140h-43q7 133 74 203.5t158 70.5q44 0 89 -13q103 -30 291 -110q154 -66 223 -66q75 0 126 48t61 139z" />
    <glyph glyph-name="Adieresis" unicode="&#xc4;" horiz-adv-x="1387" 
d="M-11 32q14 8 25 8h23q7 0 24 1q77 7 91 14q35 19 60 66q52 102 117 289q31 89 39 108q25 60 48 126l94 263q22 62 106 284q21 56 51 150l29 2l35 -1q43 -85 76 -183q18 -52 59 -155l152 -411l81 -223q64 -190 84 -233.5t37 -57.5q5 -4 37.5 -12t45.5 -12q46 -13 64 -22
q4 -11 4 -17q0 -5 -3 -15q-32 -1 -45 -1q-51 0 -180 3l-100 3l-121 -2q-12 0 -24.5 1.5t-21.5 1.5h-22q-11 1 -20 6q0 14 5 27q12 6 22 7l105 7q41 2 62 11q6 18 6 27q0 18 -26 93q-18 50 -31.5 95t-106.5 296q-41 7 -72 7l-214 -2l-63 1q-34 0 -75 -5q-13 -30 -17 -43
l-88 -275q-56 -157 -56 -173q0 -9 9 -30q21 -6 56 -11l136 -12q11 -9 11 -16q0 -5 -3 -15q-45 -1 -69 -1q-80 0 -186 5q-49 2 -70 2t-73 -2q-34 -2 -49 -2q-24 0 -62 3v6q0 7 4 19zM466 632q107 -6 244 -6q78 0 137 5q-10 39 -23 73q-65 174 -72 192l-91 231l-10 18
q-6 -12 -44 -103q-64 -156 -92 -243q-13 -39 -27 -77.5t-17.5 -54t-10.5 -31.5zM789 1490q0 39 25 64t61 25t61 -25t25 -61t-25 -61.5t-61 -25.5q-35 0 -60.5 25t-25.5 59zM445 1490q0 39 25 64t60 25t61 -25.5t26 -61.5t-25.5 -61t-60.5 -25t-60.5 25t-25.5 59z" />
    <glyph glyph-name="Aring" unicode="&#xc5;" horiz-adv-x="1387" 
d="M-11 32q14 8 25 8h23q7 0 24 1q77 7 91 14q35 19 60 66q52 102 117 289q31 89 39 108q25 60 48 126l94 263q22 62 106 284q21 56 51 150l29 2l35 -1q43 -85 76 -183q18 -52 59 -155l152 -411l81 -223q64 -190 84 -233.5t37 -57.5q5 -4 37.5 -12t45.5 -12q46 -13 64 -22
q4 -11 4 -17q0 -5 -3 -15q-32 -1 -45 -1q-51 0 -180 3l-100 3l-121 -2q-12 0 -24.5 1.5t-21.5 1.5h-22q-11 1 -20 6q0 14 5 27q12 6 22 7l105 7q41 2 62 11q6 18 6 27q0 18 -26 93q-18 50 -31.5 95t-106.5 296q-41 7 -72 7l-214 -2l-63 1q-34 0 -75 -5q-13 -30 -17 -43
l-88 -275q-56 -157 -56 -173q0 -9 9 -30q21 -6 56 -11l136 -12q11 -9 11 -16q0 -5 -3 -15q-45 -1 -69 -1q-80 0 -186 5q-49 2 -70 2t-73 -2q-34 -2 -49 -2q-24 0 -62 3v6q0 7 4 19zM466 632q107 -6 244 -6q78 0 137 5q-10 39 -23 73q-65 174 -72 192l-91 231l-10 18
q-6 -12 -44 -103q-64 -156 -92 -243q-13 -39 -27 -77.5t-17.5 -54t-10.5 -31.5zM536 1489q0 68 48 116.5t116 48.5t116 -48t48 -116q0 -69 -48.5 -117t-116.5 -48q-67 0 -115 48t-48 116zM699 1370q50 0 85 35t35 85q0 49 -35 84t-84 35t-84 -35t-35 -83q0 -51 34.5 -86
t83.5 -35z" />
    <glyph glyph-name="Ccedilla" unicode="&#xc7;" horiz-adv-x="1301" 
d="M1185 1224q12 -77 12 -158q0 -16 -1 -43q-14 -3 -21 -3q-6 0 -17 2q-42 117 -137 180t-235 63q-74 0 -125 -17q-90 -31 -158 -85.5t-115 -130t-74.5 -183t-27.5 -219.5q0 -214 65 -353.5t178 -199t228 -59.5l47 1q80 10 109 19q73 21 120.5 49.5t93 80.5t77.5 121l12 4
q5 0 15 -6q-1 -24 -2 -31q-42 -169 -61 -231q-16 -4 -40 -12q-117 -40 -313 -40q-158 0 -236.5 21.5t-171 67t-162.5 120.5t-113 189.5t-43 249.5q0 128 34 223.5t105 193.5t167.5 163t214.5 92q83 18 235 18q111 0 209 -29.5t131 -57.5zM773 -175q10 16 36 48q38 48 97 141
h34l-78 -125q78 -60 78 -140q0 -77 -51.5 -128.5t-125.5 -51.5q-53 0 -87.5 28.5t-34.5 55.5q0 20 14 37q10 12 24 12q22 0 53 -43t64 -43q27 0 49 26t22 68q0 37 -23.5 67.5t-70.5 47.5z" />
    <glyph glyph-name="Eacute" unicode="&#xc9;" horiz-adv-x="1344" 
d="M50 16q10 9 17 11q17 5 58 8q97 6 120 18q14 20 14 56l-1 70l1 254l-2 120l1 251l-5 285q-1 102 -13 115q-18 19 -107 22q-38 1 -67 6q-13 7 -13 18q0 8 5 19q9 5 16 5q14 0 34 -1q59 -5 122 -5l74 2l176 -4q132 0 206 3t100 3q23 0 114 -4l142 1l17 -3l83 3l10 -5
q5 -8 7 -17q0 -14 -4.5 -43t-4.5 -36q0 -104 7 -176q-1 -6 -6 -8q-11 0 -20 3q-11 19 -29.5 67t-55.5 111q-25 42 -39 50t-58 8q-9 0 -91 2q-22 1 -43 1l-285 -6h-25q-55 0 -66 -14q-17 -24 -17 -141q0 -12 5 -240v-139q11 -3 24 -3h17q17 0 50 -1q52 -2 70 -2q12 0 21 1
q108 4 278 4q53 9 62 21q15 18 22.5 94t33.5 86q13 0 24 -5q2 -8 2 -15t-2 -23q-5 -37 -5 -232q0 -52 5.5 -116t5.5 -69q0 -9 -3 -24q-8 -4 -13 -4h-7q-16 28 -31 87q-26 101 -54.5 126.5t-92.5 25.5q-14 0 -51 -1.5t-110 -1.5h-65q-139 0 -182 -6l-1 -33l1 -184l-1 -116
l1 -113q1 -102 13 -118q17 -22 74 -22l61 1q8 0 62.5 -1.5t134.5 -1.5q193 0 257 16.5t105.5 58.5t104.5 181q19 41 38 41q9 0 20 -8q-29 -99 -33 -130q-11 -70 -13 -143q0 -33 -16 -55h-22l-281 -3l-126 1l-300 -4h-122q-23 0 -43 -1q-180 -8 -265 -8q-15 0 -20.5 5
t-5.5 15zM575 1406l124 179q54 79 107 114q22 15 48 15q27 0 43 -15t16 -35q0 -19 -14 -40t-67 -57l-235 -161l-11 -1z" />
    <glyph glyph-name="Ntilde" unicode="&#xd1;" horiz-adv-x="1579" 
d="M27 1223l-1 48q155 0 227 8q28 3 39 3q9 0 27 -1q42 -35 78 -80q8 -9 18 -20l211 -233l30 -36q64 -75 116.5 -128t204.5 -221l239 -265q35 -39 90 -97l1 16q-6 139 -6 147l4 60l-2 94v43q0 41 -7 253q-1 29 -8 109.5t-7 141.5q0 110 -13 128q-9 13 -85 27q-18 1 -56 6
q-45 2 -53 5t-16 17q2 16 9 30q27 8 53 8q28 0 69.5 -7t74.5 -7q46 0 143 6q55 4 76 4h17l-2 -31q-16 -7 -44 -8.5t-52 -8.5q-36 -11 -43 -19q-24 -26 -24 -53l11 -316l8 -145l-1 -42l6 -201q6 -206 6 -358q0 -33 -4 -143l-47 -4q-35 40 -241 252q-48 49 -65 69l-86 99
q-50 55 -65 70l-22 22q-109 124 -283 310q-47 50 -138 156q-57 67 -72 82t-41 34l-3 -34q0 -195 10 -538l7 -331q1 -42 5 -81l35 -8q95 -9 187 -27q7 -6 12 -9l-1 -38q-16 -5 -26 -5q-11 0 -27 2q-99 8 -241 8q-100 0 -176 -5l-14 -1q-9 0 -26 2l-1 30l26 12l47 7
q63 9 92 20q19 7 31 21q11 69 11 202q0 62 -3 227v136l-2 284q-2 190 -13 224q-6 18 -25 32q-38 27 -99.5 34t-79.5 12zM1079 1608h29q1 -11 1 -16q0 -86 -47.5 -137t-117.5 -51q-35 0 -74 15q-26 9 -81 46.5t-77 45.5q-31 13 -56 13q-34 0 -56.5 -24t-33.5 -94h-28
q-2 6 -2 11q0 67 41 129t125 62q35 0 66.5 -12t90.5 -51q89 -58 132 -58q31 0 54.5 25t33.5 96z" />
    <glyph glyph-name="Odieresis" unicode="&#xd6;" horiz-adv-x="1600" 
d="M94 639q0 102 24.5 181.5t82.5 172.5t140 155.5t227 110.5q102 33 258 33q105 0 205.5 -28t182.5 -78t164 -154q57 -72 86 -155q38 -109 38 -225q0 -132 -25.5 -219t-85.5 -172q-47 -66 -161 -152q-76 -58 -189 -93.5t-244 -35.5q-133 0 -237 31t-173.5 75.5t-143 131.5
t-111.5 192t-38 229zM788 17q84 0 174.5 23.5t160.5 78t109.5 124t63.5 178.5t24 218q0 136 -40 269q-31 101 -101 180.5t-169 123t-211 43.5q-91 0 -178 -30t-143 -76.5t-104 -132t-73 -188.5t-25 -182q0 -83 25 -188t68.5 -182t107 -136.5t142.5 -91t169 -31.5zM936 1490
q0 39 25 64t61 25t61 -25t25 -61t-25 -61.5t-61 -25.5q-35 0 -60.5 25t-25.5 59zM592 1490q0 39 25 64t60 25t61 -25.5t26 -61.5t-25.5 -61t-60.5 -25t-60.5 25t-25.5 59z" />
    <glyph glyph-name="Udieresis" unicode="&#xdc;" 
d="M584 1284q5 -17 5 -26q0 -6 -3 -18q-26 -7 -42 -7q-7 0 -23.5 1.5t-26.5 1.5q-46 0 -73 -18q-18 -11 -22 -29l-10 -114l3 -495q1 -272 18 -338.5t57 -109.5t120.5 -71t156.5 -28q170 0 260.5 49t130 135.5t39.5 262.5q0 5 -3 80v29q0 16 2 62.5t2 54.5l-15 287
q-7 145 -16.5 171t-27.5 39q-39 28 -148 50q-5 14 -6 29q39 4 77 4q40 0 84 -3q66 -5 72 -5l158 5l31 -1l-1 -36q-123 -16 -147 -37.5t-24 -79.5q0 -31 4 -135l7 -207l-1 -82l3 -104q0 -196 -11 -267q-16 -99 -45.5 -157t-85.5 -104.5t-149.5 -76.5t-184.5 -30
q-143 0 -206 20q-115 35 -183 91t-94 112q-35 74 -35 216v69l-3 280l3 226v152q0 58 -16 81q-11 16 -32 16l-59 -1q-66 0 -84 14q-3 9 -3 16q0 9 6 14q11 8 27 8h26l67 1h158zM861 1490q0 39 25 64t61 25t61 -25t25 -61t-25 -61.5t-61 -25.5q-35 0 -60.5 25t-25.5 59z
M517 1490q0 39 25 64t60 25t61 -25.5t26 -61.5t-25.5 -61t-60.5 -25t-60.5 25t-25.5 59z" />
    <glyph glyph-name="aacute" unicode="&#xe1;" horiz-adv-x="832" 
d="M813 136q6 -13 6 -19q0 -15 -24 -53q-31 -50 -69 -73q-24 -15 -66 -15q-72 0 -108 44q-22 26 -31 93l-112 -78q-59 -34 -90 -43q-50 -13 -120 -13q-51 0 -80.5 30.5t-29.5 78.5q0 69 84.5 165t229.5 157q102 43 125 55q2 33 2 72q0 127 -35.5 172t-101.5 45
q-69 0 -129 -54q-37 -34 -56 -128q-6 -26 -23 -56q-43 -28 -69 -28q-22 0 -40 13q-10 7 -10 16q0 26 55.5 117.5t140 137t147.5 45.5q86 0 128 -15.5t74 -54.5t39 -85q4 -22 4 -157l-3 -159l1 -116q0 -23 -1 -39q-1 -29 -1 -43q0 -33 19 -53t45 -20q38 0 65 38l12 16
q5 3 22 7zM519 165q7 127 7 179q0 27 -3 73q-67 -24 -142 -73t-119 -113q-32 -46 -32 -87q0 -39 26.5 -65t66.5 -26q31 0 75 22q58 29 121 90zM284 984l124 179q54 79 107 114q22 15 48 15q27 0 43 -15t16 -35q0 -19 -14 -40t-67 -57l-235 -161l-11 -1z" />
    <glyph glyph-name="agrave" unicode="&#xe0;" horiz-adv-x="832" 
d="M813 136q6 -13 6 -19q0 -15 -24 -53q-31 -50 -69 -73q-24 -15 -66 -15q-72 0 -108 44q-22 26 -31 93l-112 -78q-59 -34 -90 -43q-50 -13 -120 -13q-51 0 -80.5 30.5t-29.5 78.5q0 69 84.5 165t229.5 157q102 43 125 55q2 33 2 72q0 127 -35.5 172t-101.5 45
q-69 0 -129 -54q-37 -34 -56 -128q-6 -26 -23 -56q-43 -28 -69 -28q-22 0 -40 13q-10 7 -10 16q0 26 55.5 117.5t140 137t147.5 45.5q86 0 128 -15.5t74 -54.5t39 -85q4 -22 4 -157l-3 -159l1 -116q0 -23 -1 -39q-1 -29 -1 -43q0 -33 19 -53t45 -20q38 0 65 38l12 16
q5 3 22 7zM519 165q7 127 7 179q0 27 -3 73q-67 -24 -142 -73t-119 -113q-32 -46 -32 -87q0 -39 26.5 -65t66.5 -26q31 0 75 22q58 29 121 90zM555 984l-17 -1q-15 10 -199 134q-88 60 -104 83.5t-16 41.5q0 20 16 35.5t37 15.5q36 0 78.5 -35t130.5 -166q23 -34 38 -54
q26 -34 36 -54z" />
    <glyph glyph-name="acircumflex" unicode="&#xe2;" horiz-adv-x="832" 
d="M813 136q6 -13 6 -19q0 -15 -24 -53q-31 -50 -69 -73q-24 -15 -66 -15q-72 0 -108 44q-22 26 -31 93l-112 -78q-59 -34 -90 -43q-50 -13 -120 -13q-51 0 -80.5 30.5t-29.5 78.5q0 69 84.5 165t229.5 157q102 43 125 55q2 33 2 72q0 127 -35.5 172t-101.5 45
q-69 0 -129 -54q-37 -34 -56 -128q-6 -26 -23 -56q-43 -28 -69 -28q-22 0 -40 13q-10 7 -10 16q0 26 55.5 117.5t140 137t147.5 45.5q86 0 128 -15.5t74 -54.5t39 -85q4 -22 4 -157l-3 -159l1 -116q0 -23 -1 -39q-1 -29 -1 -43q0 -33 19 -53t45 -20q38 0 65 38l12 16
q5 3 22 7zM519 165q7 127 7 179q0 27 -3 73q-67 -24 -142 -73t-119 -113q-32 -46 -32 -87q0 -39 26.5 -65t66.5 -26q31 0 75 22q58 29 121 90zM222 1006q136 240 191 326h57q11 -16 80 -134l111 -191l-4 -26q-28 27 -186 183q-17 16 -40 36q-25 -29 -206 -223q-3 9 -3 16v13
z" />
    <glyph glyph-name="adieresis" unicode="&#xe4;" horiz-adv-x="832" 
d="M813 136q6 -13 6 -19q0 -15 -24 -53q-31 -50 -69 -73q-24 -15 -66 -15q-72 0 -108 44q-22 26 -31 93l-112 -78q-59 -34 -90 -43q-50 -13 -120 -13q-51 0 -80.5 30.5t-29.5 78.5q0 69 84.5 165t229.5 157q102 43 125 55q2 33 2 72q0 127 -35.5 172t-101.5 45
q-69 0 -129 -54q-37 -34 -56 -128q-6 -26 -23 -56q-43 -28 -69 -28q-22 0 -40 13q-10 7 -10 16q0 26 55.5 117.5t140 137t147.5 45.5q86 0 128 -15.5t74 -54.5t39 -85q4 -22 4 -157l-3 -159l1 -116q0 -23 -1 -39q-1 -29 -1 -43q0 -33 19 -53t45 -20q38 0 65 38l12 16
q5 3 22 7zM519 165q7 127 7 179q0 27 -3 73q-67 -24 -142 -73t-119 -113q-32 -46 -32 -87q0 -39 26.5 -65t66.5 -26q31 0 75 22q58 29 121 90zM517 1140q0 39 25 64t61 25t61 -25t25 -61t-25 -61.5t-61 -25.5q-35 0 -60.5 25t-25.5 59zM173 1140q0 39 25 64t60 25t61 -25.5
t26 -61.5t-25.5 -61t-60.5 -25t-60.5 25t-25.5 59z" />
    <glyph glyph-name="atilde" unicode="&#xe3;" horiz-adv-x="832" 
d="M813 136q6 -13 6 -19q0 -15 -24 -53q-31 -50 -69 -73q-24 -15 -66 -15q-72 0 -108 44q-22 26 -31 93l-112 -78q-59 -34 -90 -43q-50 -13 -120 -13q-51 0 -80.5 30.5t-29.5 78.5q0 69 84.5 165t229.5 157q102 43 125 55q2 33 2 72q0 127 -35.5 172t-101.5 45
q-69 0 -129 -54q-37 -34 -56 -128q-6 -26 -23 -56q-43 -28 -69 -28q-22 0 -40 13q-10 7 -10 16q0 26 55.5 117.5t140 137t147.5 45.5q86 0 128 -15.5t74 -54.5t39 -85q4 -22 4 -157l-3 -159l1 -116q0 -23 -1 -39q-1 -29 -1 -43q0 -33 19 -53t45 -20q38 0 65 38l12 16
q5 3 22 7zM519 165q7 127 7 179q0 27 -3 73q-67 -24 -142 -73t-119 -113q-32 -46 -32 -87q0 -39 26.5 -65t66.5 -26q31 0 75 22q58 29 121 90zM671 1237h29q1 -11 1 -16q0 -86 -47.5 -137t-117.5 -51q-35 0 -74 15q-26 9 -81 46.5t-77 45.5q-31 13 -56 13q-34 0 -56.5 -24
t-33.5 -94h-28q-2 6 -2 11q0 67 41 129t125 62q35 0 66.5 -12t90.5 -51q89 -58 132 -58q31 0 54.5 25t33.5 96z" />
    <glyph glyph-name="aring" unicode="&#xe5;" horiz-adv-x="832" 
d="M813 136q6 -13 6 -19q0 -15 -24 -53q-31 -50 -69 -73q-24 -15 -66 -15q-72 0 -108 44q-22 26 -31 93l-112 -78q-59 -34 -90 -43q-50 -13 -120 -13q-51 0 -80.5 30.5t-29.5 78.5q0 69 84.5 165t229.5 157q102 43 125 55q2 33 2 72q0 127 -35.5 172t-101.5 45
q-69 0 -129 -54q-37 -34 -56 -128q-6 -26 -23 -56q-43 -28 -69 -28q-22 0 -40 13q-10 7 -10 16q0 26 55.5 117.5t140 137t147.5 45.5q86 0 128 -15.5t74 -54.5t39 -85q4 -22 4 -157l-3 -159l1 -116q0 -23 -1 -39q-1 -29 -1 -43q0 -33 19 -53t45 -20q38 0 65 38l12 16
q5 3 22 7zM519 165q7 127 7 179q0 27 -3 73q-67 -24 -142 -73t-119 -113q-32 -46 -32 -87q0 -39 26.5 -65t66.5 -26q31 0 75 22q58 29 121 90zM265 1094q0 68 48 116.5t116 48.5t116 -48t48 -116q0 -69 -48.5 -117t-116.5 -48q-67 0 -115 48t-48 116zM428 975q50 0 85 35
t35 85q0 49 -35 84t-84 35t-84 -35t-35 -83q0 -51 34.5 -86t83.5 -35z" />
    <glyph glyph-name="ccedilla" unicode="&#xe7;" horiz-adv-x="853" 
d="M799 183l1 -65q-78 -83 -154 -116t-179 -33q-112 0 -202 58.5t-138.5 165.5t-48.5 210q0 113 58.5 213.5t155 150t242.5 49.5q140 0 213 -48q41 -28 41 -72q0 -32 -21 -53t-54 -21q-50 0 -110 62q-37 38 -67 52.5t-67 14.5q-89 0 -148 -73q-82 -104 -82 -261
q0 -162 84 -258t196 -96q78 0 138.5 25.5t141.5 94.5zM418 -175q10 16 36 48q38 48 97 141h34l-78 -125q78 -60 78 -140q0 -77 -51.5 -128.5t-125.5 -51.5q-53 0 -87.5 28.5t-34.5 55.5q0 20 14 37q10 12 24 12q22 0 53 -43t64 -43q27 0 49 26t22 68q0 37 -23.5 67.5
t-70.5 47.5z" />
    <glyph glyph-name="eacute" unicode="&#xe9;" horiz-adv-x="853" 
d="M792 528l-401 -3h-76q-46 0 -94 -4q-9 -30 -9 -41l1 -10v-10l-1 -49q0 -61 38.5 -149.5t110 -135t178.5 -49.5q57 3 91 14t96 51l72 59l6 -40q0 -7 -1 -15q-45 -57 -114 -100t-140 -63q-34 -9 -112 -9q-71 0 -140 29q-102 44 -160.5 141.5t-58.5 236.5q0 44 16.5 113
t59.5 147q29 53 71 87q60 48 105 67q65 27 151 27q93 0 152 -34q80 -45 119.5 -116t39.5 -130v-14zM234 564h47q51 0 304 16q40 2 49 8q18 19 18 34q0 31 -20 70.5t-61.5 61t-96.5 21.5q-116 0 -186 -87q-54 -66 -54 -124zM329 984l124 179q54 79 107 114q22 15 48 15
q27 0 43 -15t16 -35q0 -19 -14 -40t-67 -57l-235 -161l-11 -1z" />
    <glyph glyph-name="egrave" unicode="&#xe8;" horiz-adv-x="853" 
d="M792 528l-401 -3h-76q-46 0 -94 -4q-9 -30 -9 -41l1 -10v-10l-1 -49q0 -61 38.5 -149.5t110 -135t178.5 -49.5q57 3 91 14t96 51l72 59l6 -40q0 -7 -1 -15q-45 -57 -114 -100t-140 -63q-34 -9 -112 -9q-71 0 -140 29q-102 44 -160.5 141.5t-58.5 236.5q0 44 16.5 113
t59.5 147q29 53 71 87q60 48 105 67q65 27 151 27q93 0 152 -34q80 -45 119.5 -116t39.5 -130v-14zM234 564h47q51 0 304 16q40 2 49 8q18 19 18 34q0 31 -20 70.5t-61.5 61t-96.5 21.5q-116 0 -186 -87q-54 -66 -54 -124zM620 984l-17 -1q-15 10 -199 134q-88 60 -104 83.5
t-16 41.5q0 20 16 35.5t37 15.5q36 0 78.5 -35t130.5 -166q23 -34 38 -54q26 -34 36 -54z" />
    <glyph glyph-name="ecircumflex" unicode="&#xea;" horiz-adv-x="853" 
d="M792 528l-401 -3h-76q-46 0 -94 -4q-9 -30 -9 -41l1 -10v-10l-1 -49q0 -61 38.5 -149.5t110 -135t178.5 -49.5q57 3 91 14t96 51l72 59l6 -40q0 -7 -1 -15q-45 -57 -114 -100t-140 -63q-34 -9 -112 -9q-71 0 -140 29q-102 44 -160.5 141.5t-58.5 236.5q0 44 16.5 113
t59.5 147q29 53 71 87q60 48 105 67q65 27 151 27q93 0 152 -34q80 -45 119.5 -116t39.5 -130v-14zM234 564h47q51 0 304 16q40 2 49 8q18 19 18 34q0 31 -20 70.5t-61.5 61t-96.5 21.5q-116 0 -186 -87q-54 -66 -54 -124zM232 1006q136 240 191 326h57q11 -16 80 -134
l111 -191l-4 -26q-28 27 -186 183q-17 16 -40 36q-25 -29 -206 -223q-3 9 -3 16v13z" />
    <glyph glyph-name="edieresis" unicode="&#xeb;" horiz-adv-x="853" 
d="M792 528l-401 -3h-76q-46 0 -94 -4q-9 -30 -9 -41l1 -10v-10l-1 -49q0 -61 38.5 -149.5t110 -135t178.5 -49.5q57 3 91 14t96 51l72 59l6 -40q0 -7 -1 -15q-45 -57 -114 -100t-140 -63q-34 -9 -112 -9q-71 0 -140 29q-102 44 -160.5 141.5t-58.5 236.5q0 44 16.5 113
t59.5 147q29 53 71 87q60 48 105 67q65 27 151 27q93 0 152 -34q80 -45 119.5 -116t39.5 -130v-14zM234 564h47q51 0 304 16q40 2 49 8q18 19 18 34q0 31 -20 70.5t-61.5 61t-96.5 21.5q-116 0 -186 -87q-54 -66 -54 -124zM562 1140q0 39 25 64t61 25t61 -25t25 -61
t-25 -61.5t-61 -25.5q-35 0 -60.5 25t-25.5 59zM218 1140q0 39 25 64t60 25t61 -25.5t26 -61.5t-25.5 -61t-60.5 -25t-60.5 25t-25.5 59z" />
    <glyph glyph-name="iacute" unicode="&#xed;" horiz-adv-x="469" 
d="M2 28q14 10 39 13q91 13 115 33q12 12 17 40q6 38 6 186l-1 216l2 87q0 47 -21.5 69t-102.5 41l-1 29q138 32 214 144q11 4 16 4q6 0 16 -4l2 -38v-186l1 -243l-4 -257l1 -43q1 -38 11 -47q17 -16 113 -42q14 -4 25 -9v-26h-17q-168 12 -216 12q-115 0 -184 -8
q-10 -1 -17 -1q-8 0 -13.5 5t-5.5 11q0 5 5 14zM137 984l124 179q54 79 107 114q22 15 48 15q27 0 43 -15t16 -35q0 -19 -14 -40t-67 -57l-235 -161l-11 -1z" />
    <glyph glyph-name="igrave" unicode="&#xec;" horiz-adv-x="469" 
d="M2 28q14 10 39 13q91 13 115 33q12 12 17 40q6 38 6 186l-1 216l2 87q0 47 -21.5 69t-102.5 41l-1 29q138 32 214 144q11 4 16 4q6 0 16 -4l2 -38v-186l1 -243l-4 -257l1 -43q1 -38 11 -47q17 -16 113 -42q14 -4 25 -9v-26h-17q-168 12 -216 12q-115 0 -184 -8
q-10 -1 -17 -1q-8 0 -13.5 5t-5.5 11q0 5 5 14zM408 984l-17 -1q-15 10 -199 134q-88 60 -104 83.5t-16 41.5q0 20 16 35.5t37 15.5q36 0 78.5 -35t130.5 -166q23 -34 38 -54q26 -34 36 -54z" />
    <glyph glyph-name="icircumflex" unicode="&#xee;" horiz-adv-x="469" 
d="M2 28q14 10 39 13q91 13 115 33q12 12 17 40q6 38 6 186l-1 216l2 87q0 47 -21.5 69t-102.5 41l-1 29q138 32 214 144q11 4 16 4q6 0 16 -4l2 -38v-186l1 -243l-4 -257l1 -43q1 -38 11 -47q17 -16 113 -42q14 -4 25 -9v-26h-17q-168 12 -216 12q-115 0 -184 -8
q-10 -1 -17 -1q-8 0 -13.5 5t-5.5 11q0 5 5 14zM20 1006q136 240 191 326h57q11 -16 80 -134l111 -191l-4 -26q-28 27 -186 183q-17 16 -40 36q-25 -29 -206 -223q-3 9 -3 16v13z" />
    <glyph glyph-name="idieresis" unicode="&#xef;" horiz-adv-x="469" 
d="M2 28q14 10 39 13q91 13 115 33q12 12 17 40q6 38 6 186l-1 216l2 87q0 47 -21.5 69t-102.5 41l-1 29q138 32 214 144q11 4 16 4q6 0 16 -4l2 -38v-186l1 -243l-4 -257l1 -43q1 -38 11 -47q17 -16 113 -42q14 -4 25 -9v-26h-17q-168 12 -216 12q-115 0 -184 -8
q-10 -1 -17 -1q-8 0 -13.5 5t-5.5 11q0 5 5 14zM340 1140q0 39 25 64t61 25t61 -25t25 -61t-25 -61.5t-61 -25.5q-35 0 -60.5 25t-25.5 59zM-4 1140q0 39 25 64t60 25t61 -25.5t26 -61.5t-25.5 -61t-60.5 -25t-60.5 25t-25.5 59z" />
    <glyph glyph-name="ntilde" unicode="&#xf1;" horiz-adv-x="1045" 
d="M38 32q25 7 58 12q63 9 75.5 21t12.5 55l2 36q1 20 1 51l-2 307q0 62 -16 80q-27 28 -100 39v36q73 20 112 52q57 45 96 122l34 -1q3 -47 3 -67v-66l1 -18q12 8 28 20q60 45 123 73.5t112 39.5q31 8 70 8q82 0 141 -44t76.5 -103.5t17.5 -236.5v-151q0 -6 -1.5 -40
t-1.5 -78q0 -70 6 -89q5 -13 26 -26q96 -13 112 -31v-8q0 -10 -6 -25h-19l-132 1l-130 -2q-72 -2 -133 1l-6 21q0 6 7 16q27 12 76 16q29 2 40 6t27 16q12 24 12 40q0 7 -2 28q-3 46 -4 229v52l2 80q0 129 -52 178t-139 49q-67 0 -131 -29.5t-124 -88.5q-2 -48 -2 -82
l3 -221q0 -173 5 -212q2 -16 7 -22q8 -8 32 -13t55.5 -14t41.5 -11q20 -5 27 -20l-1 -20h-105l-216 3q-75 -2 -95 -2h-25l-2 13q0 7 3 20zM812 1237h29q1 -11 1 -16q0 -86 -47.5 -137t-117.5 -51q-35 0 -74 15q-26 9 -81 46.5t-77 45.5q-31 13 -56 13q-34 0 -56.5 -24
t-33.5 -94h-28q-2 6 -2 11q0 67 41 129t125 62q35 0 66.5 -12t90.5 -51q89 -58 132 -58q31 0 54.5 25t33.5 96z" />
    <glyph glyph-name="oacute" unicode="&#xf3;" horiz-adv-x="1045" 
d="M73 402q0 68 28.5 145.5t86.5 139t123 91.5q91 42 222 42q187 0 312.5 -128t125.5 -308q0 -160 -131.5 -285.5t-332.5 -125.5q-124 0 -234 65q-82 49 -141 145t-59 219zM515 12q76 0 146.5 41t112.5 131.5t42 209.5q0 78 -32.5 181t-100 154.5t-158.5 51.5
q-66 0 -134.5 -31t-116 -119t-47.5 -250q0 -182 82.5 -275.5t205.5 -93.5zM425 984l124 179q54 79 107 114q22 15 48 15q27 0 43 -15t16 -35q0 -19 -14 -40t-67 -57l-235 -161l-11 -1z" />
    <glyph glyph-name="ograve" unicode="&#xf2;" horiz-adv-x="1045" 
d="M73 402q0 68 28.5 145.5t86.5 139t123 91.5q91 42 222 42q187 0 312.5 -128t125.5 -308q0 -160 -131.5 -285.5t-332.5 -125.5q-124 0 -234 65q-82 49 -141 145t-59 219zM515 12q76 0 146.5 41t112.5 131.5t42 209.5q0 78 -32.5 181t-100 154.5t-158.5 51.5
q-66 0 -134.5 -31t-116 -119t-47.5 -250q0 -182 82.5 -275.5t205.5 -93.5zM716 984l-17 -1q-15 10 -199 134q-88 60 -104 83.5t-16 41.5q0 20 16 35.5t37 15.5q36 0 78.5 -35t130.5 -166q23 -34 38 -54q26 -34 36 -54z" />
    <glyph glyph-name="ocircumflex" unicode="&#xf4;" horiz-adv-x="1045" 
d="M73 402q0 68 28.5 145.5t86.5 139t123 91.5q91 42 222 42q187 0 312.5 -128t125.5 -308q0 -160 -131.5 -285.5t-332.5 -125.5q-124 0 -234 65q-82 49 -141 145t-59 219zM515 12q76 0 146.5 41t112.5 131.5t42 209.5q0 78 -32.5 181t-100 154.5t-158.5 51.5
q-66 0 -134.5 -31t-116 -119t-47.5 -250q0 -182 82.5 -275.5t205.5 -93.5zM328 1006q136 240 191 326h57q11 -16 80 -134l111 -191l-4 -26q-28 27 -186 183q-17 16 -40 36q-25 -29 -206 -223q-3 9 -3 16v13z" />
    <glyph glyph-name="odieresis" unicode="&#xf6;" horiz-adv-x="1045" 
d="M73 402q0 68 28.5 145.5t86.5 139t123 91.5q91 42 222 42q187 0 312.5 -128t125.5 -308q0 -160 -131.5 -285.5t-332.5 -125.5q-124 0 -234 65q-82 49 -141 145t-59 219zM515 12q76 0 146.5 41t112.5 131.5t42 209.5q0 78 -32.5 181t-100 154.5t-158.5 51.5
q-66 0 -134.5 -31t-116 -119t-47.5 -250q0 -182 82.5 -275.5t205.5 -93.5zM638 1140q0 39 25 64t61 25t61 -25t25 -61t-25 -61.5t-61 -25.5q-35 0 -60.5 25t-25.5 59zM294 1140q0 39 25 64t60 25t61 -25.5t26 -61.5t-25.5 -61t-60.5 -25t-60.5 25t-25.5 59z" />
    <glyph glyph-name="otilde" unicode="&#xf5;" horiz-adv-x="1045" 
d="M73 402q0 68 28.5 145.5t86.5 139t123 91.5q91 42 222 42q187 0 312.5 -128t125.5 -308q0 -160 -131.5 -285.5t-332.5 -125.5q-124 0 -234 65q-82 49 -141 145t-59 219zM515 12q76 0 146.5 41t112.5 131.5t42 209.5q0 78 -32.5 181t-100 154.5t-158.5 51.5
q-66 0 -134.5 -31t-116 -119t-47.5 -250q0 -182 82.5 -275.5t205.5 -93.5zM812 1237h29q1 -11 1 -16q0 -86 -47.5 -137t-117.5 -51q-35 0 -74 15q-26 9 -81 46.5t-77 45.5q-31 13 -56 13q-34 0 -56.5 -24t-33.5 -94h-28q-2 6 -2 11q0 67 41 129t125 62q35 0 66.5 -12
t90.5 -51q89 -58 132 -58q31 0 54.5 25t33.5 96z" />
    <glyph glyph-name="uacute" unicode="&#xfa;" horiz-adv-x="1003" 
d="M33 785h75l33 -2l26 2q103 0 128 -2l1 -19q0 -141 -4 -273q-3 -78 -3 -89q0 -176 11.5 -220t54 -70.5t102.5 -26.5q73 0 139.5 30.5t113.5 74.5q5 38 5 84q0 149 3 201q1 31 1 54q0 162 -16 183t-122 32q-35 4 -51 7q-8 13 -8 20l3 11q26 3 51 3l159 -2q85 2 90 2
q11 0 21 -1l2 -73q-7 -152 -8 -376l-2 -81l4 -136q9 -16 16 -19q12 -5 49 -5h9q13 0 74 -6q1 -13 1 -19v-11q-134 -29 -217 -58q-33 -11 -56 -16q-5 35 -5 43v81q0 5 -1 27q-13 -9 -30 -22q-79 -61 -167 -103q-59 -29 -114 -29q-105 0 -171 78q-67 78 -67 266q0 10 1 36
q4 48 4 67q0 7 -1 44q-1 16 -1 28q0 9 1 40.5t1 44.5q0 17 -1 30l-2 53l1 28q0 16 -16 29q-63 17 -82.5 19.5t-34.5 8.5v32zM404 984l124 179q54 79 107 114q22 15 48 15q27 0 43 -15t16 -35q0 -19 -14 -40t-67 -57l-235 -161l-11 -1z" />
    <glyph glyph-name="ugrave" unicode="&#xf9;" horiz-adv-x="1003" 
d="M33 785h75l33 -2l26 2q103 0 128 -2l1 -19q0 -141 -4 -273q-3 -78 -3 -89q0 -176 11.5 -220t54 -70.5t102.5 -26.5q73 0 139.5 30.5t113.5 74.5q5 38 5 84q0 149 3 201q1 31 1 54q0 162 -16 183t-122 32q-35 4 -51 7q-8 13 -8 20l3 11q26 3 51 3l159 -2q85 2 90 2
q11 0 21 -1l2 -73q-7 -152 -8 -376l-2 -81l4 -136q9 -16 16 -19q12 -5 49 -5h9q13 0 74 -6q1 -13 1 -19v-11q-134 -29 -217 -58q-33 -11 -56 -16q-5 35 -5 43v81q0 5 -1 27q-13 -9 -30 -22q-79 -61 -167 -103q-59 -29 -114 -29q-105 0 -171 78q-67 78 -67 266q0 10 1 36
q4 48 4 67q0 7 -1 44q-1 16 -1 28q0 9 1 40.5t1 44.5q0 17 -1 30l-2 53l1 28q0 16 -16 29q-63 17 -82.5 19.5t-34.5 8.5v32zM635 984l-17 -1q-15 10 -199 134q-88 60 -104 83.5t-16 41.5q0 20 16 35.5t37 15.5q36 0 78.5 -35t130.5 -166q23 -34 38 -54q26 -34 36 -54z" />
    <glyph glyph-name="ucircumflex" unicode="&#xfb;" horiz-adv-x="1003" 
d="M33 785h75l33 -2l26 2q103 0 128 -2l1 -19q0 -141 -4 -273q-3 -78 -3 -89q0 -176 11.5 -220t54 -70.5t102.5 -26.5q73 0 139.5 30.5t113.5 74.5q5 38 5 84q0 149 3 201q1 31 1 54q0 162 -16 183t-122 32q-35 4 -51 7q-8 13 -8 20l3 11q26 3 51 3l159 -2q85 2 90 2
q11 0 21 -1l2 -73q-7 -152 -8 -376l-2 -81l4 -136q9 -16 16 -19q12 -5 49 -5h9q13 0 74 -6q1 -13 1 -19v-11q-134 -29 -217 -58q-33 -11 -56 -16q-5 35 -5 43v81q0 5 -1 27q-13 -9 -30 -22q-79 -61 -167 -103q-59 -29 -114 -29q-105 0 -171 78q-67 78 -67 266q0 10 1 36
q4 48 4 67q0 7 -1 44q-1 16 -1 28q0 9 1 40.5t1 44.5q0 17 -1 30l-2 53l1 28q0 16 -16 29q-63 17 -82.5 19.5t-34.5 8.5v32zM307 1006q136 240 191 326h57q11 -16 80 -134l111 -191l-4 -26q-28 27 -186 183q-17 16 -40 36q-25 -29 -206 -223q-3 9 -3 16v13z" />
    <glyph glyph-name="udieresis" unicode="&#xfc;" horiz-adv-x="1003" 
d="M33 785h75l33 -2l26 2q103 0 128 -2l1 -19q0 -141 -4 -273q-3 -78 -3 -89q0 -176 11.5 -220t54 -70.5t102.5 -26.5q73 0 139.5 30.5t113.5 74.5q5 38 5 84q0 149 3 201q1 31 1 54q0 162 -16 183t-122 32q-35 4 -51 7q-8 13 -8 20l3 11q26 3 51 3l159 -2q85 2 90 2
q11 0 21 -1l2 -73q-7 -152 -8 -376l-2 -81l4 -136q9 -16 16 -19q12 -5 49 -5h9q13 0 74 -6q1 -13 1 -19v-11q-134 -29 -217 -58q-33 -11 -56 -16q-5 35 -5 43v81q0 5 -1 27q-13 -9 -30 -22q-79 -61 -167 -103q-59 -29 -114 -29q-105 0 -171 78q-67 78 -67 266q0 10 1 36
q4 48 4 67q0 7 -1 44q-1 16 -1 28q0 9 1 40.5t1 44.5q0 17 -1 30l-2 53l1 28q0 16 -16 29q-63 17 -82.5 19.5t-34.5 8.5v32zM587 1140q0 39 25 64t61 25t61 -25t25 -61t-25 -61.5t-61 -25.5q-35 0 -60.5 25t-25.5 59zM243 1140q0 39 25 64t60 25t61 -25.5t26 -61.5
t-25.5 -61t-60.5 -25t-60.5 25t-25.5 59z" />
    <glyph glyph-name="dagger" unicode="&#x2020;" horiz-adv-x="875" 
d="M290 778q12 0 66 -9q18 -2 28 -2h12v12q0 31 -5 70q-11 78 -17 171q-3 17 -3.5 31t-7.5 55q-4 26 -7 54l-7 65q-3 23 -3 39q0 22 27 43q30 5 46 5q63 0 77 -12q19 -18 19 -61q0 -10 -1 -26q-2 -10 -2 -27q0 -28 -12 -92q-4 -20 -7 -60l-6 -37v-17l-20 -190v-22l10 -1
l62 13h21l65 11l19 2q126 25 180 25q15 0 26 -12q8 -9 10 -39q1 -6 2 -20q3 -26 3 -46q0 -25 -13 -39t-37 -14q-48 0 -155 19q-53 16 -195 28l-1 -13l5 -166q6 -46 7 -79v-23l13 -144l18 -316q5 -57 6 -122q1 -41 11 -122v-44l2 -96q1 -34 -19.5 -51.5t-68.5 -17.5
q-11 0 -54 1q-21 6 -30 21q-13 22 -13 57v5q0 6 2 48l17 346l25 425l-1 76q0 20 6.5 105.5t6.5 107.5h-23q-28 0 -57 -4l-130 -28q-99 -18 -143 -18q-16 0 -25.5 10.5t-11.5 43.5q-7 39 -7 48q0 38 13.5 52t46.5 14q35 0 76 -7q66 -11 93.5 -14t60.5 -12z" />
    <glyph glyph-name="degree" unicode="&#xb0;" horiz-adv-x="811" 
d="M405 1386q129 0 218.5 -90t89.5 -218q0 -127 -90 -217t-218 -90q-127 0 -217 90t-90 217q0 128 89.5 218t217.5 90zM405 1302q-93 0 -158 -65t-65 -158q0 -92 65 -157.5t158 -65.5q92 0 157.5 65.5t65.5 157.5q0 93 -65 158t-158 65z" />
    <glyph glyph-name="cent" unicode="&#xa2;" horiz-adv-x="853" 
d="M695 1188l38 -1l-130 -376q104 -13 152 -52q34 -27 34 -63q0 -32 -23 -54.5t-56 -22.5q-31 0 -68 27q-58 54 -73 67l-206 -586q20 -28 61 -44q55 -21 110 -21q62 0 127.5 30t133.5 90q3 -19 3 -28l-1 -16q0 -8 -1 -23q-12 -14 -56.5 -50t-80.5 -54.5t-72 -25.5
q-79 -16 -118 -16q-85 0 -151 29q-25 -58 -73 -202q-35 -108 -51 -142l-38 2q10 38 111 323q9 24 13 39q-102 65 -151.5 171t-49.5 209q0 176 120 296.5t314 120.5q16 0 49 -1zM327 157l208 579q-37 14 -66 14q-88 0 -150 -77q-81 -101 -81 -261q0 -144 89 -255z" />
    <glyph glyph-name="sterling" unicode="&#xa3;" horiz-adv-x="1173" 
d="M200 -274q10 7 15 11q29 18 40 30l37 135q26 91 33 128q5 27 27 113q-136 12 -267 12q-6 15 -6 24l2 11q22 4 39 4h35q139 0 209 4l57 243q23 80 91 301q10 31 15 42q14 36 22 63q36 126 124.5 247.5t175.5 167.5q66 35 188 35q97 0 135.5 -27.5t38.5 -58.5
q0 -33 -17.5 -53t-41.5 -20q-16 0 -32 8q-12 6 -52 43t-63 47q-33 16 -66 16q-40 0 -62.5 -10.5t-57 -49.5t-75.5 -117q-28 -53 -52 -126q-42 -126 -57 -206q-5 -25 -12 -52l-74 -279l-27 -105q-14 -43 -23 -101q212 -5 260 -12q-2 -14 -10 -32q-3 -6 -8 -19l-214 -3
q-28 0 -50 -3l-43 -107q-29 -70 -126 -251q15 6 28 12t28 11l8 3q85 18 105 18q21 0 51 -7.5t54 -20.5l120 -79q24 -14 105 -78l45 -35q8 -5 22 -8h22q48 0 97.5 53.5t49.5 105.5q0 32 -22.5 75.5t-22.5 57.5q0 26 20 49q15 16 39 16q28 0 44 -11q20 -14 31.5 -42.5
t11.5 -39.5q0 -22 -15 -91q-26 -68 -54 -100q-63 -72 -131.5 -106.5t-146.5 -34.5q-49 0 -75.5 12.5t-87.5 67.5q-98 89 -154.5 118t-106.5 29q-15 0 -31.5 -5t-35.5 -15q-26 -26 -34 -38.5t-24 -50.5q-23 -58 -67.5 -92.5t-72.5 -34.5q-19 0 -36 15q-12 11 -12 30
q0 26 17 55t57.5 62.5t65.5 45.5z" />
    <glyph glyph-name="section" unicode="&#xa7;" horiz-adv-x="875" 
d="M611 1124l-103 73q-27 17 -59 28t-59 11q-35 0 -63 -30t-28 -80q0 -33 7 -65q6 -24 20 -50l70 -137l128 -204q59 -96 119.5 -223.5t82.5 -201.5q16 -55 18 -93q2 -26 6 -55q7 -59 7 -106q0 -105 -31 -214q-21 -71 -63 -126t-98 -88.5t-118 -45.5q-80 -15 -98 -15
q-50 0 -121 19q-54 14 -74 38.5t-20 70.5q0 45 19 66.5t50 21.5q22 0 56 -24q10 -7 32 -20q11 -7 31 -21q94 -67 138 -67q40 0 70.5 32t30.5 86q0 56 -22.5 114t-101.5 179q-2 4 -163 273q-54 91 -93 197.5t-43 148.5l-22 222q0 91 20 151q46 135 95.5 200t120 95t184.5 30
q105 0 156 -38.5t51 -73.5q0 -44 -23.5 -69.5t-55.5 -25.5q-20 0 -53 17zM609 -337q85 81 85 281q0 84 -22 199q-15 79 -48 160q-17 41 -115 227q-138 213 -207 364q-34 76 -63 221q-60 -105 -60 -284q0 -57 11 -116.5t34 -124.5l34 -104l84 -174q20 -42 37 -67l94 -159
q71 -122 87 -159q48 -105 56 -129q-7 -122 -7 -135z" />
    <glyph glyph-name="bullet" unicode="&#x2022;" horiz-adv-x="725" 
d="M363 928q104 0 177.5 -73.5t73.5 -177.5t-73.5 -177.5t-177.5 -73.5t-177.5 73.5t-73.5 177.5t73 177.5t178 73.5z" />
    <glyph glyph-name="paragraph" unicode="&#xb6;" horiz-adv-x="917" 
d="M798 1301v-1743h-72v1743h-187v-1743h-73v1043q-191 8 -285.5 50.5t-144.5 131t-50 198.5t43 180q58 96 154.5 145.5t252.5 49.5h495v-55h-133z" />
    <glyph glyph-name="germandbls" unicode="&#xdf;" horiz-adv-x="1024" 
d="M16 -10l-1 34q37 10 76.5 17.5t61.5 14.5q5 34 5 212q0 20 -2 45t-2 31l2 48q0 176 -5 391q-1 28 -1 51q0 45 3 77q3 24 4 43q19 131 60.5 199.5t130 116.5t195.5 48q91 0 181.5 -45t129 -114t38.5 -145q0 -55 -32 -112.5t-98 -97.5t-145 -58q-13 -3 -19 -7l-2 -4l1 -6
q37 -21 76 -36q111 -45 177.5 -105t92.5 -132q19 -54 19 -164q0 -61 -40.5 -146t-115 -131.5t-152.5 -46.5q-56 0 -95 30q-27 21 -27 50q0 23 16 39.5t45 18.5q21 -3 32.5 -9.5t35.5 -30.5q32 -33 62 -33q19 0 30 11q19 19 35 84q21 86 21 174q0 104 -21.5 166t-80.5 126
q-41 46 -130 91q-53 27 -53 51q0 12 7 19.5t48 23.5q94 38 131 89q36 51 36 134q0 136 -57.5 199.5t-156.5 63.5q-54 0 -97.5 -15t-70.5 -42t-59 -87q-17 -32 -23 -78q-7 -68 -7 -102l6 -285q1 -33 1 -153l-3 -132l5 -170q0 -17 -1 -33q-2 -54 -2 -71q0 -11 6 -28
q16 -5 65 -16t87 -26q3 -11 3 -17l-3 -14q-245 0 -329 -4q-41 -2 -61 -2h-33z" />
    <glyph glyph-name="registered" unicode="&#xae;" horiz-adv-x="1557" 
d="M778 1387q179 0 349 -91.5t265.5 -262t95.5 -355.5q0 -184 -94 -353t-263 -262.5t-353 -93.5t-352.5 93.5t-262.5 262.5t-94 353q0 185 95.5 355.5t265.5 262t348 91.5zM778 1326q-163 0 -318 -84t-242 -239.5t-87 -324.5q0 -168 85.5 -322t239.5 -240t322 -86t322.5 86
t240 240t85.5 322q0 169 -87 324.5t-242 239.5t-319 84zM386 1114h386q145 0 221 -65.5t76 -158.5q0 -76 -51.5 -133.5t-170.5 -88.5l209 -298q38 -53 68 -73q19 -12 53 -15v-33h-184l-294 405h-76v-309q6 -33 28.5 -48t89.5 -15v-33h-367v33q50 0 70.5 13t29.5 39
q4 13 4 86v523q0 74 -3 87q-7 23 -25.5 35.5t-63.5 12.5v36zM623 697h30q133 0 194 52t61 130q0 81 -56.5 136t-144.5 55q-38 0 -84 -16v-357z" />
    <glyph glyph-name="copyright" unicode="&#xa9;" horiz-adv-x="1557" 
d="M778 1387q179 0 349 -91.5t265.5 -262t95.5 -355.5q0 -184 -94 -353t-263 -262.5t-353 -93.5t-352.5 93.5t-262.5 262.5t-94 353q0 185 95.5 355.5t265.5 262t348 91.5zM778 1326q-163 0 -318 -84t-242 -239.5t-87 -324.5q0 -168 85.5 -322t239.5 -240t322 -86t322.5 86
t240 240t85.5 322q0 169 -87 324.5t-242 239.5t-319 84zM1129 1134l20 -280h-39q-36 119 -114.5 177.5t-188.5 58.5q-82 0 -146 -34t-105 -91q-30 -43 -50 -114t-20 -150q0 -212 91 -312.5t240 -100.5q195 0 312 162l37 -19q-139 -203 -383 -203q-200 0 -331.5 129.5
t-131.5 314.5q0 192 140 327.5t358 135.5q46 0 76.5 -6t108.5 -32q25 -8 37 -8q16 0 27 8.5t22 36.5h40z" />
    <glyph glyph-name="trademark" unicode="&#x2122;" horiz-adv-x="2005" 
d="M51 1356h728l22 -201h-34q-10 72 -52.5 106.5t-141.5 34.5h-75v-579q0 -84 20 -106.5t86 -25.5v-36h-374v36q65 6 82.5 27.5t17.5 103.5v580h-76q-95 0 -135 -31.5t-55 -109.5h-34zM1156 1356l273 -572l265 572h279v-37q-71 -2 -91 -25.5t-20 -109.5v-468q0 -85 19 -106
t92 -25v-36h-398v36q59 1 79.5 12t30 32t9.5 86v492l-307 -658h-32l-308 649v-482q0 -64 5 -81q9 -25 28 -37.5t60 -12.5h36v-36h-306v36q56 0 75.5 10t28.5 31t9 90v466q0 89 -19.5 113t-93.5 24v37h286z" />
    <glyph glyph-name="acute" unicode="&#xb4;" horiz-adv-x="683" 
d="M244 984l124 179q54 79 107 114q22 15 48 15q27 0 43 -15t16 -35q0 -19 -14 -40t-67 -57l-235 -161l-11 -1z" />
    <glyph glyph-name="dieresis" unicode="&#xa8;" horiz-adv-x="683" 
d="M477 1140q0 39 25 64t61 25t61 -25t25 -61t-25 -61.5t-61 -25.5q-35 0 -60.5 25t-25.5 59zM133 1140q0 39 25 64t60 25t61 -25.5t26 -61.5t-25.5 -61t-60.5 -25t-60.5 25t-25.5 59z" />
    <glyph glyph-name="notequal" unicode="&#x2260;" horiz-adv-x="1365" 
d="M147 913h602l210 533h74l-204 -533h390v-88h-427l-145 -375h572v-89h-606l-211 -531h-76l210 531h-389v89h423l147 375h-570v88z" />
    <glyph glyph-name="AE" unicode="&#xc6;" horiz-adv-x="1749" 
d="M645 1234q-21 3 -82 7l-109 7q-15 4 -18 24q7 8 12 8q38 6 108 6q7 0 16 -1q72 -3 106 -3l344 -1l11 -2q7 -1 24 -1l259 2q172 0 245 -9q8 -40 8 -177q0 -59 -4 -103l-24 2q-9 17 -26 60q-46 122 -88 157q-24 20 -76 22q-214 7 -264 7q-57 0 -92 -3.5t-49 -11.5
q-6 -108 -6 -170q0 -23 4 -146l5 -231q56 5 79 6l196 2l58 -1q22 0 59 5q41 84 54 182l13 1q5 0 16 -1q2 -56 2 -78q0 -26 -3.5 -97.5t-3.5 -93.5q0 -15 3 -101l3 -89l-15 -1q-8 0 -23 1q-15 138 -29 171t-33 42q-28 12 -146 12q-143 0 -229 -8l-1 -56q0 -358 4 -445
q2 -56 16 -67q23 -18 174 -18q236 0 303 20q50 16 96 68t126 217l29 1q-2 -45 -23 -177t-34 -180q-11 -2 -16 -2q-22 0 -82 6l-71 5l-439 -5l-498 -6l-2 25q46 15 137.5 22t103.5 26.5t12 317.5q0 142 -6 244q-65 5 -215 5q-88 0 -170 -12q-8 -8 -14 -21q-56 -128 -125 -272
q-98 -207 -98 -250q0 -9 5 -14t19 -7q29 -4 74 -9q64 -7 115 -23q9 -12 9 -19l-5 -12q-152 13 -268 13q-167 -9 -182 -9q-29 0 -46 9q-5 3 -5 8q0 6 7 10q9 7 30 7q62 3 116 27q19 9 36 30q39 49 177 331l296 587zM429 670l322 7h28l1 31l-1 272q0 13 2 54q3 58 3 104
q0 67 -10.5 81t-40.5 14q-14 0 -24 -8q-18 -15 -98 -174q-168 -336 -179 -359q-5 -9 -5 -14z" />
    <glyph glyph-name="Oslash" unicode="&#xd8;" horiz-adv-x="1600" 
d="M346 118q-99 91 -128 132q-66 94 -91 175q-33 107 -33 220q0 103 30 194q23 67 81 160.5t143.5 155t233.5 108.5q91 29 244 29q209 0 404 -116l133 159q18 -13 41 -35l-131 -158q229 -199 229 -490q0 -132 -25.5 -219t-85.5 -172q-47 -66 -161 -152q-76 -58 -189 -93.5
t-244 -35.5q-240 0 -408 105l-122 -147l-42 34zM419 204l748 897q-154 154 -368 154q-91 0 -178 -30t-143 -76.5t-104 -132t-73 -188.5t-25 -182q0 -102 33.5 -221t109.5 -221zM1203 1059l-749 -897q69 -71 132 -100q99 -45 209 -45q78 0 170 24.5t161 79.5t107.5 124
t62.5 177t24 217q0 125 -35 252q-27 95 -82 168z" />
    <glyph glyph-name="infinity" unicode="&#x221e;" 
d="M649 779q68 156 149 216t221 60q161 0 272 -116t111 -301q0 -183 -108 -301t-241 -118q-89 0 -161.5 55t-175.5 231q-64 -124 -140 -178.5t-184 -54.5q-144 0 -243.5 103t-99.5 266q0 164 92 265t215 101q92 0 156.5 -47.5t136.5 -180.5zM745 576q71 -149 143.5 -206.5
t168.5 -57.5q123 0 205.5 89t82.5 238q0 147 -87 243t-195 96q-69 0 -120.5 -35.5t-93.5 -112.5q-24 -45 -104 -254zM620 702q-49 110 -112 162t-155 52q-106 0 -177.5 -74.5t-71.5 -199.5q0 -133 70.5 -212.5t159.5 -79.5q95 0 168 85q47 56 118 267z" />
    <glyph glyph-name="plusminus" unicode="&#xb1;" horiz-adv-x="1365" 
d="M145 859h492v494h88v-494h495v-88h-495v-492h-88v492h-492v88zM145 52h1075v-89h-1075v89z" />
    <glyph glyph-name="lessequal" unicode="&#x2264;" horiz-adv-x="1365" 
d="M1218 369l-1071 455v79l1071 453v-96l-955 -396l955 -398v-97zM146 48h1074v-89h-1074v89z" />
    <glyph glyph-name="greaterequal" unicode="&#x2265;" horiz-adv-x="1365" 
d="M147 1356l1071 -455v-79l-1071 -453v96l955 396l-955 398v97zM146 48h1074v-89h-1074v89z" />
    <glyph glyph-name="yen" unicode="&#xa5;" horiz-adv-x="1344" 
d="M606 345l1 45q0 94 -5 113t-31 62q-291 0 -438 -3v40q60 3 409 6l-60 92q-29 47 -56 85l-223 325q-58 85 -101 114q-19 13 -95 20q-8 0 -24 2l-3 43h48q26 0 114 -3q136 -6 226 -6l117 2q25 0 48 -4q7 -8 7 -17v-11l-25 -12h-11l-56 -1l-29 1q-34 0 -55 -15
q-16 -11 -16 -23q0 -13 14 -33q5 -8 16 -24q20 -34 53 -79q47 -66 100 -156q21 -36 44 -69l152 -230q15 19 41 56l144 207l166 249q22 34 26 50q2 8 2 17q0 21 -19 34q-31 21 -134 31q-7 1 -19 3q-7 12 -7 20q0 6 1 13l52 1l188 -5l151 3q6 0 42 -1l-3 -35q-7 -2 -22 -3
l-24 -3q-6 -1 -19 -2q-20 -8 -33 -16q-147 -156 -244 -286t-180 -259q-14 -21 -51 -74l269 -4l119 1q19 0 38 -4v-40q-228 1 -357 4l-87 2q-10 -69 -10 -125l1 -98q315 0 453 -1v-40q-158 -5 -236 -5l-217 2q1 -215 21 -238q14 -15 212 -35v-12q0 -12 -7 -29l-256 11
l-171 -9h-140q-20 0 -44 1q-4 11 -4 16t3 14q7 6 14 7l129 20q64 21 74 29t14 27q3 15 3 121v78l-473 2v40q53 -3 59 -3z" />
    <glyph glyph-name="mu1" unicode="&#xb5;" horiz-adv-x="1024" 
d="M109 785h135v-479q0 -116 32 -162q43 -63 135 -63q53 0 104.5 26t148.5 117v561h132v-505q0 -143 23 -178.5t61 -35.5q30 0 52 23t43 111h43q-9 -109 -49 -159q-57 -73 -144 -73q-65 0 -107.5 43.5t-53.5 151.5q-88 -95 -168.5 -143t-153.5 -48q-68 0 -111 30.5t-72 91.5
v-40q0 -117 8 -202q2 -22 19 -83q22 -81 22 -115q0 -44 -24 -70.5t-55 -26.5q-32 0 -57 26.5t-25 68.5q0 31 21 110q16 60 21 95q12 98 16 202l4 301v425z" />
    <glyph glyph-name="partialdiff" unicode="&#x2202;" horiz-adv-x="1003" 
d="M925 717q12 113 12 186q0 180 -94.5 278.5t-251.5 98.5q-106 0 -176 -40t-125 -119h-46q77 158 166 229.5t215 71.5q90 0 175.5 -49t138 -158t52.5 -295q0 -354 -154 -636q-173 -315 -438 -315q-156 0 -247.5 90t-91.5 245q0 117 46.5 229.5t117.5 190.5t158 124
q113 60 230 60q82 0 148.5 -31.5t109.5 -76.5q27 -28 55 -83zM908 628q-39 111 -116.5 168t-170.5 57q-90 0 -177 -62t-151 -217.5t-64 -310.5q0 -114 55 -175.5t140 -61.5q123 0 251 130q163 166 233 472z" />
    <glyph glyph-name="summation" unicode="&#x2211;" horiz-adv-x="1460" 
d="M1356 -528h-1313v36l671 901l-671 892v38h1278l27 -337h-40q-16 137 -77.5 196.5t-171.5 59.5h-740l562 -760l-629 -850h818q70 0 153 27q57 19 94.5 67.5t62.5 151.5l40 -7z" />
    <glyph glyph-name="product" unicode="&#x220f;" horiz-adv-x="1685" 
d="M1240 1260h-795v-1596q0 -83 37 -119t125 -36h36v-37h-597v37h35q88 0 125.5 36t37.5 119v1482q0 83 -37 119t-126 36h-35v38h1594v-38h-35q-88 0 -125 -35.5t-37 -119.5v-1482q0 -83 37 -119t125 -36h35v-37h-597v37h35q88 0 125 36t37 119v1596z" />
    <glyph glyph-name="uniF006" unicode="&#xf006;" horiz-adv-x="1088" 
d="M1006 916v-146h-232q-17 -104 -28 -240.5t-11 -217.5q0 -90 35.5 -131.5t89.5 -41.5q44 0 74 28t36 83h36q-18 -150 -76 -214t-130 -64q-74 0 -124.5 69.5t-50.5 276.5q0 91 11 204q17 183 27 248h-235l-22 -305q-26 -239 -63 -369q-20 -72 -62 -107q-19 -17 -47 -17
q-39 0 -64.5 24.5t-25.5 58.5q0 28 10 52q6 15 55 83q33 45 51 97t33 168q3 22 24 315h-29q-70 0 -114 -28t-94 -113h-36q32 120 81 185t95 83.5t148 18.5h638z" />
    <glyph glyph-name="integral" unicode="&#x222b;" horiz-adv-x="555" 
d="M197 895l18 582q6 105 27 186.5t50 122.5q21 30 61.5 53.5t78.5 23.5q50 0 87.5 -33.5t37.5 -73.5q0 -47 -26.5 -75.5t-65.5 -28.5q-35 0 -76 36q-23 20 -40 20t-28.5 -14.5t-11.5 -49.5q0 -41 9 -145q37 -411 37 -663q0 -70 -14 -524q-5 -167 -20 -259
q-20 -122 -52 -175.5t-70.5 -75.5t-83.5 -22q-52 0 -85 34t-33 87q0 45 25.5 72t64.5 27q40 0 69 -32t49 -32q17 0 28 14t11 47q0 42 -9 120q-17 143 -26 338q-12 249 -12 440z" />
    <glyph glyph-name="ordfeminine" unicode="&#xaa;" horiz-adv-x="533" 
d="M536 877l5 -11q0 -5 -18 -34t-50 -48q-18 -10 -53 -10q-40 0 -64.5 18.5t-31.5 53.5q-60 -42 -106 -58q-33 -12 -96 -12q-37 0 -59 20.5t-22 50.5q0 32 25 66q39 55 103 93q40 24 157 70q2 19 2 42q0 71 -20 97t-52 26q-44 0 -79 -29q-22 -18 -36 -77q-3 -14 -11 -27
l-4 -7q-34 -20 -55 -20q-22 0 -35 9q-9 7 -9 17q0 15 34 69t92 85t120 31q70 0 106 -25.5t48 -63.5q5 -17 5 -99q0 -21 -2 -102v-63q1 -14 0 -30.5t-1 -26.5q0 -17 9 -26.5t22 -9.5q14 0 31 20q10 13 20 19zM320 895q5 95 5 126l-1 13q-167 -76 -167 -152q0 -21 13.5 -35
t32.5 -14q22 0 51 15.5t66 46.5z" />
    <glyph glyph-name="ordmasculine" unicode="&#xba;" horiz-adv-x="683" 
d="M37 1028q0 109 83.5 186.5t227.5 77.5q130 0 213.5 -80.5t83.5 -187.5q0 -96 -87.5 -174.5t-227.5 -78.5q-128 0 -210.5 78.5t-82.5 178.5zM333 807q82 0 134.5 58t52.5 166q0 46 -20.5 105.5t-60.5 89.5t-97 30q-82 0 -131.5 -56.5t-49.5 -176.5q0 -105 49.5 -160.5
t122.5 -55.5z" />
    <glyph glyph-name="Ohm" unicode="&#x2126;" horiz-adv-x="1515" 
d="M57 313h36q5 -72 51 -105q30 -22 112 -22h270v67q-144 29 -268 145q-166 155 -166 399q0 245 185.5 417.5t483.5 172.5t480.5 -170t182.5 -417q0 -200 -113.5 -344.5t-322.5 -202.5v-67h275q79 0 115.5 28t42.5 99h36v-313h-559l22 302q116 37 187 150t71 327
q0 254 -124.5 393.5t-297.5 139.5q-108 0 -204 -58.5t-155.5 -180.5t-59.5 -280q0 -116 28 -224.5t83.5 -170.5t144.5 -96l23 -302h-559v313z" />
    <glyph glyph-name="ae" unicode="&#xe6;" horiz-adv-x="1195" 
d="M613 706q39 42 109.5 77t131.5 35q121 0 202.5 -82t82.5 -205l-417 4q-48 0 -87 -5q-4 -32 -4 -170q0 -100 28.5 -156.5t98.5 -103.5q46 -30 120 -30q62 0 110.5 19.5t111.5 71.5l38 32q11 -15 11 -29t-3 -31q-44 -48 -101 -90q-41 -29 -124 -56q-53 -17 -132 -17
q-58 0 -131 36t-142 130q-100 -85 -120 -99q-50 -35 -103 -54q-39 -15 -80 -15q-52 0 -88 34t-36 73q0 48 13.5 86t40.5 71.5t71 65.5q23 17 170 102q62 36 119 63l5 46v89q1 76 -45 129q-33 38 -95 38q-49 0 -89 -37q-41 -37 -57 -110.5t-32 -98.5q-9 -13 -38 -25l-48 -18
q-12 0 -21 9.5t-9 24.5q0 24 35 97t82.5 118t100 68.5t103.5 23.5q72 0 121.5 -26t96.5 -85zM641 578q28 -3 34 -3l79 3q13 0 55 -1.5t99 -1.5q55 0 74 13.5t19 34.5q0 55 -47.5 102.5t-110.5 47.5q-78 0 -140.5 -63.5t-62.5 -124.5zM503 198q1 24 1 29l-1 92v66q0 5 -1 29
q-53 -20 -140 -76t-113.5 -96t-26.5 -83q0 -40 28.5 -69t66.5 -29q25 0 59.5 19.5t89.5 68.5q23 21 37 49z" />
    <glyph glyph-name="oslash" unicode="&#xf8;" horiz-adv-x="1045" 
d="M793 744q26 24 90 101q19 -14 29 -27l-83 -100l91 -118q26 -44 43 -111q13 -50 13 -136q0 -26 -27 -103q-12 -35 -55.5 -93t-101 -100t-132.5 -62.5t-143 -20.5q-81 0 -135.5 17t-126.5 62q-17 -19 -33 -38t-54 -63q-13 9 -29 24l3 5q70 80 81 96q-76 76 -110.5 151.5
t-34.5 167.5q0 107 42.5 189t105.5 135t135 76t191 23q69 0 116 -14q61 -19 125 -61zM282 154l455 521q-18 30 -51 55.5t-71 36.5q-51 16 -83 16q-54 0 -125 -27q-46 -17 -88 -63.5t-64.5 -123.5t-22.5 -206q0 -123 50 -209zM634 39q89 31 145 145q32 67 42 224l-17 114
q-8 21 -14 46q-8 35 -13 44t-21 23l-447 -522q35 -47 88 -73t117 -26q54 0 120 25z" />
    <glyph glyph-name="questiondown" unicode="&#xbf;" horiz-adv-x="747" 
d="M496 629q-13 -2 -21 -2q-36 0 -66.5 32.5t-30.5 75.5q0 47 27.5 74t73.5 27q38 0 75 -36q26 -24 26 -67q0 -37 -23 -66q-15 -18 -61 -38zM462 491h40l7 -14q13 -111 22 -218q2 -14 6 -54q1 -13 1 -21q0 -17 -12 -24q-27 -14 -127 -16q-15 -2 -63 -7q-63 -6 -94 -17
q-44 -16 -81 -49q-18 -16 -37 -57t-19 -97q0 -35 12 -73q20 -62 42 -95t58 -63q14 -12 68 -47q45 -20 72 -20q14 0 78 10l24 6q51 16 90 16q28 0 49 -20.5t21 -49.5q0 -30 -15 -47t-55 -26.5t-69 -9.5q-47 0 -120.5 26.5t-158 103.5t-126.5 177t-42 207q0 33 20 89
q7 21 38 70q19 31 53 59q27 21 71 36q29 9 108 21t92 19q22 12 32 34q14 30 15 117v34z" />
    <glyph glyph-name="exclamdown" unicode="&#xa1;" horiz-adv-x="448" 
d="M121 729q0 34 38 77q27 30 60 30q40 0 69 -30q38 -39 38 -73q0 -20 -16 -52q-12 -24 -38 -38t-52 -14q-38 0 -68.5 31t-30.5 69zM208 522q9 1 14 1q8 0 23 -3q1 -23 5 -149l6 -150q0 -5 1 -10q12 -115 18.5 -223.5t36.5 -287.5q3 -52 3 -67l1 -38q-3 -38 -27 -62.5
t-55 -24.5q-41 0 -69 27.5t-28 71.5q0 19 3 43l5 50l1 14l39 361l17 352q1 62 6 95z" />
    <glyph glyph-name="logicalnot" unicode="&#xac;" horiz-adv-x="1365" 
d="M146 945h1074v-576h-87v487h-987v89z" />
    <glyph glyph-name="radical" unicode="&#x221a;" horiz-adv-x="1131" 
d="M1053 1869h74l-312 -1947l-496 1021l-198 -91l-34 64l301 151l405 -823z" />
    <glyph glyph-name="florin" unicode="&#x192;" horiz-adv-x="1259" 
d="M25 -384q20 9 31 9q33 0 59 -46q11 -20 22 -33q25 -25 54 -25q42 0 104 48q52 55 97.5 157.5t80.5 220.5l98 337q9 31 18 68l66 236q27 90 41 127q-19 1 -28 1q-6 0 -31 -1.5t-118 -1.5q3 28 6 50q21 2 45 3l145 5q44 147 100 276q35 77 100 155q50 59 119 95
q33 18 85 18q64 0 103 -34.5t39 -71.5q0 -24 -16 -41.5t-36 -17.5q-26 0 -46.5 17t-29.5 53q-7 26 -19 37q-13 10 -34 10q-20 0 -35 -8q-31 -16 -68 -61q-26 -33 -55.5 -97t-64 -182.5t-38.5 -146.5l26 -2l93 2q8 0 33 -2q1 -9 1 -14q0 -15 -6 -37l-165 -6l-33 -112
l-84 -302q-7 -24 -12 -39q-18 -47 -22 -71l-74 -237q-49 -137 -97.5 -226t-120.5 -160q-53 -51 -112 -75q-38 -16 -99 -16q-84 0 -116.5 26.5t-32.5 63.5q0 35 27 51z" />
    <glyph glyph-name="approxequal" unicode="&#x2248;" horiz-adv-x="1365" 
d="M1171 1028h48q-3 -135 -74.5 -211.5t-174.5 -76.5q-49 0 -102.5 15.5t-272.5 105.5q-153 63 -217 63q-70 0 -117.5 -43t-66.5 -139h-47q7 142 76 215t164 73q47 0 95 -14q101 -30 269 -102t237 -72q74 0 124 48t59 138zM1171 532h48q-3 -134 -74.5 -210.5t-174.5 -76.5
q-49 0 -102.5 15.5t-272.5 105.5q-153 62 -217 62q-70 0 -117.5 -43t-66.5 -139h-47q7 142 76 215t163 73q47 0 94 -13q103 -30 271.5 -102t236.5 -72q74 0 124 47.5t59 137.5z" />
    <glyph glyph-name="Delta" unicode="&#x2206;" horiz-adv-x="1259" 
d="M1229 0h-1200l628 1387zM993 82l-399 967l-440 -967h839z" />
    <glyph glyph-name="guillemotleft" unicode="&#xab;" horiz-adv-x="747" 
d="M374 401q47 71 104 145q34 44 135 170q34 42 73 82l62 2q-8 -15 -34 -58q-69 -110 -188 -336q9 -18 37 -65q38 -62 63 -114q10 -18 41 -68q13 -21 43 -80q32 -50 39 -64l-53 -4zM322 799l58 -1q-50 -86 -103 -186l-111 -207q32 -68 123 -212l54 -93q34 -56 49 -88l-50 -1
q-13 13 -29 35q-22 31 -177 208q-41 47 -56 67.5t-27 32.5q-34 34 -41 49q57 80 89 121q100 130 159 202q45 55 62 73z" />
    <glyph glyph-name="guillemotright" unicode="&#xbb;" horiz-adv-x="747" 
d="M1 11q76 120 150 258q46 86 74 135q-7 14 -39.5 68t-48 85.5t-46.5 82.5q-22 36 -49 91q-31 48 -41 68h57l90 -110q80 -97 204 -253l24 -32q-63 -87 -91 -124l-149 -183q-36 -44 -78 -86h-57zM363 799h46l62 -78l167 -192q21 -26 42 -56q49 -56 59 -69l-186 -238
q-94 -121 -128 -155h-62q9 15 32 53l91 163q54 91 90 159q2 5 8 18q-30 62 -89 160.5t-132 234.5z" />
    <glyph glyph-name="ellipsis" unicode="&#x2026;" horiz-adv-x="2048" 
d="M1600 89q0 46 31 77t76 31t76 -31.5t31 -75.5q0 -45 -31 -76t-76 -31q-44 0 -75.5 31t-31.5 75zM341 197q46 0 77.5 -31.5t31.5 -75.5t-32 -75.5t-77 -31.5q-44 0 -75.5 31.5t-31.5 75.5t31.5 75.5t75.5 31.5zM921 89q0 44 31.5 75.5t75.5 31.5q45 0 76.5 -31.5
t31.5 -75.5q0 -45 -32 -76.5t-76 -31.5t-75.5 32t-31.5 76z" />
    <glyph glyph-name="nonbreakingspace" unicode="&#xa0;" horiz-adv-x="512" 
 />
    <glyph glyph-name="Agrave" unicode="&#xc0;" horiz-adv-x="1387" 
d="M-11 32q14 8 25 8h23q7 0 24 1q77 7 91 14q35 19 60 66q52 102 117 289q31 89 39 108q25 60 48 126l94 263q22 62 106 284q21 56 51 150l29 2l35 -1q43 -85 76 -183q18 -52 59 -155l152 -411l81 -223q64 -190 84 -233.5t37 -57.5q5 -4 37.5 -12t45.5 -12q46 -13 64 -22
q4 -11 4 -17q0 -5 -3 -15q-32 -1 -45 -1q-51 0 -180 3l-100 3l-121 -2q-12 0 -24.5 1.5t-21.5 1.5h-22q-11 1 -20 6q0 14 5 27q12 6 22 7l105 7q41 2 62 11q6 18 6 27q0 18 -26 93q-18 50 -31.5 95t-106.5 296q-41 7 -72 7l-214 -2l-63 1q-34 0 -75 -5q-13 -30 -17 -43
l-88 -275q-56 -157 -56 -173q0 -9 9 -30q21 -6 56 -11l136 -12q11 -9 11 -16q0 -5 -3 -15q-45 -1 -69 -1q-80 0 -186 5q-49 2 -70 2t-73 -2q-34 -2 -49 -2q-24 0 -62 3v6q0 7 4 19zM466 632q107 -6 244 -6q78 0 137 5q-10 39 -23 73q-65 174 -72 192l-91 231l-10 18
q-6 -12 -44 -103q-64 -156 -92 -243q-13 -39 -27 -77.5t-17.5 -54t-10.5 -31.5zM847 1406l-17 -1q-15 10 -199 134q-88 60 -104 83.5t-16 41.5q0 20 16 35.5t37 15.5q36 0 78.5 -35t130.5 -166q23 -34 38 -54q26 -34 36 -54z" />
    <glyph glyph-name="Atilde" unicode="&#xc3;" horiz-adv-x="1387" 
d="M-11 32q14 8 25 8h23q7 0 24 1q77 7 91 14q35 19 60 66q52 102 117 289q31 89 39 108q25 60 48 126l94 263q22 62 106 284q21 56 51 150l29 2l35 -1q43 -85 76 -183q18 -52 59 -155l152 -411l81 -223q64 -190 84 -233.5t37 -57.5q5 -4 37.5 -12t45.5 -12q46 -13 64 -22
q4 -11 4 -17q0 -5 -3 -15q-32 -1 -45 -1q-51 0 -180 3l-100 3l-121 -2q-12 0 -24.5 1.5t-21.5 1.5h-22q-11 1 -20 6q0 14 5 27q12 6 22 7l105 7q41 2 62 11q6 18 6 27q0 18 -26 93q-18 50 -31.5 95t-106.5 296q-41 7 -72 7l-214 -2l-63 1q-34 0 -75 -5q-13 -30 -17 -43
l-88 -275q-56 -157 -56 -173q0 -9 9 -30q21 -6 56 -11l136 -12q11 -9 11 -16q0 -5 -3 -15q-45 -1 -69 -1q-80 0 -186 5q-49 2 -70 2t-73 -2q-34 -2 -49 -2q-24 0 -62 3v6q0 7 4 19zM466 632q107 -6 244 -6q78 0 137 5q-10 39 -23 73q-65 174 -72 192l-91 231l-10 18
q-6 -12 -44 -103q-64 -156 -92 -243q-13 -39 -27 -77.5t-17.5 -54t-10.5 -31.5zM983 1608h29q1 -11 1 -16q0 -86 -47.5 -137t-117.5 -51q-35 0 -74 15q-26 9 -81 46.5t-77 45.5q-31 13 -56 13q-34 0 -56.5 -24t-33.5 -94h-28q-2 6 -2 11q0 67 41 129t125 62q35 0 66.5 -12
t90.5 -51q89 -58 132 -58q31 0 54.5 25t33.5 96z" />
    <glyph glyph-name="Otilde" unicode="&#xd5;" horiz-adv-x="1600" 
d="M94 639q0 102 24.5 181.5t82.5 172.5t140 155.5t227 110.5q102 33 258 33q105 0 205.5 -28t182.5 -78t164 -154q57 -72 86 -155q38 -109 38 -225q0 -132 -25.5 -219t-85.5 -172q-47 -66 -161 -152q-76 -58 -189 -93.5t-244 -35.5q-133 0 -237 31t-173.5 75.5t-143 131.5
t-111.5 192t-38 229zM788 17q84 0 174.5 23.5t160.5 78t109.5 124t63.5 178.5t24 218q0 136 -40 269q-31 101 -101 180.5t-169 123t-211 43.5q-91 0 -178 -30t-143 -76.5t-104 -132t-73 -188.5t-25 -182q0 -83 25 -188t68.5 -182t107 -136.5t142.5 -91t169 -31.5zM1090 1608
h29q1 -11 1 -16q0 -86 -47.5 -137t-117.5 -51q-35 0 -74 15q-26 9 -81 46.5t-77 45.5q-31 13 -56 13q-34 0 -56.5 -24t-33.5 -94h-28q-2 6 -2 11q0 67 41 129t125 62q35 0 66.5 -12t90.5 -51q89 -58 132 -58q31 0 54.5 25t33.5 96z" />
    <glyph glyph-name="OE" unicode="&#x152;" horiz-adv-x="1920" 
d="M1783 1276q1 -8 5 -96q4 -126 4 -148v-29h-29q-84 192 -96 206q-17 19 -63 19q-20 0 -54 3q-85 6 -128 6q-200 0 -233 -22q-21 -14 -21 -87v-264l-1 -141l2 -31q19 -8 37 -8l255 1q17 0 46 -1q17 -1 29 -1q47 0 75.5 34.5t45.5 171.5h16q7 0 22 1v-21q0 -12 -2.5 -50
t-4.5 -200l-3 -216l-35 7q-7 102 -16 141.5t-27 58t-43 25.5l-71 4q-9 1 -41 1q-20 1 -53 2q-47 2 -67 2q-93 0 -160 -8q-4 -157 -4 -286q0 -218 10 -252q7 -25 29 -36q37 -17 159 -17q153 0 218 8q34 4 71 19q5 3 17 7q49 35 84 83q22 30 83 173h24q-1 -34 -11 -126
t-18 -132t-9 -51q-1 -17 -9 -32q-20 -2 -31 -2q-12 0 -41 3q-42 4 -56 4l-397 6l-129 -1l-172 1q-91 1 -248 -20l-65 -2q-77 0 -159 27q-111 36 -176 86q-85 64 -137 139t-81 170t-29 192q0 151 51 282t145 229.5t194.5 139.5t203.5 41q101 0 132 -2q19 -2 124 -15l274 -2
l341 8q42 1 92 1q70 0 131 -3zM713 24q111 0 194 52q63 40 83 115q14 50 14 319q0 531 -8 589.5t-64 98.5q-77 53 -193 53q-84 0 -145.5 -22.5t-130.5 -77.5q-47 -37 -86.5 -113t-62.5 -201q-11 -60 -11 -164q0 -202 17 -275q27 -122 95 -218q49 -70 132 -113t166 -43z" />
    <glyph glyph-name="oe" unicode="&#x153;" horiz-adv-x="1429" 
d="M771 706q12 9 27 21q114 93 236 93q124 0 220.5 -89t109.5 -217q-43 -4 -102 -4q-120 0 -204 8l-213 -3q-5 -32 -5 -134q0 -144 23 -201.5t76 -92.5q64 -32 121 -32q129 0 238 88l35 28l15 -23v-7q0 -7 -4 -14q-7 -10 -50.5 -50t-74.5 -58q-50 -28 -106.5 -40t-96.5 -12
q-70 0 -130.5 29t-132.5 97q-93 -75 -149 -98.5t-139 -23.5q-156 0 -271.5 121t-115.5 286q0 75 26 163q17 59 40 91q54 72 98 108q31 25 85 45q94 35 171 35q161 0 273 -114zM232 419q0 -215 85 -324q60 -78 174 -78q86 0 141 60q84 89 84 303q0 202 -66.5 299.5
t-180.5 97.5q-101 0 -169 -82t-68 -276zM854 568q53 -3 114 -3q150 0 196 6q19 3 34 22.5t15 42.5q0 31 -25 66t-62 51q-51 23 -97 23q-35 0 -76 -23t-65.5 -63.5t-30.5 -81.5l-4 -23l-2 -9z" />
    <glyph glyph-name="endash" unicode="&#x2013;" horiz-adv-x="1024" 
d="M-12 438h1048v-93h-1048v93z" />
    <glyph glyph-name="emdash" unicode="&#x2014;" horiz-adv-x="2048" 
d="M-12 438h2072v-93h-2072v93z" />
    <glyph glyph-name="quotedblleft" unicode="&#x201c;" horiz-adv-x="917" 
d="M380 1301q8 -18 8 -27q0 -5 -4 -16q-88 -44 -113 -65q-53 -42 -78 -85q-17 -30 -17 -62q0 -31 16 -51q10 -14 24 -14q5 0 51 3q5 1 11 1q37 0 61 -23.5t24 -60.5q0 -39 -30.5 -67.5t-71.5 -28.5q-42 0 -81.5 21t-65 67t-25.5 92q0 66 37 134.5t94 103.5q96 58 160 78z
M857 1299q1 -12 1 -22q0 -8 -4 -21q-112 -52 -159.5 -109t-47.5 -106q0 -16 6 -30.5t18 -27.5q16 -5 23 -5q5 0 27 5q12 3 26 3q41 0 63.5 -21.5t22.5 -58.5q0 -44 -28.5 -73.5t-71.5 -29.5q-72 0 -121 50.5t-49 143.5q0 68 47 138.5t117 110.5q97 54 125 54z" />
    <glyph glyph-name="quotedblright" unicode="&#x201d;" horiz-adv-x="917" 
d="M558 857l114 84q35 32 54 67.5t19 74.5q0 31 -13 48q-9 12 -24 12q-7 0 -18 -1q-21 -1 -42 -1q-18 0 -33 5.5t-28 16.5q-20 32 -20 63q0 41 26.5 66t66.5 25q80 0 132.5 -51t52.5 -124q0 -62 -26.5 -119.5t-106.5 -124.5q-50 -41 -145 -87zM72 857q115 80 161 141
q26 35 26 81q0 31 -14 51q-11 15 -24 15q-5 0 -43 -7q-7 -1 -15 -1q-34 0 -57.5 24.5t-23.5 60.5q0 39 27.5 66t77.5 27q73 0 123.5 -50.5t50.5 -127.5q0 -55 -30 -117.5t-105 -122t-144 -86.5z" />
    <glyph glyph-name="quoteleft" unicode="&#x2018;" horiz-adv-x="448" 
d="M403 1304q5 -17 5 -26l-2 -13q-15 -9 -41 -21q-84 -37 -126 -94.5t-42 -103.5q0 -25 15 -42q15 -18 35 -18q7 0 14 1q44 6 50 6q28 0 52.5 -25.5t24.5 -58.5q0 -40 -34.5 -71.5t-87.5 -31.5q-58 0 -102 51q-59 67 -59 140q0 39 23 96t82 114q45 43 117 76q51 23 68 23z
" />
    <glyph glyph-name="quoteright" unicode="&#x2019;" horiz-adv-x="448" 
d="M107 806l-5 46q64 31 100 61t75 99q14 24 14 50q0 31 -16 51t-32 20l-63 -3q-26 0 -49.5 24.5t-23.5 56.5q0 36 25 57q41 35 79 35q76 0 130.5 -53t54.5 -126q0 -120 -111.5 -218t-177.5 -100z" />
    <glyph glyph-name="divide" unicode="&#xf7;" horiz-adv-x="1124" 
d="M562 1075q36 0 61.5 -25.5t25.5 -61.5t-25.5 -61.5t-62.5 -25.5q-36 0 -61.5 25.5t-25.5 61.5t25.5 61.5t62.5 25.5zM1101 640h-1078v82h1078v-82zM562 455q37 0 62.5 -26t25.5 -62t-26 -62t-62 -26t-62 26t-26 62t25.5 62t62.5 26z" />
    <glyph glyph-name="lozenge" unicode="&#x25ca;" horiz-adv-x="1012" 
d="M549 1422l418 -713l-418 -709h-111l-391 709l391 713h111zM495 1325l-340 -616l340 -615l359 615z" />
    <glyph glyph-name="ydieresis" unicode="&#xff;" horiz-adv-x="853" 
d="M12 788q22 2 37 2h48l65 2l85 -3l69 2q55 0 99 -7q4 -10 4 -16l-1 -8q-21 -10 -65 -14q-62 -5 -89 -22l-2 -11q0 -10 8 -30q5 -12 13 -36q22 -74 95 -286q53 -153 98 -263q28 60 64 152l85 237q28 78 43 156q6 31 6 49q0 15 -13 28t-52 22q-71 18 -77 22.5t-7 19.5
q6 5 14 8h62l67 -1l100 1l64 -1l16 1q7 0 23 -2q10 -5 10 -16q0 -10 -9 -18l-20 -3q-58 -8 -89 -30q-17 -12 -29 -50q-4 -14 -13 -36q-5 -12 -14.5 -40t-24.5 -66l-12 -28l-1 -5l-170 -448l-124 -337q-12 -25 -28 -62q-38 -71 -45 -78q-30 -37 -52 -52l-51 -22
q-15 -4 -32 -4q-45 0 -66 19.5t-21 53.5q0 32 31 58q10 3 20 8l13 3q89 -16 111 -16q21 11 31 26q49 73 84 163t35 121q0 34 -26 99l-111 294q-23 57 -137 372q-7 20 -18 30l-68 25l-21 4q-17 7 -17 20zM542 1140q0 39 25 64t61 25t61 -25t25 -61t-25 -61.5t-61 -25.5
q-35 0 -60.5 25t-25.5 59zM198 1140q0 39 25 64t60 25t61 -25.5t26 -61.5t-25.5 -61t-60.5 -25t-60.5 25t-25.5 59z" />
    <glyph glyph-name="Ydieresis" unicode="&#x178;" horiz-adv-x="1344" 
d="M-20 1289h48q26 0 114 -3q136 -6 226 -6l117 2q25 0 48 -4q7 -8 7 -17v-11l-25 -12h-11l-56 -1l-29 1q-34 0 -55 -15q-16 -11 -16 -23q0 -13 14 -33q5 -8 16 -24q20 -34 53 -79q47 -66 100 -156q21 -36 44 -69l152 -230q15 19 41 56l144 207l166 249q22 34 26 50
q2 8 2 17q0 21 -19 34q-31 21 -134 31q-7 1 -19 3q-7 12 -7 20q0 6 1 13l52 1l188 -5l151 3q6 0 42 -1l-3 -35q-7 -2 -22 -3l-24 -3q-6 -1 -19 -2q-21 -8 -33 -17q-147 -155 -250 -293t-174 -251q-23 -37 -37 -55q-26 -34 -31 -50q-11 -39 -11 -118q0 -311 11 -367
q6 -28 16 -34q26 -13 207 -31v-12q0 -12 -7 -29l-256 11l-171 -9h-140q-20 0 -44 1q-4 11 -4 16t3 14q7 6 14 7l129 20q67 22 75 30q12 12 15 37q1 18 1 278q0 97 -6.5 118.5t-42.5 75.5l-131 199l-223 325q-58 85 -101 114q-19 13 -95 20q-8 0 -24 2zM808 1490q0 39 25 64
t61 25t61 -25t25 -61t-25 -61.5t-61 -25.5q-35 0 -60.5 25t-25.5 59zM464 1490q0 39 25 64t60 25t61 -25.5t26 -61.5t-25.5 -61t-60.5 -25t-60.5 25t-25.5 59z" />
    <glyph glyph-name="fraction" unicode="&#x2215;" horiz-adv-x="384" 
d="M-284 -67q8 19 20.5 37t31.5 50q7 11 74.5 112.5t91.5 142.5q448 758 648 1029l10 1q47 -3 53 -3l-437 -685l-199 -329l-230 -353h-7q-5 0 -48 -2h-8z" />
    <glyph glyph-name="currency" unicode="&#xa4;" horiz-adv-x="1387" 
d="M958 1011l126 126l73 -76l-125 -125q51 -72 73.5 -136t22.5 -143q0 -77 -22.5 -140t-73.5 -135l125 -125l-73 -74l-126 125q-70 -51 -135 -74t-144 -23q-78 0 -142 23t-134 73l-126 -124l-75 74l126 124q-52 72 -74 136t-22 143q0 77 22 140t74 137l-126 124l74 76
l126 -125q75 52 137.5 73.5t139.5 21.5q78 0 141.5 -22t137.5 -74zM680 1000q-143 0 -242.5 -99.5t-99.5 -241.5q0 -141 100 -241t242 -100q141 0 241 100t100 241q0 142 -99.5 241.5t-241.5 99.5z" />
    <glyph glyph-name="guilsinglleft" unicode="&#x2039;" horiz-adv-x="405" 
d="M292 758q10 9 20 24q6 8 19 24q9 -1 14 -1q10 0 21 1h11q6 0 13 -2l-116 -209l-102 -187l46 -82q87 -166 144 -260q17 -28 25 -52l-57 -1l-92 121q-80 98 -134 168q-17 22 -25 31l-36 39q-22 24 -29 35q9 14 28 36q10 11 65 82q33 43 50 72q17 18 49 59l18 18z" />
    <glyph glyph-name="guilsinglright" unicode="&#x203a;" horiz-adv-x="405" 
d="M17 30l127 224q12 26 25 46.5t63 108.5l-96 178l-54 103q-19 37 -45 79q-11 18 -20 37l55 5q13 -15 31.5 -39.5t50.5 -60.5t62 -77l175 -226q-14 -18 -59 -66q-15 -15 -20 -22l-220 -271q-15 -21 -25 -33h-49z" />
    <glyph glyph-name="fi" unicode="&#xfb01;" horiz-adv-x="1109" 
d="M92 28q20 5 55 12q58 12 79 39q15 20 15 104q0 362 -3 435q-13 2 -25 2q-10 0 -31 -1q-55 -3 -68 -3h-16q-2 13 -2 19q0 5 2 16q7 6 16 8q64 19 91 40q14 11 24 37q5 11 11 66q20 176 64.5 269.5t99.5 141.5q88 76 177 103t156 27q54 0 108.5 -9.5t72 -27t17.5 -49.5
q0 -30 -21 -50t-61 -20q-47 0 -114.5 38.5t-129.5 38.5q-125 0 -186.5 -110.5t-61.5 -380.5q0 -27 3 -57h27q31 0 106.5 -2.5t85.5 -2.5q24 0 53 2.5t50 3.5q59 1 100 23.5t93 88.5q17 21 27 32l12 2l8 -2q6 -19 6 -35l-1 -74l1 -155l-2 -234l1 -95q0 -5 -1 -35t-1 -43
q0 -11 1 -41l-1 -48q0 -21 13 -32q6 -6 99 -30q8 -2 23 -7l2 -30q-13 -1 -20 -1h-44l-266 -2l-98 3l1 27q20 8 56 13q69 10 93 30q16 13 16 42q0 368 -3 541l-42 1q-80 0 -158 -4l-206 -4q-14 -1 -32 -4l-1 -32l1 -302l-4 -157q0 -62 6 -74.5t23 -19.5q9 -4 105 -27
q15 -1 28 -4q7 -13 7 -22v-5h-439z" />
    <glyph glyph-name="fl" unicode="&#xfb02;" horiz-adv-x="1109" 
d="M103 30q70 2 90.5 7t41.5 22q11 25 10 57l-2 66v195q0 137 -4 227q0 33 -14 46q-31 4 -43 4l-59 3q-6 1 -24 8q3 22 9 28q9 9 38 16q56 16 71 33l6 17q3 16 8 52q18 129 73 252.5t142 187.5t197 64q38 0 79.5 -10t87.5 -30l64 57q13 4 19 4t12 -6q3 -86 3 -572
q0 -70 -2 -132q-2 -48 -2 -63q0 -13 3 -102l-1 -98q-1 -61 3 -227v-37q0 -21 8 -40q31 -24 80 -26q28 -1 47 -4q8 -9 8 -30l-410 -3q-5 8 -5 13q0 9 16 23q59 6 88 15q13 4 31 19q13 19 13 121v130q0 29 -3 167l1 68q0 49 -6 123q-12 6 -22 7q-5 0 -126 1l-120 -2l-36 1
q-65 0 -105 -13q-8 -9 -8 -52q0 -60 5 -192l2 -54q0 -11 -2 -66q-2 -29 -2 -46q0 -102 14 -174q11 -23 29.5 -33t96.5 -25q10 -12 10 -29l-417 -2l-3 16q0 8 10 18zM359 746l24 -3l110 3q5 0 57 -3h86q49 2 55 2h42q18 0 43 8q6 61 6 122v265q0 11 -3 16q-5 7 -50 41.5
t-59 42.5q-32 15 -70 15q-52 0 -101 -30.5t-69 -58.5q-28 -40 -51.5 -128t-23.5 -200q0 -59 4 -92z" />
    <glyph glyph-name="daggerdbl" unicode="&#x2021;" horiz-adv-x="875" 
d="M72 84h20q34 -3 77 -11l201 -37q28 -5 45 -7q-2 32 -35 271l-13 98q0 8 5 36q2 15 7 53q2 18 3 29q6 35 9 74l8 43l14 158q-17 -1 -45 -8t-52 -11q-33 -5 -65 -12q-127 -26 -159 -26q-33 0 -45.5 14.5t-12.5 71.5q0 42 10 54t34 12q36 0 50 -1q250 -44 285 -46
q-8 43 -9 49l-14 140l-21 174q-3 22 -3 51q0 33 13 43q25 21 69 21q43 0 57.5 -14.5t14.5 -54.5q0 -29 -4 -86l-12 -61l-13 -79q-9 -56 -17 -124q-3 -22 -5 -58q19 -2 28 -2q16 0 36 3l182 35q77 13 88 13q6 0 24 -3q12 -10 14 -17t2 -52q0 -49 -13 -68q-10 -14 -27 -14
q-51 0 -114 17.5t-86 21.5q-35 7 -139 17l16 -141l26 -238q-1 -21 -4 -45q-24 -165 -28 -242q-2 -34 -3 -44q-4 -34 -4 -41l1 -13q55 7 148 31q33 9 111 21q44 6 55 6q12 0 34 -3q27 -29 27 -61q0 -62 -9 -75q-7 -9 -39 -9q-53 0 -111 9q-39 5 -151 32q-28 3 -38 5
q-14 2 -28 3l9 -88q4 -51 9.5 -83.5t7.5 -62.5q26 -130 26 -144q0 -66 -9 -78q-19 -23 -48 -23l-66 7q-22 2 -29 9t-7 30q0 36 21 140l14 173l18 116q-38 0 -71 -4q-48 -5 -78 -11l-98 -25q-62 -12 -85 -12q-21 0 -35.5 15t-14.5 41l2 60q4 24 39 38z" />
    <glyph glyph-name="periodcentered" unicode="&#x2219;" horiz-adv-x="448" 
d="M120 613q0 45 32.5 78t75.5 33q42 0 71 -31t29 -79q0 -47 -30.5 -78.5t-73.5 -31.5q-42 0 -73 32.5t-31 76.5z" />
    <glyph glyph-name="quotesinglbase" unicode="&#x201a;" horiz-adv-x="448" 
d="M98 -356l-5 46q98 47 143.5 104.5t45.5 107.5q0 29 -16 49q-16 19 -32 19l-63 -2q-26 0 -49.5 24.5t-23.5 56.5q0 35 25 56q41 36 79 36q76 0 130.5 -53t54.5 -128q0 -127 -121 -229q-88 -75 -168 -87z" />
    <glyph glyph-name="quotedblbase" unicode="&#x201e;" horiz-adv-x="917" 
d="M67 -353l-2 35q121 62 152 97q51 59 51 105q0 29 -17 49q-17 19 -78.5 38.5t-77 37.5t-15.5 50q0 38 27 63t73 25q52 0 84 -20q60 -35 84 -85t24 -107q0 -80 -72 -161.5t-233 -126.5zM533 -354v35q196 95 196 200q0 41 -31 66q-18 14 -82 29q-43 9 -58.5 26t-15.5 46
q0 45 27 71t80 26q28 0 48 -7q37 -13 66 -36.5t49 -67t20 -94.5q0 -58 -34.5 -122t-88.5 -100q-41 -28 -176 -72z" />
    <glyph glyph-name="perthousand" unicode="&#x2030;" horiz-adv-x="2091" 
d="M245 -67q9 19 21.5 37t30.5 50q7 11 74.5 112.5t92.5 142.5q448 758 647 1029l10 1q47 -3 53 -3l-436 -685l-199 -329l-230 -353h-8q-5 0 -47 -2h-9zM583 954q0 -158 -79.5 -251.5t-177.5 -93.5q-100 0 -176.5 89.5t-76.5 245.5q0 108 39 202q30 70 90 114t129 44
q70 0 131.5 -46t97.5 -137q23 -61 23 -167zM471 935q0 148 -8 193q-14 76 -48 108t-84 32q-67 0 -105 -57.5t-38 -279.5q0 -175 39 -231t98 -56q68 0 102 48q44 63 44 243zM1375 329q0 -158 -80 -251t-178 -93q-99 0 -176 89.5t-77 244.5q0 109 40 203q29 69 89 113.5
t129 44.5q70 0 132 -46t97 -138q24 -60 24 -167zM1262 311q0 147 -8 192q-14 77 -48 108.5t-84 31.5q-67 0 -105 -57t-38 -279q0 -176 39 -232t98 -56q68 0 102 48q44 63 44 244zM2023 329q0 -158 -80 -251t-178 -93q-99 0 -175.5 89.5t-76.5 244.5q0 109 39 203
q29 69 89 113.5t130 44.5q69 0 131 -46t98 -138q23 -60 23 -167zM1911 311q0 147 -9 192q-14 77 -48 108.5t-84 31.5q-66 0 -104.5 -57t-38.5 -279q0 -176 39 -232t99 -56q67 0 101 48q45 63 45 244z" />
    <glyph glyph-name="Acircumflex" unicode="&#xc2;" horiz-adv-x="1387" 
d="M-11 32q14 8 25 8h23q7 0 24 1q77 7 91 14q35 19 60 66q52 102 117 289q31 89 39 108q25 60 48 126l94 263q22 62 106 284q21 56 51 150l29 2l35 -1q43 -85 76 -183q18 -52 59 -155l152 -411l81 -223q64 -190 84 -233.5t37 -57.5q5 -4 37.5 -12t45.5 -12q46 -13 64 -22
q4 -11 4 -17q0 -5 -3 -15q-32 -1 -45 -1q-51 0 -180 3l-100 3l-121 -2q-12 0 -24.5 1.5t-21.5 1.5h-22q-11 1 -20 6q0 14 5 27q12 6 22 7l105 7q41 2 62 11q6 18 6 27q0 18 -26 93q-18 50 -31.5 95t-106.5 296q-41 7 -72 7l-214 -2l-63 1q-34 0 -75 -5q-13 -30 -17 -43
l-88 -275q-56 -157 -56 -173q0 -9 9 -30q21 -6 56 -11l136 -12q11 -9 11 -16q0 -5 -3 -15q-45 -1 -69 -1q-80 0 -186 5q-49 2 -70 2t-73 -2q-34 -2 -49 -2q-24 0 -62 3v6q0 7 4 19zM466 632q107 -6 244 -6q78 0 137 5q-10 39 -23 73q-65 174 -72 192l-91 231l-10 18
q-6 -12 -44 -103q-64 -156 -92 -243q-13 -39 -27 -77.5t-17.5 -54t-10.5 -31.5zM479 1435q136 240 191 326h57q11 -16 80 -134l111 -191l-4 -26q-28 27 -186 183q-17 16 -40 36q-25 -29 -206 -223q-3 9 -3 16v13z" />
    <glyph glyph-name="Ecircumflex" unicode="&#xca;" horiz-adv-x="1344" 
d="M50 16q10 9 17 11q17 5 58 8q97 6 120 18q14 20 14 56l-1 70l1 254l-2 120l1 251l-5 285q-1 102 -13 115q-18 19 -107 22q-38 1 -67 6q-13 7 -13 18q0 8 5 19q9 5 16 5q14 0 34 -1q59 -5 122 -5l74 2l176 -4q132 0 206 3t100 3q23 0 114 -4l142 1l17 -3l83 3l10 -5
q5 -8 7 -17q0 -14 -4.5 -43t-4.5 -36q0 -104 7 -176q-1 -6 -6 -8q-11 0 -20 3q-11 19 -29.5 67t-55.5 111q-25 42 -39 50t-58 8q-9 0 -91 2q-22 1 -43 1l-285 -6h-25q-55 0 -66 -14q-17 -24 -17 -141q0 -12 5 -240v-139q11 -3 24 -3h17q17 0 50 -1q52 -2 70 -2q12 0 21 1
q108 4 278 4q53 9 62 21q15 18 22.5 94t33.5 86q13 0 24 -5q2 -8 2 -15t-2 -23q-5 -37 -5 -232q0 -52 5.5 -116t5.5 -69q0 -9 -3 -24q-8 -4 -13 -4h-7q-16 28 -31 87q-26 101 -54.5 126.5t-92.5 25.5q-14 0 -51 -1.5t-110 -1.5h-65q-139 0 -182 -6l-1 -33l1 -184l-1 -116
l1 -113q1 -102 13 -118q17 -22 74 -22l61 1q8 0 62.5 -1.5t134.5 -1.5q193 0 257 16.5t105.5 58.5t104.5 181q19 41 38 41q9 0 20 -8q-29 -99 -33 -130q-11 -70 -13 -143q0 -33 -16 -55h-22l-281 -3l-126 1l-300 -4h-122q-23 0 -43 -1q-180 -8 -265 -8q-15 0 -20.5 5
t-5.5 15zM478 1435q136 240 191 326h57q11 -16 80 -134l111 -191l-4 -26q-28 27 -186 183q-17 16 -40 36q-25 -29 -206 -223q-3 9 -3 16v13z" />
    <glyph glyph-name="Aacute" unicode="&#xc1;" horiz-adv-x="1387" 
d="M-11 32q14 8 25 8h23q7 0 24 1q77 7 91 14q35 19 60 66q52 102 117 289q31 89 39 108q25 60 48 126l94 263q22 62 106 284q21 56 51 150l29 2l35 -1q43 -85 76 -183q18 -52 59 -155l152 -411l81 -223q64 -190 84 -233.5t37 -57.5q5 -4 37.5 -12t45.5 -12q46 -13 64 -22
q4 -11 4 -17q0 -5 -3 -15q-32 -1 -45 -1q-51 0 -180 3l-100 3l-121 -2q-12 0 -24.5 1.5t-21.5 1.5h-22q-11 1 -20 6q0 14 5 27q12 6 22 7l105 7q41 2 62 11q6 18 6 27q0 18 -26 93q-18 50 -31.5 95t-106.5 296q-41 7 -72 7l-214 -2l-63 1q-34 0 -75 -5q-13 -30 -17 -43
l-88 -275q-56 -157 -56 -173q0 -9 9 -30q21 -6 56 -11l136 -12q11 -9 11 -16q0 -5 -3 -15q-45 -1 -69 -1q-80 0 -186 5q-49 2 -70 2t-73 -2q-34 -2 -49 -2q-24 0 -62 3v6q0 7 4 19zM466 632q107 -6 244 -6q78 0 137 5q-10 39 -23 73q-65 174 -72 192l-91 231l-10 18
q-6 -12 -44 -103q-64 -156 -92 -243q-13 -39 -27 -77.5t-17.5 -54t-10.5 -31.5zM596 1406l124 179q54 79 107 114q22 15 48 15q27 0 43 -15t16 -35q0 -19 -14 -40t-67 -57l-235 -161l-11 -1z" />
    <glyph glyph-name="Edieresis" unicode="&#xcb;" horiz-adv-x="1344" 
d="M50 16q10 9 17 11q17 5 58 8q97 6 120 18q14 20 14 56l-1 70l1 254l-2 120l1 251l-5 285q-1 102 -13 115q-18 19 -107 22q-38 1 -67 6q-13 7 -13 18q0 8 5 19q9 5 16 5q14 0 34 -1q59 -5 122 -5l74 2l176 -4q132 0 206 3t100 3q23 0 114 -4l142 1l17 -3l83 3l10 -5
q5 -8 7 -17q0 -14 -4.5 -43t-4.5 -36q0 -104 7 -176q-1 -6 -6 -8q-11 0 -20 3q-11 19 -29.5 67t-55.5 111q-25 42 -39 50t-58 8q-9 0 -91 2q-22 1 -43 1l-285 -6h-25q-55 0 -66 -14q-17 -24 -17 -141q0 -12 5 -240v-139q11 -3 24 -3h17q17 0 50 -1q52 -2 70 -2q12 0 21 1
q108 4 278 4q53 9 62 21q15 18 22.5 94t33.5 86q13 0 24 -5q2 -8 2 -15t-2 -23q-5 -37 -5 -232q0 -52 5.5 -116t5.5 -69q0 -9 -3 -24q-8 -4 -13 -4h-7q-16 28 -31 87q-26 101 -54.5 126.5t-92.5 25.5q-14 0 -51 -1.5t-110 -1.5h-65q-139 0 -182 -6l-1 -33l1 -184l-1 -116
l1 -113q1 -102 13 -118q17 -22 74 -22l61 1q8 0 62.5 -1.5t134.5 -1.5q193 0 257 16.5t105.5 58.5t104.5 181q19 41 38 41q9 0 20 -8q-29 -99 -33 -130q-11 -70 -13 -143q0 -33 -16 -55h-22l-281 -3l-126 1l-300 -4h-122q-23 0 -43 -1q-180 -8 -265 -8q-15 0 -20.5 5
t-5.5 15zM808 1490q0 39 25 64t61 25t61 -25t25 -61t-25 -61.5t-61 -25.5q-35 0 -60.5 25t-25.5 59zM464 1490q0 39 25 64t60 25t61 -25.5t26 -61.5t-25.5 -61t-60.5 -25t-60.5 25t-25.5 59z" />
    <glyph glyph-name="Egrave" unicode="&#xc8;" horiz-adv-x="1344" 
d="M50 16q10 9 17 11q17 5 58 8q97 6 120 18q14 20 14 56l-1 70l1 254l-2 120l1 251l-5 285q-1 102 -13 115q-18 19 -107 22q-38 1 -67 6q-13 7 -13 18q0 8 5 19q9 5 16 5q14 0 34 -1q59 -5 122 -5l74 2l176 -4q132 0 206 3t100 3q23 0 114 -4l142 1l17 -3l83 3l10 -5
q5 -8 7 -17q0 -14 -4.5 -43t-4.5 -36q0 -104 7 -176q-1 -6 -6 -8q-11 0 -20 3q-11 19 -29.5 67t-55.5 111q-25 42 -39 50t-58 8q-9 0 -91 2q-22 1 -43 1l-285 -6h-25q-55 0 -66 -14q-17 -24 -17 -141q0 -12 5 -240v-139q11 -3 24 -3h17q17 0 50 -1q52 -2 70 -2q12 0 21 1
q108 4 278 4q53 9 62 21q15 18 22.5 94t33.5 86q13 0 24 -5q2 -8 2 -15t-2 -23q-5 -37 -5 -232q0 -52 5.5 -116t5.5 -69q0 -9 -3 -24q-8 -4 -13 -4h-7q-16 28 -31 87q-26 101 -54.5 126.5t-92.5 25.5q-14 0 -51 -1.5t-110 -1.5h-65q-139 0 -182 -6l-1 -33l1 -184l-1 -116
l1 -113q1 -102 13 -118q17 -22 74 -22l61 1q8 0 62.5 -1.5t134.5 -1.5q193 0 257 16.5t105.5 58.5t104.5 181q19 41 38 41q9 0 20 -8q-29 -99 -33 -130q-11 -70 -13 -143q0 -33 -16 -55h-22l-281 -3l-126 1l-300 -4h-122q-23 0 -43 -1q-180 -8 -265 -8q-15 0 -20.5 5
t-5.5 15zM866 1406l-17 -1q-15 10 -199 134q-88 60 -104 83.5t-16 41.5q0 20 16 35.5t37 15.5q36 0 78.5 -35t130.5 -166q23 -34 38 -54q26 -34 36 -54z" />
    <glyph glyph-name="Iacute" unicode="&#xcd;" horiz-adv-x="725" 
d="M43 32q22 9 45 11q153 10 175 36.5t22 256.5l-1 105v110l-4 121l2 71l-1 78v92l-2 41l2 52q1 18 1 42q0 63 -6 133q-4 14 -11 27q-37 19 -119.5 25.5t-93.5 14.5q-8 6 -9 31h84l265 -6q102 0 272 6q0 -16 -2 -30q-20 -5 -67 -11q-95 -11 -116 -21q-13 -5 -19 -17
q-10 -18 -12 -67l-5 -129l4 -445v-176q-2 -83 -2 -113q0 -112 5.5 -143t19 -44.5t44.5 -21.5q46 -11 72 -12q56 -2 71 -16q3 -13 3 -22v-8q-91 -3 -134 -3q-25 0 -89 3l-138 -2l-235 1h-19zM223 1406l124 179q54 79 107 114q22 15 48 15q27 0 43 -15t16 -35q0 -19 -14 -40
t-67 -57l-235 -161l-11 -1z" />
    <glyph glyph-name="Icircumflex" unicode="&#xce;" horiz-adv-x="725" 
d="M43 32q22 9 45 11q153 10 175 36.5t22 256.5l-1 105v110l-4 121l2 71l-1 78v92l-2 41l2 52q1 18 1 42q0 63 -6 133q-4 14 -11 27q-37 19 -119.5 25.5t-93.5 14.5q-8 6 -9 31h84l265 -6q102 0 272 6q0 -16 -2 -30q-20 -5 -67 -11q-95 -11 -116 -21q-13 -5 -19 -17
q-10 -18 -12 -67l-5 -129l4 -445v-176q-2 -83 -2 -113q0 -112 5.5 -143t19 -44.5t44.5 -21.5q46 -11 72 -12q56 -2 71 -16q3 -13 3 -22v-8q-91 -3 -134 -3q-25 0 -89 3l-138 -2l-235 1h-19zM147 1435q136 240 191 326h57q11 -16 80 -134l111 -191l-4 -26q-28 27 -186 183
q-17 16 -40 36q-25 -29 -206 -223q-3 9 -3 16v13z" />
    <glyph glyph-name="Idieresis" unicode="&#xcf;" horiz-adv-x="725" 
d="M43 32q22 9 45 11q153 10 175 36.5t22 256.5l-1 105v110l-4 121l2 71l-1 78v92l-2 41l2 52q1 18 1 42q0 63 -6 133q-4 14 -11 27q-37 19 -119.5 25.5t-93.5 14.5q-8 6 -9 31h84l265 -6q102 0 272 6q0 -16 -2 -30q-20 -5 -67 -11q-95 -11 -116 -21q-13 -5 -19 -17
q-10 -18 -12 -67l-5 -129l4 -445v-176q-2 -83 -2 -113q0 -112 5.5 -143t19 -44.5t44.5 -21.5q46 -11 72 -12q56 -2 71 -16q3 -13 3 -22v-8q-91 -3 -134 -3q-25 0 -89 3l-138 -2l-235 1h-19zM467 1490q0 39 25 64t61 25t61 -25t25 -61t-25 -61.5t-61 -25.5q-35 0 -60.5 25
t-25.5 59zM123 1490q0 39 25 64t60 25t61 -25.5t26 -61.5t-25.5 -61t-60.5 -25t-60.5 25t-25.5 59z" />
    <glyph glyph-name="Igrave" unicode="&#xcc;" horiz-adv-x="725" 
d="M43 32q22 9 45 11q153 10 175 36.5t22 256.5l-1 105v110l-4 121l2 71l-1 78v92l-2 41l2 52q1 18 1 42q0 63 -6 133q-4 14 -11 27q-37 19 -119.5 25.5t-93.5 14.5q-8 6 -9 31h84l265 -6q102 0 272 6q0 -16 -2 -30q-20 -5 -67 -11q-95 -11 -116 -21q-13 -5 -19 -17
q-10 -18 -12 -67l-5 -129l4 -445v-176q-2 -83 -2 -113q0 -112 5.5 -143t19 -44.5t44.5 -21.5q46 -11 72 -12q56 -2 71 -16q3 -13 3 -22v-8q-91 -3 -134 -3q-25 0 -89 3l-138 -2l-235 1h-19zM535 1406l-17 -1q-15 10 -199 134q-88 60 -104 83.5t-16 41.5q0 20 16 35.5
t37 15.5q36 0 78.5 -35t130.5 -166q23 -34 38 -54q26 -34 36 -54z" />
    <glyph glyph-name="Oacute" unicode="&#xd3;" horiz-adv-x="1600" 
d="M94 639q0 102 24.5 181.5t82.5 172.5t140 155.5t227 110.5q102 33 258 33q105 0 205.5 -28t182.5 -78t164 -154q57 -72 86 -155q38 -109 38 -225q0 -132 -25.5 -219t-85.5 -172q-47 -66 -161 -152q-76 -58 -189 -93.5t-244 -35.5q-133 0 -237 31t-173.5 75.5t-143 131.5
t-111.5 192t-38 229zM788 17q84 0 174.5 23.5t160.5 78t109.5 124t63.5 178.5t24 218q0 136 -40 269q-31 101 -101 180.5t-169 123t-211 43.5q-91 0 -178 -30t-143 -76.5t-104 -132t-73 -188.5t-25 -182q0 -83 25 -188t68.5 -182t107 -136.5t142.5 -91t169 -31.5zM703 1406
l124 179q54 79 107 114q22 15 48 15q27 0 43 -15t16 -35q0 -19 -14 -40t-67 -57l-235 -161l-11 -1z" />
    <glyph glyph-name="Ocircumflex" unicode="&#xd4;" horiz-adv-x="1600" 
d="M94 639q0 102 24.5 181.5t82.5 172.5t140 155.5t227 110.5q102 33 258 33q105 0 205.5 -28t182.5 -78t164 -154q57 -72 86 -155q38 -109 38 -225q0 -132 -25.5 -219t-85.5 -172q-47 -66 -161 -152q-76 -58 -189 -93.5t-244 -35.5q-133 0 -237 31t-173.5 75.5t-143 131.5
t-111.5 192t-38 229zM788 17q84 0 174.5 23.5t160.5 78t109.5 124t63.5 178.5t24 218q0 136 -40 269q-31 101 -101 180.5t-169 123t-211 43.5q-91 0 -178 -30t-143 -76.5t-104 -132t-73 -188.5t-25 -182q0 -83 25 -188t68.5 -182t107 -136.5t142.5 -91t169 -31.5zM606 1435
q136 240 191 326h57q11 -16 80 -134l111 -191l-4 -26q-28 27 -186 183q-17 16 -40 36q-25 -29 -206 -223q-3 9 -3 16v13z" />
    <glyph glyph-name="Ograve" unicode="&#xd2;" horiz-adv-x="1600" 
d="M94 639q0 102 24.5 181.5t82.5 172.5t140 155.5t227 110.5q102 33 258 33q105 0 205.5 -28t182.5 -78t164 -154q57 -72 86 -155q38 -109 38 -225q0 -132 -25.5 -219t-85.5 -172q-47 -66 -161 -152q-76 -58 -189 -93.5t-244 -35.5q-133 0 -237 31t-173.5 75.5t-143 131.5
t-111.5 192t-38 229zM788 17q84 0 174.5 23.5t160.5 78t109.5 124t63.5 178.5t24 218q0 136 -40 269q-31 101 -101 180.5t-169 123t-211 43.5q-91 0 -178 -30t-143 -76.5t-104 -132t-73 -188.5t-25 -182q0 -83 25 -188t68.5 -182t107 -136.5t142.5 -91t169 -31.5zM994 1406
l-17 -1q-15 10 -199 134q-88 60 -104 83.5t-16 41.5q0 20 16 35.5t37 15.5q36 0 78.5 -35t130.5 -166q23 -34 38 -54q26 -34 36 -54z" />
    <glyph glyph-name="Uacute" unicode="&#xda;" 
d="M584 1284q5 -17 5 -26q0 -6 -3 -18q-26 -7 -42 -7q-7 0 -23.5 1.5t-26.5 1.5q-46 0 -73 -18q-18 -11 -22 -29l-10 -114l3 -495q1 -272 18 -338.5t57 -109.5t120.5 -71t156.5 -28q170 0 260.5 49t130 135.5t39.5 262.5q0 5 -3 80v29q0 16 2 62.5t2 54.5l-15 287
q-7 145 -16.5 171t-27.5 39q-39 28 -148 50q-5 14 -6 29q39 4 77 4q40 0 84 -3q66 -5 72 -5l158 5l31 -1l-1 -36q-123 -16 -147 -37.5t-24 -79.5q0 -31 4 -135l7 -207l-1 -82l3 -104q0 -196 -11 -267q-16 -99 -45.5 -157t-85.5 -104.5t-149.5 -76.5t-184.5 -30
q-143 0 -206 20q-115 35 -183 91t-94 112q-35 74 -35 216v69l-3 280l3 226v152q0 58 -16 81q-11 16 -32 16l-59 -1q-66 0 -84 14q-3 9 -3 16q0 9 6 14q11 8 27 8h26l67 1h158zM628 1406l124 179q54 79 107 114q22 15 48 15q27 0 43 -15t16 -35q0 -19 -14 -40t-67 -57
l-235 -161l-11 -1z" />
    <glyph glyph-name="Ucircumflex" unicode="&#xdb;" 
d="M584 1284q5 -17 5 -26q0 -6 -3 -18q-26 -7 -42 -7q-7 0 -23.5 1.5t-26.5 1.5q-46 0 -73 -18q-18 -11 -22 -29l-10 -114l3 -495q1 -272 18 -338.5t57 -109.5t120.5 -71t156.5 -28q170 0 260.5 49t130 135.5t39.5 262.5q0 5 -3 80v29q0 16 2 62.5t2 54.5l-15 287
q-7 145 -16.5 171t-27.5 39q-39 28 -148 50q-5 14 -6 29q39 4 77 4q40 0 84 -3q66 -5 72 -5l158 5l31 -1l-1 -36q-123 -16 -147 -37.5t-24 -79.5q0 -31 4 -135l7 -207l-1 -82l3 -104q0 -196 -11 -267q-16 -99 -45.5 -157t-85.5 -104.5t-149.5 -76.5t-184.5 -30
q-143 0 -206 20q-115 35 -183 91t-94 112q-35 74 -35 216v69l-3 280l3 226v152q0 58 -16 81q-11 16 -32 16l-59 -1q-66 0 -84 14q-3 9 -3 16q0 9 6 14q11 8 27 8h26l67 1h158zM531 1435q136 240 191 326h57q11 -16 80 -134l111 -191l-4 -26q-28 27 -186 183q-17 16 -40 36
q-25 -29 -206 -223q-3 9 -3 16v13z" />
    <glyph glyph-name="Ugrave" unicode="&#xd9;" 
d="M584 1284q5 -17 5 -26q0 -6 -3 -18q-26 -7 -42 -7q-7 0 -23.5 1.5t-26.5 1.5q-46 0 -73 -18q-18 -11 -22 -29l-10 -114l3 -495q1 -272 18 -338.5t57 -109.5t120.5 -71t156.5 -28q170 0 260.5 49t130 135.5t39.5 262.5q0 5 -3 80v29q0 16 2 62.5t2 54.5l-15 287
q-7 145 -16.5 171t-27.5 39q-39 28 -148 50q-5 14 -6 29q39 4 77 4q40 0 84 -3q66 -5 72 -5l158 5l31 -1l-1 -36q-123 -16 -147 -37.5t-24 -79.5q0 -31 4 -135l7 -207l-1 -82l3 -104q0 -196 -11 -267q-16 -99 -45.5 -157t-85.5 -104.5t-149.5 -76.5t-184.5 -30
q-143 0 -206 20q-115 35 -183 91t-94 112q-35 74 -35 216v69l-3 280l3 226v152q0 58 -16 81q-11 16 -32 16l-59 -1q-66 0 -84 14q-3 9 -3 16q0 9 6 14q11 8 27 8h26l67 1h158zM919 1406l-17 -1q-15 10 -199 134q-88 60 -104 83.5t-16 41.5q0 20 16 35.5t37 15.5
q36 0 78.5 -35t130.5 -166q23 -34 38 -54q26 -34 36 -54z" />
    <glyph glyph-name="dotlessi" unicode="&#x131;" horiz-adv-x="469" 
d="M2 28q14 10 39 13q91 13 115 33q12 12 17 40q6 38 6 186l-1 216l2 87q0 47 -21.5 69t-102.5 41l-1 29q138 32 214 144q11 4 16 4q6 0 16 -4l2 -38v-186l1 -243l-4 -257l1 -43q1 -38 11 -47q17 -16 113 -42q14 -4 25 -9v-26h-17q-168 12 -216 12q-115 0 -184 -8
q-10 -1 -17 -1q-8 0 -13.5 5t-5.5 11q0 5 5 14z" />
    <glyph glyph-name="circumflex" unicode="&#x2c6;" horiz-adv-x="683" 
d="M147 1006q136 240 191 326h57q11 -16 80 -134l111 -191l-4 -26q-28 27 -186 183q-17 16 -40 36q-25 -29 -206 -223q-3 9 -3 16v13z" />
    <glyph glyph-name="tilde" unicode="&#x2dc;" horiz-adv-x="683" 
d="M631 1237h29q1 -11 1 -16q0 -86 -47.5 -137t-117.5 -51q-35 0 -74 15q-26 9 -81 46.5t-77 45.5q-31 13 -56 13q-34 0 -56.5 -24t-33.5 -94h-28q-2 6 -2 11q0 67 41 129t125 62q35 0 66.5 -12t90.5 -51q89 -58 132 -58q31 0 54.5 25t33.5 96z" />
    <glyph glyph-name="macron" unicode="&#x2c9;" horiz-adv-x="683" 
d="M98 1094q-1 30 -1 45t1 46l126 -5q111 0 408 5q2 -31 2 -46t-2 -45q-200 -3 -223 -3q-250 0 -311 3z" />
    <glyph glyph-name="breve" unicode="&#x2d8;" horiz-adv-x="683" 
d="M133 1233h28q16 -81 71 -124.5t145 -43.5t145.5 44.5t69.5 122.5h33q-3 -122 -78 -201.5t-172 -79.5q-113 0 -187 103q-55 76 -55 167v12z" />
    <glyph glyph-name="dotaccent" unicode="&#x2d9;" horiz-adv-x="683" 
d="M291 1140q0 39 25 64t61 25t61 -25t25 -61t-25 -61.5t-61 -25.5q-35 0 -60.5 25t-25.5 59z" />
    <glyph glyph-name="ring" unicode="&#x2da;" horiz-adv-x="683" 
d="M215 1094q0 68 48 116.5t116 48.5t116 -48t48 -116q0 -69 -48.5 -117t-116.5 -48q-67 0 -115 48t-48 116zM378 975q50 0 85 35t35 85q0 49 -35 84t-84 35t-84 -35t-35 -83q0 -51 34.5 -86t83.5 -35z" />
    <glyph glyph-name="cedilla" unicode="&#xb8;" horiz-adv-x="683" 
d="M133 -175q10 16 36 48q38 48 97 141h34l-78 -125q78 -60 78 -140q0 -77 -51.5 -128.5t-125.5 -51.5q-53 0 -87.5 28.5t-34.5 55.5q0 20 14 37q10 12 24 12q22 0 53 -43t64 -43q27 0 49 26t22 68q0 37 -23.5 67.5t-70.5 47.5z" />
    <glyph glyph-name="hungarumlaut" unicode="&#x2dd;" horiz-adv-x="683" 
d="M172 984l124 179q54 79 107 114q22 15 48 15q27 0 43 -15t16 -35q0 -19 -14 -40t-67 -57l-235 -161l-11 -1zM425 984l124 179q55 79 107 114q23 15 49 15t42.5 -15t16.5 -35q0 -19 -14 -40t-67 -57l-236 -161l-11 -1z" />
    <glyph glyph-name="ogonek" unicode="&#x2db;" horiz-adv-x="683" 
d="M250 1h56q-26 -52 -26 -90q0 -63 52.5 -113.5t122.5 -50.5q58 0 124 47l24 -22q-102 -100 -214 -100q-90 0 -147 53t-57 125q0 34 13 65.5t52 85.5z" />
    <glyph glyph-name="caron" unicode="&#x2c7;" horiz-adv-x="683" 
d="M587 1303q-136 -240 -191 -326h-57q-11 16 -80 133l-111 192l4 26q28 -27 186 -183q17 -16 40 -36q25 28 206 223q3 -9 3 -16v-13z" />
    <glyph glyph-name="Lslash" unicode="&#x141;" horiz-adv-x="1237" 
d="M260 517q-137 -146 -211 -219l-1 75q124 136 211 226l1 245v61q1 212 -2 264q-1 10 -8 28q-26 12 -43.5 16t-156.5 29q-1 11 -1 16q0 6 1 16q19 0 62 -2l152 -5l88 -2l26 1q5 0 29 -2q59 0 68 1l80 6q81 0 114 -3q-1 -18 -7 -39q-11 -2 -104 -5.5t-107 -11.5
q-23 -13 -23 -81q0 -18 -2 -64l1 -242v-53l202 208q18 19 69 61l1 -75q-123 -113 -271 -271v-85l1 -101l-3 -373l1 -58q0 -24 10 -31q25 -1 147 -2h68l173 6q68 2 97 13.5t97 67.5q41 36 64 74q5 8 17 24q19 26 51 104h33q-6 -36 -13 -68q-29 -141 -40 -235q-2 -20 -4 -37
l-374 11q-482 0 -572 -9q-28 -2 -59 -2h-104q1 15 8 27q78 21 152 28q41 3 58 17q8 6 12 19.5t5 107.5l7 254v70z" />
    <glyph glyph-name="lslash" unicode="&#x142;" horiz-adv-x="640" 
d="M265 640v14l1 192v162l3 70q0 80 -7 98q-4 12 -23 24q-35 23 -72 32q-16 4 -29 16l-1 21q16 7 34 11q91 25 141 46q30 12 47 12h33q1 -22 1 -234v-91l-1 -59v-96l-1 -89q88 92 172 171v-65q-80 -76 -173 -173q1 -39 1 -53l-4 -493q0 -37 8 -73q14 -15 24 -18
q23 -8 90 -16q24 -3 34 -11q6 -5 6 -13q0 -6 -2 -14q-36 -5 -63 -5t-61 4q-108 10 -216 10q-50 0 -99 -12q-7 0 -10 4l-1 20q3 9 10 12t69.5 13t72 18t13 38t3.5 228l-1 144l2 85q-124 -132 -172 -178v66q48 54 171 182z" />
    <glyph glyph-name="Scaron" unicode="&#x160;" horiz-adv-x="981" 
d="M795 1234q8 -66 8 -76l-4 -89q-2 -57 -5 -73q-9 -4 -15 -4l-9 2q-32 140 -108.5 204t-186.5 64q-114 0 -187 -64t-73 -149q0 -65 51 -119t261 -162q160 -83 229 -135.5t104 -121.5t35 -154q0 -107 -55.5 -201t-149.5 -141.5t-249 -47.5q-135 0 -259 43q-73 26 -89 42
t-16 34q0 11 2 28q14 118 15 194q2 47 7 55q4 7 15 7q9 0 14.5 -6.5t7.5 -24.5q11 -123 114 -220q102 -97 231 -97q79 0 145.5 33t104 95.5t37.5 121.5q0 81 -57 148t-229 156.5t-224 130.5q-84 67 -126 142q-31 58 -31 135q0 139 110 235.5t295 96.5q102 0 176 -23
q54 -18 111 -59zM736 1732q-136 -240 -191 -326h-57q-11 16 -80 133l-111 192l4 26q28 -27 186 -183q17 -16 40 -36q25 28 206 223q3 -9 3 -16v-13z" />
    <glyph glyph-name="scaron" unicode="&#x161;" horiz-adv-x="747" 
d="M145 254q37 -95 56 -123q38 -57 91 -88.5t115 -31.5q57 0 113 49q40 37 40 86q0 65 -47 120q-47 54 -178.5 103.5t-176.5 105.5t-45 128q0 68 37 120t102 78.5t120 26.5q71 0 127.5 -11t97.5 -34q8 -51 13 -150l2 -32q-13 -1 -22 -1h-14q-30 83 -91.5 131.5t-121.5 48.5
t-97 -36.5t-37 -95.5q0 -45 30 -80t140.5 -80t161 -83.5t74.5 -93.5t24 -105q0 -69 -45.5 -129t-114 -84.5t-122.5 -24.5q-127 0 -234 47q-10 8 -11 30q0 9 -2 29q-16 135 -16 160q0 12 5 16t26 4zM619 1303q-136 -240 -191 -326h-57q-11 16 -80 133l-111 192l4 26
q28 -27 186 -183q17 -16 40 -36q25 28 206 223q3 -9 3 -16v-13z" />
    <glyph glyph-name="Zcaron" unicode="&#x17d;" horiz-adv-x="1344" 
d="M74 -12l-2 25q68 73 88 102q6 9 37 46l56 79l384 511l331 441q7 11 15 24q-36 2 -61 2q-26 0 -65.5 -1.5t-214.5 -4.5q-7 0 -64.5 -5.5t-154.5 -10.5t-142 -25q-24 -11 -56 -44q-41 -43 -66 -85q-33 -56 -53 -69l-17 -2q3 20 21 65.5t50 163.5q23 64 32.5 94t18.5 49
q11 3 19 3h13q-8 -27 -8 -38q0 -31 25 -47.5t132 -16.5q45 0 91 5q18 2 87 5h54l234 6l208 6l100 5q19 0 40 -7l1 -7q0 -16 -76 -109q-40 -48 -49 -61l-187 -250q-42 -57 -65 -86q-13 -16 -79 -102l-145 -191l-202 -267q-70 -90 -94 -126q-5 -6 -12 -17l389 -3q87 -1 139 -1
q193 0 271 59.5t108 198.5q7 31 11 47q11 10 25 10l4 -3q2 -22 2 -40q0 -50 -3 -137l-3 -68l2 -62q0 -27 -5 -51q-36 -3 -44 -3q-41 2 -69 2l-258 -4l-317 7l-164 -3q-8 0 -61 3q-28 2 -44 2q-54 0 -147 -13q-32 -4 -38 -4q-8 0 -22 3zM918 1732q-136 -240 -191 -326h-57
q-11 16 -80 133l-111 192l4 26q28 -27 186 -183q17 -16 40 -36q25 28 206 223q3 -9 3 -16v-13z" />
    <glyph glyph-name="zcaron" unicode="&#x17e;" horiz-adv-x="875" 
d="M54 -3l1 21q119 134 167 196l80 102q13 14 113 129l90 105q29 31 123 159q-9 6 -21 6l-41 1q-73 2 -190 -2q-83 -3 -128 -20q-33 -12 -59 -38q-41 -41 -59 -77q-9 -18 -29 -30q-11 1 -16 10q4 11 18.5 53.5t24.5 77.5q33 111 60 176h36q-2 -13 -3 -19q-5 -29 -5 -44
q0 -21 18 -30q25 -14 164 -14q33 0 78 2q182 9 230 9q19 0 87 -4q1 -11 1 -19q0 -17 -6 -26q-24 -42 -84 -120l-204 -249l-255 -310q20 0 66 -2h241q42 -1 83.5 19t75 67.5t51.5 111.5q8 5 16 5q12 0 19 -10l-21 -142q-9 -80 -22 -97l-606 1h-62q-18 0 -32 2zM683 1303
q-136 -240 -191 -326h-57q-11 16 -80 133l-111 192l4 26q28 -27 186 -183q17 -16 40 -36q25 28 206 223q3 -9 3 -16v-13z" />
    <glyph glyph-name="brokenbar" unicode="&#xa6;" horiz-adv-x="1024" 
d="M468 1339h89v-722h-89v722zM468 192h89v-720h-89v720z" />
    <glyph glyph-name="Eth" unicode="&#xd0;" horiz-adv-x="1579" 
d="M245 617q-130 0 -225 3q-5 18 -5 27t5 27l224 -2v6l1 129l-3 325q0 55 -16 72q-23 25 -121 46q-42 9 -50.5 16.5t-11.5 28.5q23 5 33 5h70l37 1q37 0 82 -8q92 -6 190 -6q27 0 79 3q138 8 198 8q121 0 228.5 -24t221.5 -89q72 -41 146 -129.5t113 -193t39 -235.5
q0 -117 -43 -232t-118.5 -199.5t-154 -127t-238.5 -73.5q-66 -12 -236 -12q-114 0 -185 7q-28 4 -59 4q-6 0 -12 -1l-407 -7l-3 8q-2 5 -2 11l2 15q37 16 86 21q71 8 106 34q27 55 27 280v158l3 95zM412 617q3 -317 6 -370q4 -83 26.5 -119.5t88.5 -68.5q76 -26 154 -26
q102 0 199 31.5t171.5 89t122.5 130t67 130.5q28 85 28 221q0 130 -54 264q-39 93 -134 178t-225 124.5t-282 39.5q-104 0 -154 -23q-6 -6 -11 -14q-7 -25 -7 -46q0 -13 1 -31q4 -124 4 -182l-1 -62v-213l110 -1l258 5q-5 -18 -5 -27t5 -27q-139 -3 -368 -3z" />
    <glyph glyph-name="eth" unicode="&#xf0;" horiz-adv-x="1067" 
d="M647 1156q156 -117 252 -288.5t96 -383.5q0 -239 -128.5 -373.5t-334.5 -134.5q-190 0 -315 121.5t-125 297.5q0 114 58 216.5t159.5 156t208.5 53.5q81 0 151.5 -28.5t130.5 -86.5q-37 230 -238 394l-274 -180l-31 44l259 171q-94 69 -222 118l29 62q133 -37 276 -125
l187 123l30 -45zM821 623q-61 80 -132 119.5t-151 39.5q-130 0 -210.5 -95.5t-80.5 -306.5q0 -183 80 -274.5t204 -91.5q134 0 218.5 100.5t84.5 328.5q0 84 -13 180z" />
    <glyph glyph-name="Yacute" unicode="&#xdd;" horiz-adv-x="1344" 
d="M-20 1289h48q26 0 114 -3q136 -6 226 -6l117 2q25 0 48 -4q7 -8 7 -17v-11l-25 -12h-11l-56 -1l-29 1q-34 0 -55 -15q-16 -11 -16 -23q0 -13 14 -33q5 -8 16 -24q20 -34 53 -79q47 -66 100 -156q21 -36 44 -69l152 -230q15 19 41 56l144 207l166 249q22 34 26 50
q2 8 2 17q0 21 -19 34q-31 21 -134 31q-7 1 -19 3q-7 12 -7 20q0 6 1 13l52 1l188 -5l151 3q6 0 42 -1l-3 -35q-7 -2 -22 -3l-24 -3q-6 -1 -19 -2q-21 -8 -33 -17q-147 -155 -250 -293t-174 -251q-23 -37 -37 -55q-26 -34 -31 -50q-11 -39 -11 -118q0 -311 11 -367
q6 -28 16 -34q26 -13 207 -31v-12q0 -12 -7 -29l-256 11l-171 -9h-140q-20 0 -44 1q-4 11 -4 16t3 14q7 6 14 7l129 20q67 22 75 30q12 12 15 37q1 18 1 278q0 97 -6.5 118.5t-42.5 75.5l-131 199l-223 325q-58 85 -101 114q-19 13 -95 20q-8 0 -24 2zM595 1406l124 179
q54 79 107 114q22 15 48 15q27 0 43 -15t16 -35q0 -19 -14 -40t-67 -57l-235 -161l-11 -1z" />
    <glyph glyph-name="yacute" unicode="&#xfd;" horiz-adv-x="853" 
d="M12 788q22 2 37 2h48l65 2l85 -3l69 2q55 0 99 -7q4 -10 4 -16l-1 -8q-21 -10 -65 -14q-62 -5 -89 -22l-2 -11q0 -10 8 -30q5 -12 13 -36q22 -74 95 -286q53 -153 98 -263q28 60 64 152l85 237q28 78 43 156q6 31 6 49q0 15 -13 28t-52 22q-71 18 -77 22.5t-7 19.5
q6 5 14 8h62l67 -1l100 1l64 -1l16 1q7 0 23 -2q10 -5 10 -16q0 -10 -9 -18l-20 -3q-58 -8 -89 -30q-17 -12 -29 -50q-4 -14 -13 -36q-5 -12 -14.5 -40t-24.5 -66l-12 -28l-1 -5l-170 -448l-124 -337q-12 -25 -28 -62q-38 -71 -45 -78q-30 -37 -52 -52l-51 -22
q-15 -4 -32 -4q-45 0 -66 19.5t-21 53.5q0 32 31 58q10 3 20 8l13 3q89 -16 111 -16q21 11 31 26q49 73 84 163t35 121q0 34 -26 99l-111 294q-23 57 -137 372q-7 20 -18 30l-68 25l-21 4q-17 7 -17 20zM329 984l124 179q54 79 107 114q22 15 48 15q27 0 43 -15t16 -35
q0 -19 -14 -40t-67 -57l-235 -161l-11 -1z" />
    <glyph glyph-name="Thorn" unicode="&#xde;" horiz-adv-x="1152" 
d="M415 982q75 15 103 17q40 4 116 4q169 0 263 -41.5t147.5 -137t53.5 -194.5q0 -162 -114 -274t-272 -112q-74 0 -144.5 21.5t-137.5 64.5q4 -68 4 -108q0 -10 -2.5 -37t-2.5 -47q0 -48 8 -73q24 -7 140 -33q54 -13 59 -15q8 -3 14 -13q-4 -15 -10.5 -19.5t-25.5 -4.5
q-12 0 -56 5q-86 9 -135 9l-176 -7l-105 3q-10 0 -58 -2l-1 26l130 25q32 9 39 18q10 14 10 55q0 9 1 39q1 21 1 58q0 118 -10 503q-4 180 -4 366v17q0 72 -22 91q-37 33 -185 54q-5 11 -5 18q0 8 6 19q18 3 23 3q34 0 112 -4q41 -1 57 -1q17 0 33 1l100 4l52 -4l23 -1
l147 5q6 0 23 -3q7 -12 7 -18q0 -7 -5 -19q-141 -20 -185 -54q-23 -18 -23 -83q0 -14 4 -58q2 -33 3 -63zM415 928q2 -159 6 -193v-56l9 -304q55 -30 104 -45t92 -15q81 0 151.5 39t106.5 111.5t36 151.5q0 88 -48.5 170.5t-127 119.5t-218.5 37q-55 0 -111 -16z" />
    <glyph glyph-name="thorn" unicode="&#xfe;" horiz-adv-x="1045" 
d="M25 -522q-1 11 -1 20q0 7 2 17l100 20q24 12 39 29q5 18 5 36l-11 855l2 446q0 237 -4 256q-6 30 -57.5 51t-70.5 31v22q27 9 61 19q51 16 148 49h47q1 -20 1 -25q-2 -69 -2 -77l2 -222l-1 -314q74 56 154 83.5t166 27.5q154 0 260 -108.5t106 -279.5q0 -127 -59.5 -228
t-164 -151t-210.5 -50q-90 0 -206 49q-19 8 -34 14q-2 -80 -2 -142q0 -309 17 -346q9 -20 56 -24q80 -6 106 -23q15 -9 20 -36l-99 -2l-90 2l-150 -1zM286 622q-2 -14 -2 -26q0 -357 7 -400q14 -79 56 -111q65 -51 186 -51q125 0 211 86.5t86 224.5q0 166 -91 263t-240 97
q-63 0 -116 -20.5t-97 -62.5z" />
    <glyph glyph-name="minus" unicode="&#x2212;" horiz-adv-x="1365" 
d="M146 681h1074v-88h-1074v88z" />
    <glyph glyph-name="multiply" unicode="&#xd7;" horiz-adv-x="1365" 
d="M197 1061l61 62l426 -426l426 426l61 -62l-425 -427l421 -421l-62 -62l-421 422l-424 -422l-62 62l423 421z" />
    <glyph glyph-name="onesuperior" unicode="&#xb9;" horiz-adv-x="640" 
d="M474 626h-294v8q0 14 6.5 20.5t32.5 11t49 12.5q7 85 7 373l-1 98q0 10 1 48q-117 -72 -137 -72q-8 0 -16 6l-6 9q0 15 49 42q6 3 44 31q52 38 75.5 59t35.5 28l28 1q18 0 24.5 -5.5t6.5 -17.5l-1 -24l1 -71q0 -7 -1 -47q-3 -108 -3 -342v-30l-1 -63q0 -14 10 -22
t42.5 -11t40.5 -10t8 -23z" />
    <glyph glyph-name="twosuperior" unicode="&#xb2;" horiz-adv-x="640" 
d="M563 626q-95 3 -257 3l-137 -3l-38 2l-49 -2q-6 0 -31 6q12 27 22 38q56 59 155 146q129 112 169 176.5t40 119.5q0 51 -37.5 86.5t-93.5 35.5q-48 0 -89.5 -24t-53.5 -51l-26 -58q-9 -10 -27 -10q-8 0 -13.5 6.5t-5.5 16.5q0 29 32.5 82t84 79t122.5 26
q99 0 160.5 -54.5t61.5 -123.5q0 -56 -40.5 -114t-197.5 -183q-70 -56 -138 -124q80 -2 144 -2q16 0 35 1q32 1 38 1l84 -2q13 0 23 11t35 64h38q9 -5 9 -11l-5 -34q-8 -50 -14 -104z" />
    <glyph glyph-name="threesuperior" unicode="&#xb3;" horiz-adv-x="640" 
d="M143 1136l-37 17q35 75 79 107q59 44 143 44q78 0 124 -37.5t46 -76.5q0 -35 -24.5 -70t-93.5 -83q91 -11 136.5 -60t45.5 -120q0 -97 -84 -172t-225 -75q-106 0 -154 28q-27 15 -27 35q0 12 13.5 23.5t35.5 11.5q23 0 51 -18q67 -44 110 -44q70 0 122 53t52 129
q0 67 -40 112q-31 35 -83 35q-40 0 -94 -42l-24 34q34 26 62 43q125 80 125 138q0 38 -28.5 64t-79.5 26q-82 0 -151 -102z" />
    <glyph glyph-name="onehalf" unicode="&#xbd;" horiz-adv-x="1664" 
d="M474 626h-294v8q0 14 6.5 20.5t32.5 11t49 12.5q7 85 7 373l-1 98q0 10 1 48q-117 -72 -137 -72q-8 0 -16 6l-6 9q0 15 49 42q6 3 44 31q52 38 75.5 59t35.5 28l28 1q18 0 24.5 -5.5t6.5 -17.5l-1 -24l1 -71q0 -7 -1 -47q-3 -108 -3 -342v-30l-1 -63q0 -14 10 -22
t42.5 -11t40.5 -10t8 -23zM1571 6q-95 3 -257 3l-137 -3l-38 2l-49 -2q-6 0 -31 6q12 27 22 38q56 59 155 146q129 112 169 176.5t40 119.5q0 51 -37.5 86.5t-93.5 35.5q-48 0 -89.5 -24t-53.5 -51l-26 -58q-9 -10 -27 -10q-8 0 -13.5 6.5t-5.5 16.5q0 29 32.5 82t84 79
t122.5 26q99 0 160.5 -54.5t61.5 -123.5q0 -56 -40.5 -114t-197.5 -183q-70 -56 -138 -124q80 -2 144 -2q16 0 35 1q32 1 38 1l84 -2q13 0 23 11t35 64h38q9 -5 9 -11l-5 -34q-8 -50 -14 -104zM336 -67q8 19 20.5 37t31.5 50q7 11 74.5 112.5t91.5 142.5q448 758 648 1029
l10 1q47 -3 53 -3l-437 -685l-199 -329l-230 -353h-7q-5 0 -48 -2h-8z" />
    <glyph glyph-name="onequarter" unicode="&#xbc;" horiz-adv-x="1664" 
d="M474 626h-294v8q0 14 6.5 20.5t32.5 11t49 12.5q7 85 7 373l-1 98q0 10 1 48q-117 -72 -137 -72q-8 0 -16 6l-6 9q0 15 49 42q6 3 44 31q52 38 75.5 59t35.5 28l28 1q18 0 24.5 -5.5t6.5 -17.5l-1 -24l1 -71q0 -7 -1 -47q-3 -108 -3 -342v-30l-1 -63q0 -14 10 -22
t42.5 -11t40.5 -10t8 -23zM372 -71q8 19 20.5 37t31.5 50q7 11 74.5 112.5t91.5 142.5q448 758 648 1029l10 1q47 -3 53 -3l-437 -685l-199 -329l-230 -353h-7q-5 0 -48 -2h-8zM1433 684h47l-1 -22l2 -78l-4 -68l2 -32q1 -40 1 -49v-52l1 -82q0 -17 -1 -51h20l62 -1l45 1
q1 -20 1 -30t-1 -30l-31 -1h-19q-58 0 -77 1q-1 -90 0 -188q-8 -6 -17 -9l-40 -1q-15 0 -48 2q2 51 2 94q0 23 -1 39q-2 37 -2 42t1 20q-22 -1 -28 -1h-14q-58 3 -65 3q-8 0 -41 -4l-60 3l-33 -1q-46 0 -68 7q-1 12 -1 18t1 17q18 22 65 82q122 159 191 235q22 26 50.5 63.5
t60.5 72.5zM1375 250l1 78l-1 66l1 65l-1 62v15l-130 -165q-74 -95 -92 -120h23l161 -2q13 0 38 1z" />
    <glyph glyph-name="threequarters" unicode="&#xbe;" horiz-adv-x="1685" 
d="M143 1136l-37 17q35 75 79 107q59 44 143 44q78 0 124 -37.5t46 -76.5q0 -35 -24.5 -70t-93.5 -83q91 -11 136.5 -60t45.5 -120q0 -97 -84 -172t-225 -75q-106 0 -154 28q-27 15 -27 35q0 12 13.5 23.5t35.5 11.5q23 0 51 -18q67 -44 110 -44q70 0 122 53t52 129
q0 67 -40 112q-31 35 -83 35q-40 0 -94 -42l-24 34q34 26 62 43q125 80 125 138q0 38 -28.5 64t-79.5 26q-82 0 -151 -102zM380 -67q8 19 20.5 37t31.5 50q7 11 74.5 112.5t91.5 142.5q448 758 648 1029l10 1q47 -3 53 -3l-437 -685l-199 -329l-230 -353h-7q-5 0 -48 -2h-8z
M1445 684h47l-1 -22l2 -78l-4 -68l2 -32q1 -40 1 -49v-52l1 -82q0 -17 -1 -51h20l62 -1l45 1q1 -20 1 -30t-1 -30l-31 -1h-19q-58 0 -77 1q-1 -90 0 -188q-8 -6 -17 -9l-40 -1q-15 0 -48 2q2 51 2 94q0 23 -1 39q-2 37 -2 42t1 20q-22 -1 -28 -1h-14q-58 3 -65 3
q-8 0 -41 -4l-60 3l-33 -1q-46 0 -68 7q-1 12 -1 18t1 17q18 22 65 82q122 159 191 235q22 26 50.5 63.5t60.5 72.5zM1387 250l1 78l-1 66l1 65l-1 62v15l-130 -165q-74 -95 -92 -120h23l161 -2q13 0 38 1z" />
    <glyph glyph-name="franc" unicode="&#x20a3;" horiz-adv-x="1344" 
d="M950 865l34 -1q6 -50 6 -222l-1 -17q0 -6 2 -19q38 69 96 127l22 23q23 25 64.5 46t67.5 21q43 0 71.5 -29.5t28.5 -72.5q0 -34 -21 -53q-27 -25 -62 -25q-16 0 -63 17t-62 17q-28 0 -38 -9q-29 -22 -69 -90q-31 -51 -31 -94l6 -165l1 -198q3 -34 8 -44q4 -7 20 -17
q108 -9 128 -13q14 -1 21 -2q43 -1 61 -12q8 -5 8 -15q0 -6 -8 -16l-111 1l-42 1l-61 -1h-102l-55 -3l-168 -3l-4 13q0 7 9 21l60 12l82 15q10 4 14 14q6 13 6 73q0 420 -10 454q-16 50 -94 50h-185q-150 0 -168 -11q-4 -12 -4 -17v-69q0 -12 1 -100l-2 -331q0 -14 8 -35
q21 -17 76.5 -22.5t104.5 -26.5q28 -13 28 -29q0 -7 -4 -13t-14 -9q-82 17 -227 17q-77 0 -163 -14q-59 -9 -135 -9l-20 5l1 25q22 11 73.5 19.5t71 17t32.5 22.5q9 44 9 159l-14 778l3 129q0 40 -14.5 55t-75.5 27.5t-72 20.5t-11 17q0 5 3 13q13 8 27 8q15 0 61 -2h28
q14 0 79 2h139l287 5l304 12h27l43 1q18 0 32 -10q6 -16 7 -23l-1 -40l9 -179q0 -11 -2 -28q-16 -7 -29 -7q-9 0 -14 6q-8 11 -10 42q-4 43 -31 111q-13 32 -43 44q-60 23 -202 23q-67 0 -125 -3.5t-71 -3.5l-78 1q-48 0 -79 -14q-21 -9 -21 -43v-15q3 -51 3 -113l-3 -272
q0 -40 6 -76l29 -2l56 3h201q89 0 151 41t104 129z" />
    <glyph glyph-name="Gbreve" unicode="&#x11e;" horiz-adv-x="1579" 
d="M1335 1214l11 -152q6 -69 6 -94l-28 -5q-67 152 -166.5 228t-243.5 76q-176 0 -274 -43q-142 -61 -243 -212t-101 -364q0 -123 37 -221t104.5 -182.5t159.5 -146.5q60 -41 143 -62q47 -11 140 -11q60 0 133 17t110 45.5t50.5 64.5t13.5 140q0 173 -23 201.5t-145 37.5
l-40 3l-27 -1q-6 1 -16 3l-15 25q0 5 7 13q52 8 226 8q39 0 127 -2l103 -4l93 1q27 0 65 -2q7 -1 9 -3.5t2 -8.5q0 -11 -5 -28q-42 -9 -65 -9l-65 1q-33 0 -53 -23q-10 -11 -10 -75l1 -131q0 -135 -11 -172q-6 -22 -25 -39.5t-80 -41.5q-87 -35 -158 -47q-132 -23 -255 -23
q-198 0 -324.5 50.5t-218 140.5t-130.5 182q-59 135 -59 275q0 175 92.5 342.5t298.5 272.5q145 74 394 74q172 0 281.5 -30t173.5 -68zM581 1688h28q16 -81 71 -124.5t145 -43.5t145.5 44.5t69.5 122.5h33q-3 -122 -78 -201.5t-172 -79.5q-113 0 -187 103q-55 76 -55 167
v12z" />
    <glyph glyph-name="gbreve" unicode="&#x11f;" horiz-adv-x="917" 
d="M270 -66q-12 6 -77 33q-76 49 -96 73t-20 53q0 26 15 42q22 23 87 44t107 41q-13 9 -41 26q-149 92 -149 255q0 134 94.5 226.5t242.5 92.5q67 0 123 -19q32 -10 95 -50q40 -25 47 -28q16 -5 36 -5q17 0 82.5 8.5t77.5 8.5q23 0 38 -9q12 -20 12 -67q0 -16 -8.5 -24
t-24.5 -8q-28 0 -92.5 17.5t-78.5 17.5q-5 0 -19 -2q43 -86 43 -157t-45 -147t-124 -116t-160 -40q-6 0 -34 1q-92 0 -169 -46q-37 -23 -37 -43q0 -21 36 -41q95 -51 360 -59q115 -4 179 -33t96.5 -85.5t32.5 -116.5q0 -81 -55 -150t-167 -112t-257 -43q-160 0 -247 39
t-123.5 85t-36.5 91q0 39 40 97.5t166 122.5q37 19 51 27zM230 505q0 -90 27 -150.5t74 -90t95 -29.5q87 0 144.5 66.5t57.5 202.5q0 137 -60 208.5t-145 71.5q-95 0 -144 -68t-49 -211zM197 -421q91 -70 230 -70q99 0 197.5 31.5t144 90t45.5 110.5q0 32 -16 63.5t-43.5 52
t-72.5 32.5q-32 9 -91 13q-168 13 -206 13q-107 0 -191 -72q-65 -56 -65 -134q0 -72 68 -130zM230 1233h28q16 -81 71 -124.5t145 -43.5t145.5 44.5t69.5 122.5h33q-3 -122 -78 -201.5t-172 -79.5q-113 0 -187 103q-55 76 -55 167v12z" />
    <glyph glyph-name="Idotaccent" unicode="&#x130;" horiz-adv-x="725" 
d="M43 32q22 9 45 11q153 10 175 36.5t22 256.5l-1 105v110l-4 121l2 71l-1 78v92l-2 41l2 52q1 18 1 42q0 63 -6 133q-4 14 -11 27q-37 19 -119.5 25.5t-93.5 14.5q-8 6 -9 31h84l265 -6q102 0 272 6q0 -16 -2 -30q-20 -5 -67 -11q-95 -11 -116 -21q-13 -5 -19 -17
q-10 -18 -12 -67l-5 -129l4 -445v-176q-2 -83 -2 -113q0 -112 5.5 -143t19 -44.5t44.5 -21.5q46 -11 72 -12q56 -2 71 -16q3 -13 3 -22v-8q-91 -3 -134 -3q-25 0 -89 3l-138 -2l-235 1h-19zM306 1569q0 39 25 64t61 25t61 -25t25 -61t-25 -61.5t-61 -25.5q-35 0 -60.5 25
t-25.5 59z" />
    <glyph glyph-name="Scedilla" unicode="&#x15e;" horiz-adv-x="981" 
d="M795 1234q8 -66 8 -76l-4 -89q-2 -57 -5 -73q-9 -4 -15 -4l-9 2q-32 140 -108.5 204t-186.5 64q-114 0 -187 -64t-73 -149q0 -65 51 -119t261 -162q160 -83 229 -135.5t104 -121.5t35 -154q0 -107 -55.5 -201t-149.5 -141.5t-249 -47.5q-135 0 -259 43q-73 26 -89 42
t-16 34q0 11 2 28q14 118 15 194q2 47 7 55q4 7 15 7q9 0 14.5 -6.5t7.5 -24.5q11 -123 114 -220q102 -97 231 -97q79 0 145.5 33t104 95.5t37.5 121.5q0 81 -57 148t-229 156.5t-224 130.5q-84 67 -126 142q-31 58 -31 135q0 139 110 235.5t295 96.5q102 0 176 -23
q54 -18 111 -59zM382 -175q10 16 36 48q38 48 97 141h34l-78 -125q78 -60 78 -140q0 -77 -51.5 -128.5t-125.5 -51.5q-53 0 -87.5 28.5t-34.5 55.5q0 20 14 37q10 12 24 12q22 0 53 -43t64 -43q27 0 49 26t22 68q0 37 -23.5 67.5t-70.5 47.5z" />
    <glyph glyph-name="scedilla" unicode="&#x15f;" horiz-adv-x="747" 
d="M145 254q37 -95 56 -123q38 -57 91 -88.5t115 -31.5q57 0 113 49q40 37 40 86q0 65 -47 120q-47 54 -178.5 103.5t-176.5 105.5t-45 128q0 68 37 120t102 78.5t120 26.5q71 0 127.5 -11t97.5 -34q8 -51 13 -150l2 -32q-13 -1 -22 -1h-14q-30 83 -91.5 131.5t-121.5 48.5
t-97 -36.5t-37 -95.5q0 -45 30 -80t140.5 -80t161 -83.5t74.5 -93.5t24 -105q0 -69 -45.5 -129t-114 -84.5t-122.5 -24.5q-127 0 -234 47q-10 8 -11 30q0 9 -2 29q-16 135 -16 160q0 12 5 16t26 4zM263 -175q10 16 36 48q38 48 97 141h34l-78 -125q78 -60 78 -140
q0 -77 -51.5 -128.5t-125.5 -51.5q-53 0 -87.5 28.5t-34.5 55.5q0 20 14 37q10 12 24 12q22 0 53 -43t64 -43q27 0 49 26t22 68q0 37 -23.5 67.5t-70.5 47.5z" />
    <glyph glyph-name="Cacute" unicode="&#x106;" horiz-adv-x="1301" 
d="M1185 1224q12 -77 12 -158q0 -16 -1 -43q-14 -3 -21 -3q-6 0 -17 2q-42 117 -137 180t-235 63q-74 0 -125 -17q-90 -31 -158 -85.5t-115 -130t-74.5 -183t-27.5 -219.5q0 -214 65 -353.5t178 -199t228 -59.5l47 1q80 10 109 19q73 21 120.5 49.5t93 80.5t77.5 121l12 4
q5 0 15 -6q-1 -24 -2 -31q-42 -169 -61 -231q-16 -4 -40 -12q-117 -40 -313 -40q-158 0 -236.5 21.5t-171 67t-162.5 120.5t-113 189.5t-43 249.5q0 128 34 223.5t105 193.5t167.5 163t214.5 92q83 18 235 18q111 0 209 -29.5t131 -57.5zM653 1406l124 179q54 79 107 114
q22 15 48 15q27 0 43 -15t16 -35q0 -19 -14 -40t-67 -57l-235 -161l-11 -1z" />
    <glyph glyph-name="cacute" unicode="&#x107;" horiz-adv-x="853" 
d="M799 183l1 -65q-78 -83 -154 -116t-179 -33q-112 0 -202 58.5t-138.5 165.5t-48.5 210q0 113 58.5 213.5t155 150t242.5 49.5q140 0 213 -48q41 -28 41 -72q0 -32 -21 -53t-54 -21q-50 0 -110 62q-37 38 -67 52.5t-67 14.5q-89 0 -148 -73q-82 -104 -82 -261
q0 -162 84 -258t196 -96q78 0 138.5 25.5t141.5 94.5zM369 984l124 179q54 79 107 114q22 15 48 15q27 0 43 -15t16 -35q0 -19 -14 -40t-67 -57l-235 -161l-11 -1z" />
    <glyph glyph-name="Ccaron" unicode="&#x10c;" horiz-adv-x="1301" 
d="M1185 1224q12 -77 12 -158q0 -16 -1 -43q-14 -3 -21 -3q-6 0 -17 2q-42 117 -137 180t-235 63q-74 0 -125 -17q-90 -31 -158 -85.5t-115 -130t-74.5 -183t-27.5 -219.5q0 -214 65 -353.5t178 -199t228 -59.5l47 1q80 10 109 19q73 21 120.5 49.5t93 80.5t77.5 121l12 4
q5 0 15 -6q-1 -24 -2 -31q-42 -169 -61 -231q-16 -4 -40 -12q-117 -40 -313 -40q-158 0 -236.5 21.5t-171 67t-162.5 120.5t-113 189.5t-43 249.5q0 128 34 223.5t105 193.5t167.5 163t214.5 92q83 18 235 18q111 0 209 -29.5t131 -57.5zM986 1732q-136 -240 -191 -326h-57
q-11 16 -80 133l-111 192l4 26q28 -27 186 -183q17 -16 40 -36q25 28 206 223q3 -9 3 -16v-13z" />
    <glyph glyph-name="ccaron" unicode="&#x10d;" horiz-adv-x="853" 
d="M799 183l1 -65q-78 -83 -154 -116t-179 -33q-112 0 -202 58.5t-138.5 165.5t-48.5 210q0 113 58.5 213.5t155 150t242.5 49.5q140 0 213 -48q41 -28 41 -72q0 -32 -21 -53t-54 -21q-50 0 -110 62q-37 38 -67 52.5t-67 14.5q-89 0 -148 -73q-82 -104 -82 -261
q0 -162 84 -258t196 -96q78 0 138.5 25.5t141.5 94.5zM732 1303q-136 -240 -191 -326h-57q-11 16 -80 133l-111 192l4 26q28 -27 186 -183q17 -16 40 -36q25 28 206 223q3 -9 3 -16v-13z" />
    <glyph glyph-name="dmacron" unicode="&#x111;" horiz-adv-x="1024" 
d="M731 984q-149 -1 -181 -1h-160v55q137 -1 179 -1l162 1v44q0 102 -19 127.5t-118 51.5q-7 2 -22 6v11q0 10 2 22q136 14 234 47l51 1q4 -68 4 -155q0 -51 -2 -154h80q32 0 97 -1v-55q-61 1 -82 1h-95q-2 -137 -2 -172l7 -435l-3 -231q0 -71 10 -80q20 -20 88 -21
q14 0 38 -2v-18q0 -7 -1 -15q-31 -7 -64 -13l-145 -28q-32 -6 -51 -6v96q-17 -5 -53 -20q-156 -66 -287 -66q-79 0 -161 51.5t-126 143.5t-44 188q0 86 29 164.5t76 130.5q30 34 85 67.5t91 42.5q89 23 119 23q135 0 222 -40q27 -13 41 -18l1 29l-1 117zM731 108q4 67 4 276
q0 177 -16.5 223.5t-82.5 88t-148 41.5q-115 0 -195 -89t-80 -263q0 -153 86.5 -244t215.5 -91q74 0 135 20t81 38z" />
    <glyph glyph-name="sfthyphen" unicode="&#xad;" horiz-adv-x="640" 
d="M82 442h14l78 -1l134 5l98 -3l51 2q71 0 105 -9l2 -79q-62 -5 -100 -5q-35 0 -71 3q-48 3 -58 3l-42 -1q-18 -1 -43 -1q-125 0 -172 11l-2 29q0 17 6 46z" />
    <glyph glyph-name="overscore" unicode="&#xaf;" horiz-adv-x="1024" 
d="M-12 1625h1048v-103h-1048v103z" />
    <glyph glyph-name="middot" unicode="&#xb7;" horiz-adv-x="683" 
d="M527 692q0 44 32.5 77t75.5 33q42 0 71 -31t29 -78q0 -48 -30.5 -79.5t-73.5 -31.5q-42 0 -73 32.5t-31 77.5z" />
    <glyph glyph-name="foursuperior" unicode="&#xf003;" horiz-adv-x="640" 
d="M425 1304h47l-1 -22l2 -78l-4 -68l2 -32q1 -40 1 -49v-52l1 -82q0 -17 -1 -51h20l62 -1l45 1q1 -20 1 -30t-1 -30l-31 -1h-19q-58 0 -77 1q-1 -90 0 -188q-8 -6 -17 -9l-40 -1q-15 0 -48 2q2 51 2 94q0 23 -1 39q-2 37 -2 42t1 20q-22 -1 -28 -1h-14q-58 3 -65 3
q-8 0 -41 -4l-60 3l-33 -1q-46 0 -68 7q-1 12 -1 18t1 17q18 22 65 82q122 159 191 235q22 26 50.5 63.5t60.5 72.5zM367 870l1 78l-1 66l1 65l-1 62v15l-130 -165q-74 -95 -92 -120h23l161 -2q13 0 38 1z" />
    <glyph glyph-name="Amacron" unicode="&#x100;" horiz-adv-x="1387" 
d="M-11 32q14 8 25 8h23q7 0 24 1q77 7 91 14q35 19 60 66q52 102 117 289q31 89 39 108q25 60 48 126l94 263q22 62 106 284q21 56 51 150l29 2l35 -1q43 -85 76 -183q18 -52 59 -155l152 -411l81 -223q64 -190 84 -233.5t37 -57.5q5 -4 37.5 -12t45.5 -12q46 -13 64 -22
q4 -11 4 -17q0 -5 -3 -15q-32 -1 -45 -1q-51 0 -180 3l-100 3l-121 -2q-12 0 -24.5 1.5t-21.5 1.5h-22q-11 1 -20 6q0 14 5 27q12 6 22 7l105 7q41 2 62 11q6 18 6 27q0 18 -26 93q-18 50 -31.5 95t-106.5 296q-41 7 -72 7l-214 -2l-63 1q-34 0 -75 -5q-13 -30 -17 -43
l-88 -275q-56 -157 -56 -173q0 -9 9 -30q21 -6 56 -11l136 -12q11 -9 11 -16q0 -5 -3 -15q-45 -1 -69 -1q-80 0 -186 5q-49 2 -70 2t-73 -2q-34 -2 -49 -2q-24 0 -62 3v6q0 7 4 19zM466 632q107 -6 244 -6q78 0 137 5q-10 39 -23 73q-65 174 -72 192l-91 231l-10 18
q-6 -12 -44 -103q-64 -156 -92 -243q-13 -39 -27 -77.5t-17.5 -54t-10.5 -31.5zM418 1502q-1 30 -1 45t1 46l126 -5q111 0 408 5q2 -31 2 -46t-2 -45q-200 -3 -223 -3q-250 0 -311 3z" />
    <glyph glyph-name="amacron" unicode="&#x101;" horiz-adv-x="832" 
d="M813 136q6 -13 6 -19q0 -15 -24 -53q-31 -50 -69 -73q-24 -15 -66 -15q-72 0 -108 44q-22 26 -31 93l-112 -78q-59 -34 -90 -43q-50 -13 -120 -13q-51 0 -80.5 30.5t-29.5 78.5q0 69 84.5 165t229.5 157q102 43 125 55q2 33 2 72q0 127 -35.5 172t-101.5 45
q-69 0 -129 -54q-37 -34 -56 -128q-6 -26 -23 -56q-43 -28 -69 -28q-22 0 -40 13q-10 7 -10 16q0 26 55.5 117.5t140 137t147.5 45.5q86 0 128 -15.5t74 -54.5t39 -85q4 -22 4 -157l-3 -159l1 -116q0 -23 -1 -39q-1 -29 -1 -43q0 -33 19 -53t45 -20q38 0 65 38l12 16
q5 3 22 7zM519 165q7 127 7 179q0 27 -3 73q-67 -24 -142 -73t-119 -113q-32 -46 -32 -87q0 -39 26.5 -65t66.5 -26q31 0 75 22q58 29 121 90zM156 1094q-1 30 -1 45t1 46l126 -5q111 0 408 5q2 -31 2 -46t-2 -45q-200 -3 -223 -3q-250 0 -311 3z" />
    <glyph glyph-name="Abreve" unicode="&#x102;" horiz-adv-x="1387" 
d="M-11 32q14 8 25 8h23q7 0 24 1q77 7 91 14q35 19 60 66q52 102 117 289q31 89 39 108q25 60 48 126l94 263q22 62 106 284q21 56 51 150l29 2l35 -1q43 -85 76 -183q18 -52 59 -155l152 -411l81 -223q64 -190 84 -233.5t37 -57.5q5 -4 37.5 -12t45.5 -12q46 -13 64 -22
q4 -11 4 -17q0 -5 -3 -15q-32 -1 -45 -1q-51 0 -180 3l-100 3l-121 -2q-12 0 -24.5 1.5t-21.5 1.5h-22q-11 1 -20 6q0 14 5 27q12 6 22 7l105 7q41 2 62 11q6 18 6 27q0 18 -26 93q-18 50 -31.5 95t-106.5 296q-41 7 -72 7l-214 -2l-63 1q-34 0 -75 -5q-13 -30 -17 -43
l-88 -275q-56 -157 -56 -173q0 -9 9 -30q21 -6 56 -11l136 -12q11 -9 11 -16q0 -5 -3 -15q-45 -1 -69 -1q-80 0 -186 5q-49 2 -70 2t-73 -2q-34 -2 -49 -2q-24 0 -62 3v6q0 7 4 19zM466 632q107 -6 244 -6q78 0 137 5q-10 39 -23 73q-65 174 -72 192l-91 231l-10 18
q-6 -12 -44 -103q-64 -156 -92 -243q-13 -39 -27 -77.5t-17.5 -54t-10.5 -31.5zM465 1697h28q16 -81 71 -124.5t145 -43.5t145.5 44.5t69.5 122.5h33q-3 -122 -78 -201.5t-172 -79.5q-113 0 -187 103q-55 76 -55 167v12z" />
    <glyph glyph-name="abreve" unicode="&#x103;" horiz-adv-x="832" 
d="M813 136q6 -13 6 -19q0 -15 -24 -53q-31 -50 -69 -73q-24 -15 -66 -15q-72 0 -108 44q-22 26 -31 93l-112 -78q-59 -34 -90 -43q-50 -13 -120 -13q-51 0 -80.5 30.5t-29.5 78.5q0 69 84.5 165t229.5 157q102 43 125 55q2 33 2 72q0 127 -35.5 172t-101.5 45
q-69 0 -129 -54q-37 -34 -56 -128q-6 -26 -23 -56q-43 -28 -69 -28q-22 0 -40 13q-10 7 -10 16q0 26 55.5 117.5t140 137t147.5 45.5q86 0 128 -15.5t74 -54.5t39 -85q4 -22 4 -157l-3 -159l1 -116q0 -23 -1 -39q-1 -29 -1 -43q0 -33 19 -53t45 -20q38 0 65 38l12 16
q5 3 22 7zM519 165q7 127 7 179q0 27 -3 73q-67 -24 -142 -73t-119 -113q-32 -46 -32 -87q0 -39 26.5 -65t66.5 -26q31 0 75 22q58 29 121 90zM211 1233h28q16 -81 71 -124.5t145 -43.5t145.5 44.5t69.5 122.5h33q-3 -122 -78 -201.5t-172 -79.5q-113 0 -187 103
q-55 76 -55 167v12z" />
    <glyph glyph-name="Aogonek" unicode="&#x104;" horiz-adv-x="1365" 
d="M1180 3q-28 -51 -28 -91q0 -66 54.5 -115.5t121.5 -49.5q61 0 124 47l23 -22q-97 -100 -213 -100q-86 0 -145 52t-59 126q0 70 69 155l-59 1l-144 -2q-13 0 -25 2q-10 1 -44 1q-12 2 -20 6q0 14 5 27q7 7 80 10q91 8 109 15q6 18 6 26q0 19 -26 94l-31 96l-107 295
q-39 7 -82 7l-204 -2l-60 1q-41 0 -78 -5q-12 -25 -30 -85l-75 -233q-56 -157 -56 -174q0 -9 9 -29q39 -12 96 -15l62 -5l6 -1l28 -2q11 -8 11 -16q0 -5 -3 -15l-65 -1q-84 0 -190 5l-69 2l-53 -1l-70 -3q-26 0 -62 3q0 15 4 25q15 8 27 8q117 0 148 21t69 100.5t96 248.5
l39 108q25 60 48 126l94 263l85 226l21 58q23 59 51 150q18 2 27 2q19 -1 37 -1q41 -79 76 -183l59 -155l152 -411l120 -339q38 -102 52 -131.5t24.5 -38.5t43.5 -17q32 -8 45 -12l21 -6q26 -7 43 -16q4 -11 4 -17q0 -5 -3 -15l-42 -1zM467 632q99 -6 236 -6q93 0 145 5
q-9 38 -35 106l-45 122l-71 173q-36 96 -45 113q-78 -161 -181 -479q-10 -20 -10 -28q0 -3 6 -6z" />
    <glyph glyph-name="aogonek" unicode="&#x105;" horiz-adv-x="832" 
d="M943 -206l24 -22q-97 -100 -213 -100q-87 0 -146 52t-59 127q0 61 54 134q-73 24 -82 128l-44 -32q-86 -63 -139.5 -82.5t-137.5 -19.5q-56 0 -83.5 33t-27.5 77q0 78 90.5 171.5t223.5 149.5q120 51 125 55q2 28 2 72q0 139 -40.5 178t-96.5 39q-37 0 -90 -26t-71.5 -78
t-23.5 -78q-6 -28 -23 -56q-42 -28 -69 -28q-12 0 -31 8t-19 21q0 21 51 111t136 139.5t157 49.5q82 0 123 -14t75 -53t40 -73.5t6 -171.5l-3 -159l1 -115q0 -24 -1 -40l-1 -43q0 -37 21 -55t44 -18q37 0 64 38q13 19 34 23q6 -13 6 -20q0 -15 -25 -53.5t-47 -56.5t-61 -29
q-30 -9 -33 -10t-6 -18t-3 -35q0 -69 55 -118t121 -49q61 0 123 47zM519 165l2 54l1 32l4 89q0 33 -3 77q-127 -48 -210 -126t-83 -147q0 -38 26 -64.5t67 -26.5q21 0 45 10l10 4q64 23 141 98z" />
    <glyph glyph-name="Ccircumflex" unicode="&#x108;" horiz-adv-x="1301" 
d="M1185 1224q12 -77 12 -158q0 -16 -1 -43q-14 -3 -21 -3q-6 0 -17 2q-42 117 -137 180t-235 63q-74 0 -125 -17q-90 -31 -158 -85.5t-115 -130t-74.5 -183t-27.5 -219.5q0 -214 65 -353.5t178 -199t228 -59.5l47 1q80 10 109 19q73 21 120.5 49.5t93 80.5t77.5 121l12 4
q5 0 15 -6q-1 -24 -2 -31q-42 -169 -61 -231q-16 -4 -40 -12q-117 -40 -313 -40q-158 0 -236.5 21.5t-171 67t-162.5 120.5t-113 189.5t-43 249.5q0 128 34 223.5t105 193.5t167.5 163t214.5 92q83 18 235 18q111 0 209 -29.5t131 -57.5zM587 1434q136 240 191 326h57
q11 -16 80 -134l111 -191l-4 -26q-28 27 -186 183q-17 16 -40 36q-25 -29 -206 -223q-3 9 -3 16v13z" />
    <glyph glyph-name="ccircumflex" unicode="&#x109;" horiz-adv-x="853" 
d="M799 183l1 -65q-78 -83 -154 -116t-179 -33q-112 0 -202 58.5t-138.5 165.5t-48.5 210q0 113 58.5 213.5t155 150t242.5 49.5q140 0 213 -48q41 -28 41 -72q0 -32 -21 -53t-54 -21q-50 0 -110 62q-37 38 -67 52.5t-67 14.5q-89 0 -148 -73q-82 -104 -82 -261
q0 -162 84 -258t196 -96q78 0 138.5 25.5t141.5 94.5zM273 1006q136 240 191 326h57q11 -16 80 -134l111 -191l-4 -26q-28 27 -186 183q-17 16 -40 36q-25 -29 -206 -223q-3 9 -3 16v13z" />
    <glyph glyph-name="Cdot" unicode="&#x10a;" horiz-adv-x="1301" 
d="M1185 1224q12 -77 12 -158q0 -16 -1 -43q-14 -3 -21 -3q-6 0 -17 2q-42 117 -137 180t-235 63q-74 0 -125 -17q-90 -31 -158 -85.5t-115 -130t-74.5 -183t-27.5 -219.5q0 -214 65 -353.5t178 -199t228 -59.5l47 1q80 10 109 19q73 21 120.5 49.5t93 80.5t77.5 121l12 4
q5 0 15 -6q-1 -24 -2 -31q-42 -169 -61 -231q-16 -4 -40 -12q-117 -40 -313 -40q-158 0 -236.5 21.5t-171 67t-162.5 120.5t-113 189.5t-43 249.5q0 128 34 223.5t105 193.5t167.5 163t214.5 92q83 18 235 18q111 0 209 -29.5t131 -57.5zM717 1484q0 39 25 64t61 25t61 -25
t25 -61t-25 -61.5t-61 -25.5q-35 0 -60.5 25t-25.5 59z" />
    <glyph glyph-name="cdot" unicode="&#x10b;" horiz-adv-x="853" 
d="M799 183l1 -65q-78 -83 -154 -116t-179 -33q-112 0 -202 58.5t-138.5 165.5t-48.5 210q0 113 58.5 213.5t155 150t242.5 49.5q140 0 213 -48q41 -28 41 -72q0 -32 -21 -53t-54 -21q-50 0 -110 62q-37 38 -67 52.5t-67 14.5q-89 0 -148 -73q-82 -104 -82 -261
q0 -162 84 -258t196 -96q78 0 138.5 25.5t141.5 94.5zM417 1140q0 39 25 64t61 25t61 -25t25 -61t-25 -61.5t-61 -25.5q-35 0 -60.5 25t-25.5 59z" />
    <glyph glyph-name="Dcaron" unicode="&#x10e;" horiz-adv-x="1579" 
d="M24 20q37 16 86 21q71 8 106 34q27 55 27 280v158l2 95l-2 70l2 129l-3 325q0 55 -16 72q-23 25 -122 46q-41 9 -50 16.5t-11 28.5q23 5 32 5h71l37 1q37 0 82 -8q92 -6 189 -6q28 0 80 3q138 8 198 8q121 0 228.5 -24t221.5 -89q71 -41 145.5 -129.5t113 -193
t38.5 -235.5q0 -117 -42.5 -232t-118.5 -199.5t-154 -127t-238 -73.5q-66 -12 -237 -12q-113 0 -184 7q-28 4 -60 4q-5 0 -11 -1l-408 -7l-2 8q-2 5 -2 11zM533 59q76 -26 154 -26q101 0 198 31.5t171.5 89t122.5 130t68 130.5q28 85 28 221q0 130 -55 264
q-38 93 -133.5 178t-225.5 124.5t-281 39.5q-104 0 -154 -23q-6 -6 -12 -14q-6 -25 -6 -46q0 -13 1 -31q3 -116 3 -186l-1 -227q0 -500 18.5 -556.5t103.5 -98.5zM915 1739q-136 -240 -191 -326h-57q-11 16 -80 133l-111 192l4 26q28 -27 186 -183q17 -16 40 -36
q25 28 206 223q3 -9 3 -16v-13z" />
    <glyph glyph-name="dcaron" unicode="&#x10f;" horiz-adv-x="1323" 
d="M730 726l1 29l-1 117l1 221q0 92 -20 117t-117 51q-7 2 -22 6v11q0 10 2 22q136 14 234 47l51 1q4 -68 4 -152l-4 -385l7 -434l-3 -231q0 -71 10 -80q20 -20 88 -21q14 0 38 -2v-18q0 -7 -1 -15q-31 -7 -64 -13l-145 -28q-32 -6 -51 -6v96q-17 -5 -53 -20
q-156 -66 -287 -66q-79 0 -161 51.5t-126 143.5t-44 188q0 86 29 164.5t76 130.5q30 34 85 67.5t91 42.5q89 23 119 23q135 0 222 -40q27 -13 41 -18zM731 108q4 67 4 276q0 177 -16.5 223.5t-82.5 88t-148 41.5q-115 0 -195 -89t-80 -263q0 -153 86.5 -244t215.5 -91
q74 0 135 20t81 38zM977 851l-5 46q94 41 141.5 105t47.5 105q0 30 -16 50t-32 20l-31 -1l-32 -1q-22 0 -47.5 22.5t-25.5 58.5q0 40 36.5 66t67.5 26q71 0 128 -51.5t57 -127.5q0 -118 -109.5 -217t-179.5 -101z" />
    <glyph glyph-name="Dslash" unicode="&#x110;" horiz-adv-x="1579" 
d="M245 617l-225 3q-5 18 -5 27t5 27l224 -2l1 135l-2 85l-1 137q0 135 -4.5 152.5t-21.5 32t-66 25.5l-45 11q-41 9 -50 16.5t-12 28.5q23 5 33 5q168 0 189 -7q75 -6 190 -6q27 0 79 3q138 8 198 8q354 0 551 -191.5t197 -479.5q0 -210 -112.5 -368t-260.5 -217t-417 -59
q-114 0 -185 7q-27 3 -71 3l-407 -7q-2 6 -3 8q-2 5 -2 11q0 2 2 15q37 16 86 21q75 8 106 34q27 27 27 438l3 95q0 1 -1 9zM412 617l2 -190q0 -224 18.5 -275.5t100.5 -92.5q70 -26 154 -26q124 0 235.5 45t182.5 115.5t120.5 172t49.5 269.5q0 270 -182 438t-513 168
q-112 0 -154 -23q-6 -5 -11 -14q-7 -24 -7 -46q0 -13 1 -31l4 -182l-1 -275l108 -1l260 5q-5 -18 -5 -27t5 -27z" />
    <glyph glyph-name="Emacron" unicode="&#x112;" horiz-adv-x="1344" 
d="M50 16q10 9 17 11q17 5 58 8q97 6 120 18q14 20 14 56l-1 70l1 254l-2 120l1 251l-5 285q-1 102 -13 115q-18 19 -107 22q-38 1 -67 6q-13 7 -13 18q0 8 5 19q9 5 16 5q14 0 34 -1q59 -5 122 -5l74 2l176 -4q132 0 206 3t100 3q23 0 114 -4l142 1l17 -3l83 3l10 -5
q5 -8 7 -17q0 -14 -4.5 -43t-4.5 -36q0 -104 7 -176q-1 -6 -6 -8q-11 0 -20 3q-11 19 -29.5 67t-55.5 111q-25 42 -39 50t-58 8q-9 0 -91 2q-22 1 -43 1l-285 -6h-25q-55 0 -66 -14q-17 -24 -17 -141q0 -12 5 -240v-139q11 -3 24 -3h17q17 0 50 -1q52 -2 70 -2q12 0 21 1
q108 4 278 4q53 9 62 21q15 18 22.5 94t33.5 86q13 0 24 -5q2 -8 2 -15t-2 -23q-5 -37 -5 -232q0 -52 5.5 -116t5.5 -69q0 -9 -3 -24q-8 -4 -13 -4h-7q-16 28 -31 87q-26 101 -54.5 126.5t-92.5 25.5q-14 0 -51 -1.5t-110 -1.5h-65q-139 0 -182 -6l-1 -33l1 -184l-1 -116
l1 -113q1 -102 13 -118q17 -22 74 -22l61 1q8 0 62.5 -1.5t134.5 -1.5q193 0 257 16.5t105.5 58.5t104.5 181q19 41 38 41q9 0 20 -8q-29 -99 -33 -130q-11 -70 -13 -143q0 -33 -16 -55h-22l-281 -3l-126 1l-300 -4h-122q-23 0 -43 -1q-180 -8 -265 -8q-15 0 -20.5 5
t-5.5 15zM414 1502q-1 30 -1 45t1 46l126 -5q111 0 408 5q2 -31 2 -46t-2 -45q-200 -3 -223 -3q-250 0 -311 3z" />
    <glyph glyph-name="emacron" unicode="&#x113;" horiz-adv-x="853" 
d="M792 528l-401 -3h-76q-46 0 -94 -4q-9 -30 -9 -41l1 -10v-10l-1 -49q0 -61 38.5 -149.5t110 -135t178.5 -49.5q57 3 91 14t96 51l72 59l6 -40q0 -7 -1 -15q-45 -57 -114 -100t-140 -63q-34 -9 -112 -9q-71 0 -140 29q-102 44 -160.5 141.5t-58.5 236.5q0 44 16.5 113
t59.5 147q29 53 71 87q60 48 105 67q65 27 151 27q93 0 152 -34q80 -45 119.5 -116t39.5 -130v-14zM234 564h47q51 0 304 16q40 2 49 8q18 19 18 34q0 31 -20 70.5t-61.5 61t-96.5 21.5q-116 0 -186 -87q-54 -66 -54 -124zM197 1094q-1 30 -1 45t1 46l126 -5q111 0 408 5
q2 -31 2 -46t-2 -45q-200 -3 -223 -3q-250 0 -311 3z" />
    <glyph glyph-name="Ebreve" unicode="&#x114;" horiz-adv-x="1344" 
d="M50 16q10 9 17 11q17 5 58 8q97 6 120 18q14 20 14 56l-1 70l1 254l-2 120l1 251l-5 285q-1 102 -13 115q-18 19 -107 22q-38 1 -67 6q-13 7 -13 18q0 8 5 19q9 5 16 5q14 0 34 -1q59 -5 122 -5l74 2l176 -4q132 0 206 3t100 3q23 0 114 -4l142 1l17 -3l83 3l10 -5
q5 -8 7 -17q0 -14 -4.5 -43t-4.5 -36q0 -104 7 -176q-1 -6 -6 -8q-11 0 -20 3q-11 19 -29.5 67t-55.5 111q-25 42 -39 50t-58 8q-9 0 -91 2q-22 1 -43 1l-285 -6h-25q-55 0 -66 -14q-17 -24 -17 -141q0 -12 5 -240v-139q11 -3 24 -3h17q17 0 50 -1q52 -2 70 -2q12 0 21 1
q108 4 278 4q53 9 62 21q15 18 22.5 94t33.5 86q13 0 24 -5q2 -8 2 -15t-2 -23q-5 -37 -5 -232q0 -52 5.5 -116t5.5 -69q0 -9 -3 -24q-8 -4 -13 -4h-7q-16 28 -31 87q-26 101 -54.5 126.5t-92.5 25.5q-14 0 -51 -1.5t-110 -1.5h-65q-139 0 -182 -6l-1 -33l1 -184l-1 -116
l1 -113q1 -102 13 -118q17 -22 74 -22l61 1q8 0 62.5 -1.5t134.5 -1.5q193 0 257 16.5t105.5 58.5t104.5 181q19 41 38 41q9 0 20 -8q-29 -99 -33 -130q-11 -70 -13 -143q0 -33 -16 -55h-22l-281 -3l-126 1l-300 -4h-122q-23 0 -43 -1q-180 -8 -265 -8q-15 0 -20.5 5
t-5.5 15zM445 1697h28q16 -81 71 -124.5t145 -43.5t145.5 44.5t69.5 122.5h33q-3 -122 -78 -201.5t-172 -79.5q-113 0 -187 103q-55 76 -55 167v12z" />
    <glyph glyph-name="ebreve" unicode="&#x115;" horiz-adv-x="853" 
d="M792 528l-401 -3h-76q-46 0 -94 -4q-9 -30 -9 -41l1 -10v-10l-1 -49q0 -61 38.5 -149.5t110 -135t178.5 -49.5q57 3 91 14t96 51l72 59l6 -40q0 -7 -1 -15q-45 -57 -114 -100t-140 -63q-34 -9 -112 -9q-71 0 -140 29q-102 44 -160.5 141.5t-58.5 236.5q0 44 16.5 113
t59.5 147q29 53 71 87q60 48 105 67q65 27 151 27q93 0 152 -34q80 -45 119.5 -116t39.5 -130v-14zM234 564h47q51 0 304 16q40 2 49 8q18 19 18 34q0 31 -20 70.5t-61.5 61t-96.5 21.5q-116 0 -186 -87q-54 -66 -54 -124zM230 1233h28q16 -81 71 -124.5t145 -43.5
t145.5 44.5t69.5 122.5h33q-3 -122 -78 -201.5t-172 -79.5q-113 0 -187 103q-55 76 -55 167v12z" />
    <glyph glyph-name="Edot" unicode="&#x116;" horiz-adv-x="1344" 
d="M50 16q10 9 17 11q17 5 58 8q97 6 120 18q14 20 14 56l-1 70l1 254l-2 120l1 251l-5 285q-1 102 -13 115q-18 19 -107 22q-38 1 -67 6q-13 7 -13 18q0 8 5 19q9 5 16 5q14 0 34 -1q59 -5 122 -5l74 2l176 -4q132 0 206 3t100 3q23 0 114 -4l142 1l17 -3l83 3l10 -5
q5 -8 7 -17q0 -14 -4.5 -43t-4.5 -36q0 -104 7 -176q-1 -6 -6 -8q-11 0 -20 3q-11 19 -29.5 67t-55.5 111q-25 42 -39 50t-58 8q-9 0 -91 2q-22 1 -43 1l-285 -6h-25q-55 0 -66 -14q-17 -24 -17 -141q0 -12 5 -240v-139q11 -3 24 -3h17q17 0 50 -1q52 -2 70 -2q12 0 21 1
q108 4 278 4q53 9 62 21q15 18 22.5 94t33.5 86q13 0 24 -5q2 -8 2 -15t-2 -23q-5 -37 -5 -232q0 -52 5.5 -116t5.5 -69q0 -9 -3 -24q-8 -4 -13 -4h-7q-16 28 -31 87q-26 101 -54.5 126.5t-92.5 25.5q-14 0 -51 -1.5t-110 -1.5h-65q-139 0 -182 -6l-1 -33l1 -184l-1 -116
l1 -113q1 -102 13 -118q17 -22 74 -22l61 1q8 0 62.5 -1.5t134.5 -1.5q193 0 257 16.5t105.5 58.5t104.5 181q19 41 38 41q9 0 20 -8q-29 -99 -33 -130q-11 -70 -13 -143q0 -33 -16 -55h-22l-281 -3l-126 1l-300 -4h-122q-23 0 -43 -1q-180 -8 -265 -8q-15 0 -20.5 5
t-5.5 15zM623 1484q0 39 25 64t61 25t61 -25t25 -61t-25 -61.5t-61 -25.5q-35 0 -60.5 25t-25.5 59z" />
    <glyph glyph-name="edot" unicode="&#x117;" horiz-adv-x="853" 
d="M792 528l-401 -3h-76q-46 0 -94 -4q-9 -30 -9 -41l1 -10v-10l-1 -49q0 -61 38.5 -149.5t110 -135t178.5 -49.5q57 3 91 14t96 51l72 59l6 -40q0 -7 -1 -15q-45 -57 -114 -100t-140 -63q-34 -9 -112 -9q-71 0 -140 29q-102 44 -160.5 141.5t-58.5 236.5q0 44 16.5 113
t59.5 147q29 53 71 87q60 48 105 67q65 27 151 27q93 0 152 -34q80 -45 119.5 -116t39.5 -130v-14zM234 564h47q51 0 304 16q40 2 49 8q18 19 18 34q0 31 -20 70.5t-61.5 61t-96.5 21.5q-116 0 -186 -87q-54 -66 -54 -124zM391 1140q0 39 25 64t61 25t61 -25t25 -61
t-25 -61.5t-61 -25.5q-35 0 -60.5 25t-25.5 59z" />
    <glyph glyph-name="Eogonek" unicode="&#x118;" horiz-adv-x="1344" 
d="M878 -1q-26 -49 -26 -87q0 -66 54.5 -115.5t121.5 -49.5q61 0 124 47l23 -22q-97 -100 -213 -100q-86 0 -145 52t-59 127q0 64 63 148l-195 -4q-261 0 -350 -5l-201 -4q-26 0 -26 20q0 4 1 10q8 15 75 19q97 6 120 18q14 17 14 58l-1 68l1 254l-2 120l1 251l-2 63l-4 250
q0 53 -7.5 79t-111.5 30q-42 1 -67 6q-13 7 -13 18q0 8 5 19q9 5 16 5q14 0 34 -1q60 -5 121 -5l75 2l176 -4q132 0 216 4l89 2q23 0 46 -1l76 -3l135 1l30 -3l69 3q6 -2 11 -5q5 -8 7 -17q0 -14 -4 -39q-5 -33 -5 -40q0 -104 7 -176q-1 -6 -6 -8q-12 0 -20 3q-8 12 -28 64
q-14 36 -48 98t-51.5 68t-59.5 6l-86 2q-18 1 -37 1l-236 -5l-53 -1q-80 0 -95 -16.5t-15 -147.5l5 -231v-139q9 -3 23 -3l68 -1l70 -2l299 5q55 7 66.5 24.5t17.5 86.5q8 85 34 90q14 0 24 -5q2 -8 2 -15t-2 -23q-5 -37 -5 -235q0 -49 6 -118l5 -64q0 -9 -3 -24
q-8 -4 -13 -4h-7q-14 22 -31 87q-28 108 -58.5 130t-88.5 22l-50 -1q-38 -2 -104 -2q-231 0 -254 -6l-1 -35l1 -182l-1 -116q0 -130 5 -164v-15q2 -46 17 -60t72 -14l44 1l70 -2l143 -1q203 0 257.5 17t94 50t110.5 189q19 41 38 41q9 0 20 -8q-43 -139 -46 -273
q0 -37 -16 -55h-23l-280 -3z" />
    <glyph glyph-name="eogonek" unicode="&#x119;" horiz-adv-x="853" 
d="M439 -26q-13 -31 -13 -62q0 -66 54.5 -115.5t121.5 -49.5q61 0 123 47l24 -22q-97 -100 -213 -100q-87 0 -146 52t-59 127q0 58 50 129q-129 19 -216 125t-87 276q0 161 106 301t297 140q140 0 225.5 -90t85.5 -204l-401 -3q-162 -1 -170 -4q-9 -30 -9 -41q0 -3 1 -10
v-34l-1 -23q0 -99 76 -215.5t251 -120.5q126 2 259 124l3 -19q2 -13 2 -36q-42 -53 -104.5 -94t-117.5 -58.5t-142 -19.5zM234 564h55q70 0 129 5l13 1q194 12 203 18q18 18 18 34q0 59 -44.5 106t-133.5 47q-110 0 -175 -74.5t-65 -136.5z" />
    <glyph glyph-name="Ecaron" unicode="&#x11a;" horiz-adv-x="1344" 
d="M50 16q10 9 17 11q17 5 58 8q97 6 120 18q14 20 14 56l-1 70l1 254l-2 120l1 251l-5 285q-1 102 -13 115q-18 19 -107 22q-38 1 -67 6q-13 7 -13 18q0 8 5 19q9 5 16 5q14 0 34 -1q59 -5 122 -5l74 2l176 -4q132 0 206 3t100 3q23 0 114 -4l142 1l17 -3l83 3l10 -5
q5 -8 7 -17q0 -14 -4.5 -43t-4.5 -36q0 -104 7 -176q-1 -6 -6 -8q-11 0 -20 3q-11 19 -29.5 67t-55.5 111q-25 42 -39 50t-58 8q-9 0 -91 2q-22 1 -43 1l-285 -6h-25q-55 0 -66 -14q-17 -24 -17 -141q0 -12 5 -240v-139q11 -3 24 -3h17q17 0 50 -1q52 -2 70 -2q12 0 21 1
q108 4 278 4q53 9 62 21q15 18 22.5 94t33.5 86q13 0 24 -5q2 -8 2 -15t-2 -23q-5 -37 -5 -232q0 -52 5.5 -116t5.5 -69q0 -9 -3 -24q-8 -4 -13 -4h-7q-16 28 -31 87q-26 101 -54.5 126.5t-92.5 25.5q-14 0 -51 -1.5t-110 -1.5h-65q-139 0 -182 -6l-1 -33l1 -184l-1 -116
l1 -113q1 -102 13 -118q17 -22 74 -22l61 1q8 0 62.5 -1.5t134.5 -1.5q193 0 257 16.5t105.5 58.5t104.5 181q19 41 38 41q9 0 20 -8q-29 -99 -33 -130q-11 -70 -13 -143q0 -33 -16 -55h-22l-281 -3l-126 1l-300 -4h-122q-23 0 -43 -1q-180 -8 -265 -8q-15 0 -20.5 5
t-5.5 15zM923 1739q-136 -240 -191 -326h-57q-11 16 -80 133l-111 192l4 26q28 -27 186 -183q17 -16 40 -36q25 28 206 223q3 -9 3 -16v-13z" />
    <glyph glyph-name="ecaron" unicode="&#x11b;" horiz-adv-x="853" 
d="M792 528l-401 -3h-76q-46 0 -94 -4q-9 -30 -9 -41l1 -10v-10l-1 -49q0 -61 38.5 -149.5t110 -135t178.5 -49.5q57 3 91 14t96 51l72 59l6 -40q0 -7 -1 -15q-45 -57 -114 -100t-140 -63q-34 -9 -112 -9q-71 0 -140 29q-102 44 -160.5 141.5t-58.5 236.5q0 44 16.5 113
t59.5 147q29 53 71 87q60 48 105 67q65 27 151 27q93 0 152 -34q80 -45 119.5 -116t39.5 -130v-14zM234 564h47q51 0 304 16q40 2 49 8q18 19 18 34q0 31 -20 70.5t-61.5 61t-96.5 21.5q-116 0 -186 -87q-54 -66 -54 -124zM686 1303q-136 -240 -191 -326h-57q-11 16 -80 133
l-111 192l4 26q28 -27 186 -183q17 -16 40 -36q25 28 206 223q3 -9 3 -16v-13z" />
    <glyph glyph-name="Gcircumflex" unicode="&#x11c;" horiz-adv-x="1579" 
d="M1335 1214l11 -152q6 -69 6 -94l-28 -5q-67 152 -166.5 228t-243.5 76q-176 0 -274 -43q-142 -61 -243 -212t-101 -364q0 -123 37 -221t104.5 -182.5t159.5 -146.5q60 -41 143 -62q47 -11 140 -11q60 0 133 17t110 45.5t50.5 64.5t13.5 140q0 173 -23 201.5t-145 37.5
l-40 3l-27 -1q-6 1 -16 3l-15 25q0 5 7 13q52 8 226 8q39 0 127 -2l103 -4l93 1q27 0 65 -2q7 -1 9 -3.5t2 -8.5q0 -11 -5 -28q-42 -9 -65 -9l-65 1q-33 0 -53 -23q-10 -11 -10 -75l1 -131q0 -135 -11 -172q-6 -22 -25 -39.5t-80 -41.5q-87 -35 -158 -47q-132 -23 -255 -23
q-198 0 -324.5 50.5t-218 140.5t-130.5 182q-59 135 -59 275q0 175 92.5 342.5t298.5 272.5q145 74 394 74q172 0 281.5 -30t173.5 -68zM679 1434q136 240 191 326h57q11 -16 80 -134l111 -191l-4 -26q-28 27 -186 183q-17 16 -40 36q-25 -29 -206 -223q-3 9 -3 16v13z" />
    <glyph glyph-name="gcircumflex" unicode="&#x11d;" horiz-adv-x="917" 
d="M270 -66q-12 6 -77 33q-76 49 -96 73t-20 53q0 26 15 42q22 23 87 44t107 41q-13 9 -41 26q-149 92 -149 255q0 134 94.5 226.5t242.5 92.5q67 0 123 -19q32 -10 95 -50q40 -25 47 -28q16 -5 36 -5q17 0 82.5 8.5t77.5 8.5q23 0 38 -9q12 -20 12 -67q0 -16 -8.5 -24
t-24.5 -8q-28 0 -92.5 17.5t-78.5 17.5q-5 0 -19 -2q43 -86 43 -157t-45 -147t-124 -116t-160 -40q-6 0 -34 1q-92 0 -169 -46q-37 -23 -37 -43q0 -21 36 -41q95 -51 360 -59q115 -4 179 -33t96.5 -85.5t32.5 -116.5q0 -81 -55 -150t-167 -112t-257 -43q-160 0 -247 39
t-123.5 85t-36.5 91q0 39 40 97.5t166 122.5q37 19 51 27zM230 505q0 -90 27 -150.5t74 -90t95 -29.5q87 0 144.5 66.5t57.5 202.5q0 137 -60 208.5t-145 71.5q-95 0 -144 -68t-49 -211zM197 -421q91 -70 230 -70q99 0 197.5 31.5t144 90t45.5 110.5q0 32 -16 63.5t-43.5 52
t-72.5 32.5q-32 9 -91 13q-168 13 -206 13q-107 0 -191 -72q-65 -56 -65 -134q0 -72 68 -130zM284 1006q136 240 191 326h57q11 -16 80 -134l111 -191l-4 -26q-28 27 -186 183q-17 16 -40 36q-25 -29 -206 -223q-3 9 -3 16v13z" />
    <glyph glyph-name="Gdot" unicode="&#x120;" horiz-adv-x="1579" 
d="M1335 1214l11 -152q6 -69 6 -94l-28 -5q-67 152 -166.5 228t-243.5 76q-176 0 -274 -43q-142 -61 -243 -212t-101 -364q0 -123 37 -221t104.5 -182.5t159.5 -146.5q60 -41 143 -62q47 -11 140 -11q60 0 133 17t110 45.5t50.5 64.5t13.5 140q0 173 -23 201.5t-145 37.5
l-40 3l-27 -1q-6 1 -16 3l-15 25q0 5 7 13q52 8 226 8q39 0 127 -2l103 -4l93 1q27 0 65 -2q7 -1 9 -3.5t2 -8.5q0 -11 -5 -28q-42 -9 -65 -9l-65 1q-33 0 -53 -23q-10 -11 -10 -75l1 -131q0 -135 -11 -172q-6 -22 -25 -39.5t-80 -41.5q-87 -35 -158 -47q-132 -23 -255 -23
q-198 0 -324.5 50.5t-218 140.5t-130.5 182q-59 135 -59 275q0 175 92.5 342.5t298.5 272.5q145 74 394 74q172 0 281.5 -30t173.5 -68zM775 1484q0 39 25 64t61 25t61 -25t25 -61t-25 -61.5t-61 -25.5q-35 0 -60.5 25t-25.5 59z" />
    <glyph glyph-name="gdot" unicode="&#x121;" horiz-adv-x="917" 
d="M270 -66q-12 6 -77 33q-76 49 -96 73t-20 53q0 26 15 42q22 23 87 44t107 41q-13 9 -41 26q-149 92 -149 255q0 134 94.5 226.5t242.5 92.5q67 0 123 -19q32 -10 95 -50q40 -25 47 -28q16 -5 36 -5q17 0 82.5 8.5t77.5 8.5q23 0 38 -9q12 -20 12 -67q0 -16 -8.5 -24
t-24.5 -8q-28 0 -92.5 17.5t-78.5 17.5q-5 0 -19 -2q43 -86 43 -157t-45 -147t-124 -116t-160 -40q-6 0 -34 1q-92 0 -169 -46q-37 -23 -37 -43q0 -21 36 -41q95 -51 360 -59q115 -4 179 -33t96.5 -85.5t32.5 -116.5q0 -81 -55 -150t-167 -112t-257 -43q-160 0 -247 39
t-123.5 85t-36.5 91q0 39 40 97.5t166 122.5q37 19 51 27zM230 505q0 -90 27 -150.5t74 -90t95 -29.5q87 0 144.5 66.5t57.5 202.5q0 137 -60 208.5t-145 71.5q-95 0 -144 -68t-49 -211zM197 -421q91 -70 230 -70q99 0 197.5 31.5t144 90t45.5 110.5q0 32 -16 63.5t-43.5 52
t-72.5 32.5q-32 9 -91 13q-168 13 -206 13q-107 0 -191 -72q-65 -56 -65 -134q0 -72 68 -130zM375 1140q0 39 25 64t61 25t61 -25t25 -61t-25 -61.5t-61 -25.5q-35 0 -60.5 25t-25.5 59z" />
    <glyph glyph-name="Gcedilla" unicode="&#x122;" horiz-adv-x="1579" 
d="M1335 1214l11 -152q6 -69 6 -94l-28 -5q-67 152 -166.5 228t-243.5 76q-176 0 -274 -43q-142 -61 -243 -212t-101 -364q0 -123 37 -221t104.5 -182.5t159.5 -146.5q60 -41 143 -62q47 -11 140 -11q60 0 133 17t110 45.5t50.5 64.5t13.5 140q0 173 -23 201.5t-145 37.5
l-40 3l-27 -1q-6 1 -16 3l-15 25q0 5 7 13q52 8 226 8q39 0 127 -2l103 -4l93 1q27 0 65 -2q7 -1 9 -3.5t2 -8.5q0 -11 -5 -28q-42 -9 -65 -9l-65 1q-33 0 -53 -23q-10 -11 -10 -75l1 -131q0 -135 -11 -172q-6 -22 -25 -39.5t-80 -41.5q-87 -35 -158 -47q-132 -23 -255 -23
q-198 0 -324.5 50.5t-218 140.5t-130.5 182q-59 135 -59 275q0 175 92.5 342.5t298.5 272.5q145 74 394 74q172 0 281.5 -30t173.5 -68zM685 -621l-5 46q94 41 141.5 105t47.5 105q0 30 -16 50t-32 20l-31 -1l-32 -1q-22 0 -47.5 22.5t-25.5 58.5q0 40 36.5 66t67.5 26
q71 0 128 -51.5t57 -127.5q0 -118 -109.5 -217t-179.5 -101z" />
    <glyph glyph-name="gcedilla" unicode="&#x123;" horiz-adv-x="917" 
d="M270 -66q-12 6 -77 33q-76 49 -96 73t-20 53q0 26 15 42q22 23 87 44t107 41q-13 9 -41 26q-149 92 -149 255q0 134 94.5 226.5t242.5 92.5q67 0 123 -19q32 -10 95 -50q40 -25 47 -28q16 -5 36 -5q17 0 82.5 8.5t77.5 8.5q23 0 38 -9q12 -20 12 -67q0 -16 -8.5 -24
t-24.5 -8q-28 0 -92.5 17.5t-78.5 17.5q-5 0 -19 -2q43 -86 43 -157t-45 -147t-124 -116t-160 -40q-6 0 -34 1q-92 0 -169 -46q-37 -23 -37 -43q0 -21 36 -41q95 -51 360 -59q115 -4 179 -33t96.5 -85.5t32.5 -116.5q0 -81 -55 -150t-167 -112t-257 -43q-160 0 -247 39
t-123.5 85t-36.5 91q0 39 40 97.5t166 122.5q37 19 51 27zM230 505q0 -90 27 -150.5t74 -90t95 -29.5q87 0 144.5 66.5t57.5 202.5q0 137 -60 208.5t-145 71.5q-95 0 -144 -68t-49 -211zM197 -421q91 -70 230 -70q99 0 197.5 31.5t144 90t45.5 110.5q0 32 -16 63.5t-43.5 52
t-72.5 32.5q-32 9 -91 13q-168 13 -206 13q-107 0 -191 -72q-65 -56 -65 -134q0 -72 68 -130zM616 1407l5 -46q-94 -41 -141.5 -105t-47.5 -105q0 -30 16 -50t32 -20l31 1l32 1q22 0 47.5 -22.5t25.5 -58.5q0 -40 -36.5 -66t-67.5 -26q-71 0 -128 51.5t-57 127.5
q0 118 109.5 217t179.5 101z" />
    <glyph glyph-name="Hcircumflex" unicode="&#x124;" horiz-adv-x="1557" 
d="M39 -15l1 22q34 19 79 24q71 9 90 18.5t27 26.5q14 33 14 67l-2 76l1 70l-2 82q0 51 3 127.5t3 81.5v273q0 65 3 140.5t3 104.5q0 86 -4 100t-15 20t-72 11q-47 4 -65 7q-5 11 -5 18q0 8 1 19q24 2 37 2l94 -1q100 0 212 8q55 4 166 7q2 -9 2 -17q0 -10 -4.5 -15.5
t-15.5 -7.5q-131 -11 -154.5 -32.5t-23.5 -109.5q0 -162 5 -334l4 -94q5 -4 130 -10q34 -2 40 -2l147 2l97 -3l254 8q47 1 57 4q6 174 6 337q0 157 -7 185q-4 17 -14 23q-6 3 -104 16q-17 2 -32 5q-5 15 -5 34q34 5 43 5l66 -4q91 -5 183 -5q59 0 196 10q-1 -20 -5 -36
q-38 -15 -91 -19q-34 -2 -57 -11q-19 -14 -19 -57q0 -10 1 -22q1 -36 1 -47v-115l1 -72l-2 -93l1 -174l-2 -164q0 -49 3 -153l-1 -135q0 -68 12 -97q6 -14 20 -20l81 -18q60 -15 71.5 -24.5t11.5 -22.5l-3 -12l-5 -1q-5 0 -13 2q-109 20 -229 20q-94 0 -133.5 -3t-164.5 -22
q-2 13 -2 19q0 7 2 19q31 18 98 25q50 5 79 32q19 18 19 53l-1 144q3 65 3 71q0 85 -3 248q-3 14 -11 17q-27 9 -266 -4q-48 -3 -72 -3t-100.5 2.5t-141.5 2.5q-35 0 -59 -1q-46 -1 -51 -1q-23 0 -31.5 -9t-8.5 -33l1 -70q0 -17 -5 -189q-1 -35 -1 -58q0 -137 10 -182
q5 -21 18 -29q9 -6 78 -21q46 -10 70 -19l6 -10q0 -5 -4 -8q-6 -5 -17 -5q-8 0 -19 0.5t-43 1.5q-51 1 -127 7q-49 4 -87 4q-64 0 -205 -6q-27 -1 -46 -1zM599 1438q136 240 191 326h57q11 -16 80 -134l111 -191l-4 -26q-28 27 -186 183q-17 16 -40 36q-25 -29 -206 -223
q-3 9 -3 16v13z" />
    <glyph glyph-name="hcircumflex" unicode="&#x125;" horiz-adv-x="1045" 
d="M38 24q117 21 135 32q11 7 11 32l-1 66l1 117l-2 298l1 111v79l3 97q0 228 -4.5 272.5t-17.5 55.5q-24 23 -132 48v5q0 7 2 20q14 2 27 5t25 4q119 34 173 66h49q2 -28 2 -177l-1 -127l1 -164l-4 -202q0 -18 2 -40q63 73 92 97q52 42 111 66.5t124 24.5q123 0 201 -104
q45 -61 45 -173l-3 -102l1 -57l-4 -99q-4 -123 -4 -146q0 -26 2 -70l57 -13q57 -12 88 -22l-1 -31l-213 6q-18 0 -98 -4q-49 -2 -57 -2h-22q-5 9 -5 15v9q14 18 52 24l60 14q12 10 14 21q4 26 9 258l2 74q4 117 -18 194q-14 53 -63.5 84.5t-114.5 31.5q-54 0 -102 -23
q-33 -17 -79 -59t-64 -72q-12 -20 -12 -66l1 -70l-2 -73q0 -9 3 -125l-1 -64l2 -70q1 -15 3 -22l141 -34q11 -3 33 -12l3 -11q0 -5 -5 -16q-29 -1 -44 -1l-78 1l-172 -2l-129 -4q-10 1 -30 2l-1 7q0 8 8 20zM330 1466q136 240 191 326h57q11 -16 80 -134l111 -191l-4 -26
q-28 27 -186 183q-17 16 -40 36q-25 -29 -206 -223q-3 9 -3 16v13z" />
    <glyph glyph-name="Hbar" unicode="&#x126;" horiz-adv-x="1557" 
d="M254 932l-169 -1q-2 25 -2 37q0 9 1 26l128 -2l44 1q3 19 3 107q0 101 -9 111.5t-82 17.5q-56 5 -65 7q-5 10 -5 18t1 19q24 2 38 2l93 -1q100 0 212 8q55 4 166 7q2 -9 2 -16q0 -22 -20 -24q-146 -8 -162 -40t-16 -105v-43l1 -28q0 -39 5 -46t39 -7l274 9l308 -1
q38 -2 63 -2q40 0 45.5 8.5t5.5 93.5q0 65 -5.5 96t-13.5 36.5t-75 13.5l-32 5q-19 2 -32 5q-5 14 -5 34q34 5 44 5l130 -7q25 -2 132 -2q44 0 182 10q-1 -21 -5 -36q-33 -15 -91 -19q-38 -3 -57 -11q-19 -14 -19 -57q0 -10 1 -22l1 -145l190 3q-4 -20 -4 -30t4 -33h-189
v-29l-2 -93l1 -174l-2 -164l3 -153q0 -224 12 -239t81 -27q73 -17 87.5 -25t14.5 -26q0 -4 -3 -12q-4 -1 -5 -1q-5 0 -13 2q-109 20 -226 20q-134 0 -301 -25q-2 13 -2 20q0 6 2 18q26 17 98 25q98 10 98 85l-1 144l2 31l1 42l-3 246q-3 14 -12.5 17.5t-45.5 3.5
q-71 0 -219 -8q-48 -3 -72 -3l-103 3l-139 2q-35 0 -59 -1l-51 -1q-40 0 -40 -42l1 -70l-5 -189l-1 -58q0 -122 6.5 -160t17 -47.5t82.5 -24.5q53 -11 70 -19q6 -6 6 -10q0 -13 -21 -13q-8 0 -20 1l-42 1q-51 1 -127 7q-49 4 -87 4l-205 -6l-46 -1l1 22q30 18 79 24
q84 10 106 29.5t25 82.5l-2 76l1 70l-1 29l-1 53q0 51 4 132l2 77zM1146 678q0 19 1 28l8 206q0 19 -27 19q-27 -2 -63 -2l-58 1l-293 3l-267 -2q-23 0 -28 -5.5t-5 -27.5l1 -67l4 -124l1 -22q0 -18 172 -18l146 2q55 -3 97 -3q74 0 150 4l42 2q107 3 119 6z" />
    <glyph glyph-name="hbar" unicode="&#x127;" horiz-adv-x="1045" 
d="M183 982q-161 0 -191 11q0 10 -2 19q-1 6 -1 8q0 6 6 21h93l94 4l1 41q0 74 -14.5 93.5t-87.5 38.5l-49 14q0 17 2 25q13 2 28 5q13 4 23 4q119 34 173 66h50l1 -19l1 -158l-1 -114l110 -3l51 2l41 1q26 0 54 -7l1 -51q-58 -6 -155 -6q-63 0 -102 3v-116l-4 -202
q0 -19 3 -40q152 188 327 188q96 0 171 -70t75 -207l-3 -102v-57l-3 -99l-4 -146q0 -28 2 -70l56 -13q70 -15 89 -22l-2 -31l-114 4l-99 2l-82 -3l-72 -3h-22q-6 9 -6 15q0 4 1 9q9 17 52 24l60 14q11 10 12.5 18t3.5 84l9 251q0 188 -47 249t-150 61q-27 0 -75 -13
t-105 -68t-66.5 -76t-9.5 -63l1 -70l-2 -73l2 -124v-65q0 -74 4 -92l110 -26q48 -12 65 -20q3 -7 3 -11q0 -5 -5 -16l-44 -1l-79 1l-300 -6l-30 2q-1 5 -1 7q0 7 8 20q122 25 134 30.5t12 33.5l-1 66l1 117l-2 298l1 111v79l1 39l2 58z" />
    <glyph glyph-name="Itilde" unicode="&#x128;" horiz-adv-x="725" 
d="M43 32q22 9 45 11q153 10 175 36.5t22 256.5l-1 105v110l-4 121l2 71l-1 78v92l-2 41l2 52q1 18 1 42q0 63 -6 133q-4 14 -11 27q-37 19 -119.5 25.5t-93.5 14.5q-8 6 -9 31h84l265 -6q102 0 272 6q0 -16 -2 -30q-20 -5 -67 -11q-95 -11 -116 -21q-13 -5 -19 -17
q-10 -18 -12 -67l-5 -129l4 -445v-176q-2 -83 -2 -113q0 -112 5.5 -143t19 -44.5t44.5 -21.5q46 -11 72 -12q56 -2 71 -16q3 -13 3 -22v-8q-91 -3 -134 -3q-25 0 -89 3l-138 -2l-235 1h-19zM627 1589h29q1 -11 1 -16q0 -86 -47.5 -137t-117.5 -51q-35 0 -74 15
q-26 9 -81 46.5t-77 45.5q-31 13 -56 13q-34 0 -56.5 -24t-33.5 -94h-28q-2 6 -2 11q0 67 41 129t125 62q35 0 66.5 -12t90.5 -51q89 -58 132 -58q31 0 54.5 25t33.5 96z" />
    <glyph glyph-name="itilde" unicode="&#x129;" horiz-adv-x="469" 
d="M2 28q14 10 39 13q91 13 115 33q12 12 17 40q6 38 6 186l-1 216l2 87q0 47 -21.5 69t-102.5 41l-1 29q138 32 214 144q11 4 16 4q6 0 16 -4l2 -38v-186l1 -243l-4 -257l1 -43q1 -38 11 -47q17 -16 113 -42q14 -4 25 -9v-26h-17q-168 12 -216 12q-115 0 -184 -8
q-10 -1 -17 -1q-8 0 -13.5 5t-5.5 11q0 5 5 14zM514 1237h29q1 -11 1 -16q0 -86 -47.5 -137t-117.5 -51q-35 0 -74 15q-26 9 -81 46.5t-77 45.5q-31 13 -56 13q-34 0 -56.5 -24t-33.5 -94h-28q-2 6 -2 11q0 67 41 129t125 62q35 0 66.5 -12t90.5 -51q89 -58 132 -58
q31 0 54.5 25t33.5 96z" />
    <glyph glyph-name="Imacron" unicode="&#x12a;" horiz-adv-x="725" 
d="M43 32q22 9 45 11q153 10 175 36.5t22 256.5l-1 105v110l-4 121l2 71l-1 78v92l-2 41l2 52q1 18 1 42q0 63 -6 133q-4 14 -11 27q-37 19 -119.5 25.5t-93.5 14.5q-8 6 -9 31h84l265 -6q102 0 272 6q0 -16 -2 -30q-20 -5 -67 -11q-95 -11 -116 -21q-13 -5 -19 -17
q-10 -18 -12 -67l-5 -129l4 -445v-176q-2 -83 -2 -113q0 -112 5.5 -143t19 -44.5t44.5 -21.5q46 -11 72 -12q56 -2 71 -16q3 -13 3 -22v-8q-91 -3 -134 -3q-25 0 -89 3l-138 -2l-235 1h-19zM90 1498q-1 30 -1 45t1 46l126 -5q111 0 408 5q2 -31 2 -46t-2 -45
q-200 -3 -223 -3q-250 0 -311 3z" />
    <glyph glyph-name="imacron" unicode="&#x12b;" horiz-adv-x="469" 
d="M2 28q14 10 39 13q91 13 115 33q12 12 17 40q6 38 6 186l-1 216l2 87q0 47 -21.5 69t-102.5 41l-1 29q138 32 214 144q11 4 16 4q6 0 16 -4l2 -38v-186l1 -243l-4 -257l1 -43q1 -38 11 -47q17 -16 113 -42q14 -4 25 -9v-26h-17q-168 12 -216 12q-115 0 -184 -8
q-10 -1 -17 -1q-8 0 -13.5 5t-5.5 11q0 5 5 14zM-20 1094q-1 30 -1 45t1 46l126 -5q111 0 408 5q2 -31 2 -46t-2 -45q-200 -3 -223 -3q-250 0 -311 3z" />
    <glyph glyph-name="Ibreve" unicode="&#x12c;" horiz-adv-x="725" 
d="M43 32q22 9 45 11q153 10 175 36.5t22 256.5l-1 105v110l-4 121l2 71l-1 78v92l-2 41l2 52q1 18 1 42q0 63 -6 133q-4 14 -11 27q-37 19 -119.5 25.5t-93.5 14.5q-8 6 -9 31h84l265 -6q102 0 272 6q0 -16 -2 -30q-20 -5 -67 -11q-95 -11 -116 -21q-13 -5 -19 -17
q-10 -18 -12 -67l-5 -129l4 -445v-176q-2 -83 -2 -113q0 -112 5.5 -143t19 -44.5t44.5 -21.5q46 -11 72 -12q56 -2 71 -16q3 -13 3 -22v-8q-91 -3 -134 -3q-25 0 -89 3l-138 -2l-235 1h-19zM121 1697h28q16 -81 71 -124.5t145 -43.5t145.5 44.5t69.5 122.5h33
q-3 -122 -78 -201.5t-172 -79.5q-113 0 -187 103q-55 76 -55 167v12z" />
    <glyph glyph-name="ibreve" unicode="&#x12d;" horiz-adv-x="469" 
d="M2 28q14 10 39 13q91 13 115 33q12 12 17 40q6 38 6 186l-1 216l2 87q0 47 -21.5 69t-102.5 41l-1 29q138 32 214 144q11 4 16 4q6 0 16 -4l2 -38v-186l1 -243l-4 -257l1 -43q1 -38 11 -47q17 -16 113 -42q14 -4 25 -9v-26h-17q-168 12 -216 12q-115 0 -184 -8
q-10 -1 -17 -1q-8 0 -13.5 5t-5.5 11q0 5 5 14zM14 1269h28q16 -81 71 -124.5t145 -43.5t145.5 44.5t69.5 122.5h33q-3 -122 -78 -201.5t-172 -79.5q-113 0 -187 103q-55 76 -55 167v12z" />
    <glyph glyph-name="Iogonek" unicode="&#x12e;" horiz-adv-x="725" 
d="M331 2q-29 -58 -29 -100q0 -73 60 -128t135 -55q67 0 137 53l26 -26q-108 -110 -237 -110q-98 0 -162 58.5t-64 139.5q0 72 72 167l-185 2l-39 -1l-2 30q20 9 45 11q41 2 93 10l10 1q66 7 80 37.5t14 244.5l-1 105l-4 231l2 71l-1 77v93l-2 41l2 52q1 18 1 42
q0 66 -6 133q-4 14 -11 27q-28 18 -126 26q-73 6 -84 12.5t-12 32.5l186 -3l163 -3l272 6q0 -17 -2 -30q-10 -3 -67 -11q-96 -11 -124 -24t-28 -210l4 -445v-176l-1 -44l-1 -69q0 -128 9.5 -159.5t44.5 -45.5t87 -16q63 -2 71 -16q3 -12 3 -30l-134 -3q-25 0 -62 2l-33 1z
" />
    <glyph glyph-name="iogonek" unicode="&#x12f;" horiz-adv-x="469" 
d="M229 1310q41 0 67 -28.5t26 -56.5t-26.5 -57t-66.5 -29q-35 0 -61 24t-26 66q0 37 27.5 59t59.5 22zM195 6q-29 -54 -29 -95q0 -65 54.5 -114.5t121.5 -49.5q61 0 123 47l24 -22q-97 -100 -213 -100q-87 0 -146 52t-59 126q0 67 68 154q-75 0 -103 -5q-11 -2 -15 -2
q-5 0 -16 3q-5 6 -5 12q0 22 62 33l34 6q49 11 57.5 16.5t16 19t9 33t2.5 232.5t1 214q0 80 -8 91t-27.5 25t-88.5 29l1 29l20 6q120 31 192 139q12 2 18 2q5 0 13 -1q4 -47 4 -69l-2 -46v-47l1 -294l-3 -305q0 -41 15.5 -54t73.5 -30q45 -12 60 -19q3 -7 3 -12q0 -6 -5 -15
q-33 0 -100 5q-83 7 -110 7z" />
    <glyph glyph-name="IJ" unicode="&#x132;" horiz-adv-x="1408" 
d="M743 -417l5 -5q22 -20 50 -20q85 0 141 106.5t56 329.5l-1 156l1 25l1 82q0 123 -4 218l-6 165l-2 167l-3 160l2 193q0 43 -25.5 60t-117.5 17q-48 0 -55 7q-3 15 -3 23q0 4 1 12q18 0 54 -2q61 -3 120 -3l75 1q34 2 48 2q209 0 215 -3q-1 -25 -3 -36q-83 -4 -108 -11.5
t-33 -20.5t-9 -61l-4 -80l2 -25l1 -96q0 -49 2 -75l2 -48l-2 -47q-1 -11 -1 -19l8 -159l4 -119l-2 -179v-116q0 -97 -32 -248t-104 -262t-146 -150.5t-190 -39.5q-48 0 -87.5 21t-39.5 65q0 36 23.5 58.5t45.5 22.5q47 0 106 -53q12 -11 15 -13zM43 32q20 9 45 11
q41 2 93 10l10 1q66 7 80 37.5t14 244.5l-1 105l-4 231l2 71l-1 77v93l-2 41l2 52q1 18 1 42q0 66 -6 133q-4 14 -11 27q-28 18 -126 26q-73 6 -84 12.5t-12 32.5l186 -3l163 -3l272 6q0 -17 -2 -30q-10 -3 -67 -11q-96 -11 -124 -24t-28 -210l4 -445v-176l-1 -44l-1 -69
q0 -128 9.5 -159.5t44.5 -45.5t87 -16q63 -2 71 -16q3 -12 3 -30l-134 -3l-89 3l-138 -2l-235 1h-19z" />
    <glyph glyph-name="ij" unicode="&#x133;" horiz-adv-x="981" 
d="M230 1313q33 0 59.5 -24t26.5 -52q0 -42 -28 -68.5t-66 -26.5q-29 0 -56 19.5t-27 61.5q0 90 91 90zM666 1146q-25 54 -25 67q0 31 23.5 62.5t66.5 31.5q38 0 63.5 -27.5t25.5 -65.5q0 -43 -30 -68.5t-70 -25.5q-36 0 -54 26zM-3 33q24 16 78 21l14 4q55 11 67 23.5
t14.5 50.5t5.5 231l-4 167l1 26q0 44 -6.5 91.5t-96.5 63.5q-7 2 -21 4v31q157 43 212 142l34 2q-1 -11 -1 -16q0 -7 2 -33q1 -21 1 -40q0 -18 -1 -42l-2 -48l1 -32v-64l-1 -429q0 -20 1 -41v-28q0 -23 12 -41l38 -12q12 -4 33 -13q4 -1 19 -7q15 -5 45 -18l-4 -27
q-9 -1 -12 -1q-5 0 -39 5l-81 3l-90 4q-104 0 -218 -10zM556 -502q67 65 98 126.5t39 147.5l5 37q2 55 5 88l-2 76l2 72l-2 83v90l4 159l-1 48l1 58q0 139 -12 166t-115 38l-3 34q6 6 16 11q87 32 115 49.5t58 54.5l32 36l27 -3q2 -8 2 -190l-1 -80l2 -44l-2 -41l2 -134v-69
l-1 -45l4 -59l-2 -30l1 -57l3 -78l-4 -41v-39l-4 -52q-5 -133 -75 -253l-7 -13q-18 -35 -76 -94.5t-93 -74.5z" />
    <glyph glyph-name="Jcircumflex" unicode="&#x134;" horiz-adv-x="683" 
d="M-137 -364q19 13 34 13q46 0 105 -53q10 -9 15 -13l5 -5q24 -20 50 -20q38 0 76 26t61 72q31 64 45.5 144t14.5 194l-1 156l2 107q0 109 -8 336l-6 374l1 193q1 26 -9 45q-6 10 -21.5 18t-44.5 9l-74 5q-35 0 -48 7q-4 15 -4 23l1 12q22 0 54 -2q62 -3 121 -3q28 0 74 1
q35 2 49 2h147q31 0 67 -3q0 -23 -2 -36q-86 -4 -109 -12t-34 -22q-7 -9 -7 -35l-4 -104l1 -25q2 -18 2 -69v-40q0 -35 1 -62q2 -40 2 -48q0 -9 -2 -47q-1 -11 -1 -19l12 -278l-2 -179v-116q0 -100 -38 -279q-28 -130 -101 -236.5t-144 -145.5t-189 -39q-63 0 -101 30
q-26 21 -26 56q0 42 36 68zM99 1438q136 240 191 326h57q11 -16 80 -134l111 -191l-4 -26q-28 27 -186 183q-17 16 -40 36q-25 -29 -206 -223q-3 9 -3 16v13z" />
    <glyph glyph-name="jcircumflex" unicode="&#x135;" horiz-adv-x="469" 
d="M27 1006q135 238 191 326h57l72 -121l119 -204l-4 -26l-109 107q-111 109 -117 112l-206 -223q-3 8 -3 16v13zM42 -516l13 16q60 70 78.5 103t31.5 78t19.5 141t6.5 163q0 25 -2 70l1 156q0 390 -8 425t-99 43l-19 2l1 38q129 31 190 111q13 17 29 32q5 1 7 1q5 0 15 -4
l1 -330l8 -448q0 -272 -53 -380.5t-149 -194.5l-41 -37l-14 -8q-9 7 -16 23z" />
    <glyph glyph-name="Kcedilla" unicode="&#x136;" horiz-adv-x="1515" 
d="M444 641q12 11 40 28q56 34 193 136l274 224q113 94 159 148q9 12 14 25q-18 13 -41 19t-73 9t-59.5 9.5t-9.5 16.5q0 11 7 17q13 9 37 9q38 0 66 -5.5t127 -5.5q24 0 35 1l156 8q24 2 37 2q12 0 36 -2q0 -24 -4 -39q-108 -13 -159 -33q-29 -12 -118 -66
q-67 -41 -122 -88l-258 -217l-156 -126q4 -7 12 -14q6 -5 30 -28q105 -98 283.5 -240.5t279.5 -238.5q148 -142 279 -157q32 -4 46 -18l1 -11l-2 -14q-34 -2 -46 -2q-46 0 -139 7q-55 4 -91 4q-144 0 -329 -12q-3 14 -3 21l1 8q13 12 52 22q54 14 114 16q13 0 28 2
q-10 16 -33 37q-4 4 -27 26.5t-81 73.5l-119 95l-183 154q-91 78 -254 199zM58 13q5 10 15 11q101 9 159 36q20 18 20 60l-1 98v186l2 81l-6 278l2 187q0 158 -6 211q-2 20 -13 41q-18 11 -30 13q-43 7 -111 11q-14 10 -14 24q0 5 4 15q56 3 198 3q66 0 104 1q54 3 130 9
q33 -3 78 -3q11 -6 11 -14q0 -6 -2 -13q-12 -6 -45 -10q-87 -9 -118 -38q-21 -20 -21 -76l1 -19l-2 -376l-3 -259l7 -257q1 -122 6 -134.5t16 -19.5q35 -21 107 -28q18 -2 35 -7q6 -13 6 -22q0 -10 -12 -19l-32 -1q-20 0 -96 7t-113 7q-31 0 -86 -7t-150 -7q-14 0 -38 1z
M713 -188l-6 68l-3 33q86 -1 125.5 -13t69 -55t29.5 -107q0 -81 -44.5 -127t-116.5 -46q-83 0 -83 59q0 39 32 39q17 0 47 -14q33 -14 52 -14q60 0 60 67q0 40 -30 76t-93 36q-11 0 -39 -2z" />
    <glyph glyph-name="kcedilla" unicode="&#x137;" horiz-adv-x="960" 
d="M54 0l-2 29q8 6 15 7.5t50.5 4.5t54.5 19.5t11 136.5l2 395l-2 70q0 9 2 67q2 27 2 65l-4 174l1 152q0 55 -15.5 70.5t-109.5 28.5v12q0 6 1 17q57 12 101 30q23 10 117 62h31q-1 -23 -1 -28v-87l-1 -43l3 -79l-1 -119l1 -198l-3 -246v-76q0 -14 1 -39l11 -1q34 0 69 25
q157 112 197 152.5t40 58.5q0 11 -13 28q-30 16 -67 22q-11 2 -24 5q-18 5 -30 7l-2 10q0 7 5 20q158 6 275 6q66 0 141 -3v-13q0 -7 -5 -18q-15 -3 -47 -9q-62 -10 -94 -28q-77 -41 -159 -115q-49 -44 -85 -74l-36 -31q4 -7 13 -17q4 -4 16 -18t43 -47q108 -114 160 -176
q17 -20 38 -44q78 -87 91 -97q28 -18 83 -28q26 -5 45 -9q4 -12 4 -19l-1 -10q-71 6 -102 6h-18l-278 -8q-16 -2 -22 -2q-10 0 -21 4q-3 8 -3 14v7q6 9 11 11q99 8 115 13q9 2 17 11q0 17 -29 55t-145 167q-74 82 -95.5 95.5t-59.5 13.5h-38q-4 -36 -4 -165q0 -120 20 -154
q11 -19 52 -24t53 -15q8 -6 10 -28q-60 1 -101 1q-66 0 -144 -3q-47 -2 -74 -2q-20 0 -66 1zM407 -188l-6 68l-3 33q86 -1 125.5 -13t69 -55t29.5 -107q0 -81 -44.5 -127t-116.5 -46q-83 0 -83 59q0 39 32 39q17 0 47 -14q33 -14 52 -14q60 0 60 67q0 40 -30 76t-93 36
q-11 0 -39 -2z" />
    <glyph glyph-name="kgreenlandic" unicode="&#x138;" horiz-adv-x="960" 
d="M354 -3q-19 -3 -37 -3q-27 0 -55 3l-57 3q-61 0 -139 -8q-4 -1 -7 -1q-24 0 -24 16t34 18q68 4 68 68l-1 140l1 331q0 143 -5.5 157.5t-47.5 17.5q-41 3 -41 21q0 21 33 21q9 0 18 -2q36 -4 108 -4l166 1q5 -9 5 -15q0 -15 -29 -17q-54 -4 -69.5 -21.5t-15.5 -51.5l1 -42
l2 -50l-2 -59l-2 -75l2 -188q0 -49 -2 -94l-2 -70q0 -27 11 -40t72 -22q19 -2 19 -16q0 -7 -4 -18zM412 428q86 -67 323 -298q84 -83 169 -101q22 -4 22 -15q0 -26 -37 -26q-18 0 -39 3q-40 6 -137 6l-122 -9q-9 -1 -17 -1q-26 0 -26 18q0 23 70 30l50 7l-301 277
q-71 66 -73 70q12 11 59 47q98 75 254 226l37 34q18 16 18 23q0 21 -68 21q-14 0 -42 3q-3 12 -3 17t3 15l313 1l2 -28q-117 -30 -173 -69t-124 -105l-60 -54q-63 -55 -98 -92z" />
    <glyph glyph-name="Lacute" unicode="&#x139;" horiz-adv-x="1173" 
d="M11 -6q1 15 8 27q78 21 152 28q49 4 63 22q10 13 12 96l7 264l-1 179l1 234v62q1 211 -2 263q-1 10 -8 28q-26 12 -43.5 16t-156.5 29q-1 11 -1 16q0 6 1 16q19 0 62 -2l152 -5l88 -2l26 1q5 0 29 -2q59 0 68 1l80 6q81 0 114 -3q-1 -18 -7 -39q-11 -2 -104 -5.5
t-107 -11.5q-23 -13 -23 -80q0 -16 -2 -65v-60l1 -185v-63l2 -331l-3 -282l1 -62q0 -30 10 -37q25 -1 147 -2h68l173 6q68 2 97 13.5t97 67.5q41 36 64 74q5 8 17 24q19 26 51 104h33q-6 -36 -13 -68q-29 -141 -40 -235q-2 -20 -4 -37l-374 11q-482 0 -572 -9q-28 -2 -59 -2
h-104zM476 1408l124 179q54 79 107 114q22 15 48 15q27 0 43 -15t16 -35q0 -19 -14 -40t-67 -57l-235 -161l-11 -1z" />
    <glyph glyph-name="lacute" unicode="&#x13a;" horiz-adv-x="469" 
d="M52 1239v22q28 9 62 19q50 16 148 49h47q1 -48 1 -55q0 -821 -5 -979q-3 -93 -3 -99q0 -112 9 -125q12 -18 73.5 -25t72.5 -14q8 -4 8 -14q0 -11 -4.5 -15.5t-16.5 -4.5q-7 0 -105 3l-131 4l-168 -7q-16 -1 -24 6q-6 5 -6 14q0 10 6.5 14.5t72 15.5t75 18.5t12.5 33.5
q4 36 4 203l-1 230l3 238l-1 238l3 117q0 35 -11 50.5t-47 30.5q-54 22 -74 32zM103 1354l124 179q54 79 107 114q22 15 48 15q27 0 43 -15t16 -35q0 -19 -14 -40t-67 -57l-235 -161l-11 -1z" />
    <glyph glyph-name="Lcedilla" unicode="&#x13b;" horiz-adv-x="1173" 
d="M11 -6q1 15 8 27q78 21 152 28q49 4 63 22q10 13 12 96l7 264l-1 179l1 234v62q1 211 -2 263q-1 10 -8 28q-26 12 -43.5 16t-156.5 29q-1 11 -1 16q0 6 1 16q19 0 62 -2l152 -5l88 -2l26 1q5 0 29 -2q59 0 68 1l80 6q81 0 114 -3q-1 -18 -7 -39q-11 -2 -104 -5.5
t-107 -11.5q-23 -13 -23 -80q0 -16 -2 -65v-60l1 -185v-63l2 -331l-3 -282l1 -62q0 -30 10 -37q25 -1 147 -2h68l173 6q68 2 97 13.5t97 67.5q41 36 64 74q5 8 17 24q19 26 51 104h33q-6 -36 -13 -68q-29 -141 -40 -235q-2 -20 -4 -37l-374 11q-482 0 -572 -9q-28 -2 -59 -2
h-104zM567 -188l-6 68l-3 33q86 -1 125.5 -13t69 -55t29.5 -107q0 -81 -44.5 -127t-116.5 -46q-83 0 -83 59q0 39 32 39q17 0 47 -14q33 -14 52 -14q60 0 60 67q0 40 -30 76t-93 36q-11 0 -39 -2z" />
    <glyph glyph-name="lcedilla" unicode="&#x13c;" horiz-adv-x="469" 
d="M52 1239v22q28 9 62 19q50 16 148 49h47q1 -48 1 -55q0 -821 -5 -979q-3 -93 -3 -99q0 -112 9 -125q12 -18 73.5 -25t72.5 -14q8 -4 8 -14q0 -11 -4.5 -15.5t-16.5 -4.5q-7 0 -105 3l-131 4l-168 -7q-16 -1 -24 6q-6 5 -6 14q0 10 6.5 14.5t72 15.5t75 18.5t12.5 33.5
q4 36 4 203l-1 230l3 238l-1 238l3 117q0 35 -11 50.5t-47 30.5q-54 22 -74 32zM144 -188l-6 68l-3 33q86 -1 125.5 -13t69 -55t29.5 -107q0 -81 -44.5 -127t-116.5 -46q-83 0 -83 59q0 39 32 39q17 0 47 -14q33 -14 52 -14q60 0 60 67q0 40 -30 76t-93 36q-11 0 -39 -2z
" />
    <glyph glyph-name="Lcaron" unicode="&#x13d;" horiz-adv-x="1173" 
d="M11 -6q1 15 8 27q78 21 152 28q49 4 63 22q10 13 12 96l7 264l-1 179l1 234v62q1 211 -2 263q-1 10 -8 28q-26 12 -43.5 16t-156.5 29q-1 11 -1 16q0 6 1 16q19 0 62 -2l152 -5l88 -2l26 1q5 0 29 -2q59 0 68 1l80 6q81 0 114 -3q-1 -18 -7 -39q-11 -2 -104 -5.5
t-107 -11.5q-23 -13 -23 -80q0 -16 -2 -65v-60l1 -185v-63l2 -331l-3 -282l1 -62q0 -30 10 -37q25 -1 147 -2h68l173 6q68 2 97 13.5t97 67.5q41 36 64 74q5 8 17 24q19 26 51 104h33q-6 -36 -13 -68q-29 -141 -40 -235q-2 -20 -4 -37l-374 11q-482 0 -572 -9q-28 -2 -59 -2
h-104zM795 806l-5 46q94 41 141.5 105t47.5 105q0 30 -16 50t-32 20l-31 -1l-32 -1q-22 0 -47.5 22.5t-25.5 58.5q0 40 36.5 66t67.5 26q71 0 128 -51.5t57 -127.5q0 -118 -109.5 -217t-179.5 -101z" />
    <glyph glyph-name="lcaron" unicode="&#x13e;" horiz-adv-x="768" 
d="M52 1239v22q28 9 62 19q50 16 148 49h47q1 -48 1 -55q0 -821 -5 -979q-3 -93 -3 -99q0 -112 9 -125q12 -18 73.5 -25t72.5 -14q8 -4 8 -14q0 -11 -4.5 -15.5t-16.5 -4.5q-7 0 -105 3l-131 4l-168 -7q-16 -1 -24 6q-6 5 -6 14q0 10 6.5 14.5t72 15.5t75 18.5t12.5 33.5
q4 36 4 203l-1 230l3 238l-1 238l3 117q0 35 -11 50.5t-47 30.5q-54 22 -74 32zM423 832l-5 46q94 41 141.5 105t47.5 105q0 30 -16 50t-32 20l-31 -1l-32 -1q-22 0 -47.5 22.5t-25.5 58.5q0 40 36.5 66t67.5 26q71 0 128 -51.5t57 -127.5q0 -118 -109.5 -217t-179.5 -101z
" />
    <glyph glyph-name="Ldot" unicode="&#x13f;" horiz-adv-x="1173" 
d="M11 -6q1 15 8 27q78 21 152 28q49 4 63 22q10 13 12 96l7 264l-1 179l1 234v62q1 211 -2 263q-1 10 -8 28q-26 12 -43.5 16t-156.5 29q-1 11 -1 16q0 6 1 16q19 0 62 -2l152 -5l88 -2l26 1q5 0 29 -2q59 0 68 1l80 6q81 0 114 -3q-1 -18 -7 -39q-11 -2 -104 -5.5
t-107 -11.5q-23 -13 -23 -80q0 -16 -2 -65v-60l1 -185v-63l2 -331l-3 -282l1 -62q0 -30 10 -37q25 -1 147 -2h68l173 6q68 2 97 13.5t97 67.5q41 36 64 74q5 8 17 24q19 26 51 104h33q-6 -36 -13 -68q-29 -141 -40 -235q-2 -20 -4 -37l-374 11q-482 0 -572 -9q-28 -2 -59 -2
h-104zM703 656q0 39 25 64t61 25t61 -25t25 -61t-25 -61.5t-61 -25.5q-35 0 -60.5 25t-25.5 59z" />
    <glyph glyph-name="ldot" unicode="&#x140;" horiz-adv-x="671" 
d="M52 1239v22q28 9 62 19q50 16 148 49h47q1 -48 1 -55q0 -821 -5 -979q-3 -93 -3 -99q0 -112 9 -125q12 -18 73.5 -25t72.5 -14q8 -4 8 -14q0 -11 -4.5 -15.5t-16.5 -4.5q-7 0 -105 3l-131 4l-168 -7q-16 -1 -24 6q-6 5 -6 14q0 10 6.5 14.5t72 15.5t75 18.5t12.5 33.5
q4 36 4 203l-1 230l3 238l-1 238l3 117q0 35 -11 50.5t-47 30.5q-54 22 -74 32zM443 688q0 39 25 64t61 25t61 -25t25 -61t-25 -61.5t-61 -25.5q-35 0 -60.5 25t-25.5 59z" />
    <glyph glyph-name="Nacute" unicode="&#x143;" horiz-adv-x="1579" 
d="M27 1223l-1 48q155 0 227 8q28 3 39 3q9 0 27 -1q42 -35 78 -80q8 -9 18 -20l211 -233l30 -36q64 -75 116.5 -128t204.5 -221l239 -265q35 -39 90 -97l1 16q-6 139 -6 147l4 60l-2 94v43q0 41 -7 253q-1 29 -8 109.5t-7 141.5q0 110 -13 128q-9 13 -85 27q-18 1 -56 6
q-45 2 -53 5t-16 17q2 16 9 30q27 8 53 8q28 0 69.5 -7t74.5 -7q46 0 143 6q55 4 76 4h17l-2 -31q-16 -7 -44 -8.5t-52 -8.5q-36 -11 -43 -19q-24 -26 -24 -53l11 -316l8 -145l-1 -42l6 -201q6 -206 6 -358q0 -33 -4 -143l-47 -4q-35 40 -241 252q-48 49 -65 69l-86 99
q-50 55 -65 70l-22 22q-109 124 -283 310q-47 50 -138 156q-57 67 -72 82t-41 34l-3 -34q0 -195 10 -538l7 -331q1 -42 5 -81l35 -8q95 -9 187 -27q7 -6 12 -9l-1 -38q-16 -5 -26 -5q-11 0 -27 2q-99 8 -241 8q-100 0 -176 -5l-14 -1q-9 0 -26 2l-1 30l26 12l47 7
q63 9 92 20q19 7 31 21q11 69 11 202q0 62 -3 227v136l-2 284q-2 190 -13 224q-6 18 -25 32q-38 27 -99.5 34t-79.5 12zM664 1416l124 179q54 79 107 114q22 15 48 15q27 0 43 -15t16 -35q0 -19 -14 -40t-67 -57l-235 -161l-11 -1z" />
    <glyph glyph-name="nacute" unicode="&#x144;" horiz-adv-x="1045" 
d="M38 32q25 7 58 12q63 9 75.5 21t12.5 55l2 36q1 20 1 51l-2 307q0 62 -16 80q-27 28 -100 39v36q73 20 112 52q57 45 96 122l34 -1q3 -47 3 -67v-66l1 -18q12 8 28 20q60 45 123 73.5t112 39.5q31 8 70 8q82 0 141 -44t76.5 -103.5t17.5 -236.5v-151q0 -6 -1.5 -40
t-1.5 -78q0 -70 6 -89q5 -13 26 -26q96 -13 112 -31v-8q0 -10 -6 -25h-19l-132 1l-130 -2q-72 -2 -133 1l-6 21q0 6 7 16q27 12 76 16q29 2 40 6t27 16q12 24 12 40q0 7 -2 28q-3 46 -4 229v52l2 80q0 129 -52 178t-139 49q-67 0 -131 -29.5t-124 -88.5q-2 -48 -2 -82
l3 -221q0 -173 5 -212q2 -16 7 -22q8 -8 32 -13t55.5 -14t41.5 -11q20 -5 27 -20l-1 -20h-105l-216 3q-75 -2 -95 -2h-25l-2 13q0 7 3 20zM432 984l124 179q54 79 107 114q22 15 48 15q27 0 43 -15t16 -35q0 -19 -14 -40t-67 -57l-235 -161l-11 -1z" />
    </font>
</defs>
</svg>
